<?xml version="1.0" encoding="UTF-8"?>
<svg xmlns="http://www.w3.org/2000/svg" xmlns:xlink="http://www.w3.org/1999/xlink" viewBox="0 0 48 48" width="48px" height="48px">
<g id="surface113049476">
<path style="fill-rule:nonzero;fill:rgb(0%,0%,0%);fill-opacity:1;stroke-width:10;stroke-linecap:butt;stroke-linejoin:round;stroke:rgb(0%,0%,0%);stroke-opacity:1;stroke-miterlimit:10;" d="M 157.395833 17.041667 C 158.9375 18.75 159.166667 21.25 157.9375 23.208333 C 148.8125 37.75 154.916667 62.916667 170.520833 75.020833 C 173.166667 77.0625 176.083333 78.895833 179.1875 80.4375 C 180.75 81.208333 182.416667 81.895833 184.104167 82.5 C 185.375 82.979167 186.8125 83.479167 188.145833 83.791667 C 205.875 88.208333 218.6875 84.854167 226.166667 73.833333 L 226.1875 73.833333 C 227.770833 71.5 230.958333 70.895833 233.270833 72.479167 C 235.625 74.083333 236.229167 77.25 234.645833 79.604167 C 234.625 79.625 234.625 79.625 234.625 79.645833 C 234.375 79.958333 234.125 80.479167 233.75 81.125 C 230.145833 87.729167 219.25 107.520833 191.208333 107.520833 C 190.5625 107.520833 189.916667 107.5 189.270833 107.5 C 185.5625 107.375 181.604167 106.916667 177.541667 106.104167 C 176.75 105.9375 175.916667 105.6875 175.125 105.416667 L 174.5625 105.229167 C 174.4375 105.208333 173.6875 104.958333 173.604167 104.916667 C 172.708333 104.604167 172.208333 104.416667 171.6875 104.25 C 156.25 98.4375 143.291667 86.041667 137.0625 71.0625 C 134.375 64.604167 133.0625 57.895833 133.125 51.145833 C 133.229167 42.125 135.854167 33.458333 140.791667 26.0625 C 140.833333 25.979167 140.895833 25.895833 140.958333 25.8125 C 141.916667 24.541667 146.916667 18.0625 151.3125 15.875 C 151.833333 15.645833 152.375 15.479167 152.916667 15.395833 C 154.5625 15.1875 156.25 15.75 157.395833 17.041667 Z M 110.8125 26.8125 C 112.729167 28.416667 113.1875 31.145833 111.9375 33.270833 C 102.375 49.791667 99.229167 67.9375 103.479167 81.791667 C 108.0625 96.895833 117.8125 110.979167 131.020833 121.520833 L 131.583333 121.979167 C 133 123.104167 134.229167 124.020833 135.458333 124.895833 C 136.020833 125.25 136.604167 125.645833 137.208333 126.020833 C 137.25 126.0625 137.645833 126.333333 137.6875 126.354167 L 138.166667 126.666667 C 138.833333 127.145833 139.583333 127.604167 140.3125 128.041667 L 141.3125 128.625 C 142.229167 129.166667 142.791667 129.520833 143.458333 129.833333 L 146.375 131.354167 C 147.4375 131.875 148.625 132.458333 149.833333 132.979167 L 150.5 133.270833 C 151.5 133.729167 152.3125 134.041667 153.145833 134.354167 L 154.5625 134.895833 C 155.5625 135.270833 156.4375 135.583333 157.333333 135.854167 C 157.75 136.020833 157.979167 136.104167 158.25 136.1875 C 159.770833 136.6875 161.020833 137.041667 162.291667 137.354167 C 189.875 144.645833 216.958333 135.791667 231.270833 114.875 C 232.708333 112.791667 235.416667 112.041667 237.708333 113.125 C 239.979167 114.208333 241.125 116.770833 240.416667 119.208333 C 240.270833 119.6875 225.583333 167.708333 169.0625 168.9375 C 168.3125 168.9375 167.5625 168.958333 166.791667 168.958333 C 160.375 168.958333 153.604167 168.354167 146.625 167.208333 C 145.208333 166.958333 143.895833 166.520833 142.770833 166.145833 L 140.541667 165.395833 C 139.5625 165.083333 138.583333 164.75 137.625 164.395833 C 137.583333 164.375 137.083333 164.208333 137.041667 164.166667 L 136.4375 163.9375 C 135.125 163.4375 134.041667 163 132.979167 162.541667 L 131.354167 161.8125 C 130.291667 161.333333 129.25 160.833333 128.229167 160.3125 C 128.145833 160.270833 127.770833 160.125 127.708333 160.083333 L 126.145833 159.25 C 125.4375 158.875 125.145833 158.729167 124.854167 158.5625 C 124.229167 158.25 123.25 157.6875 122.3125 157.125 C 120.895833 156.291667 119.895833 155.6875 118.875 155 L 118.3125 154.645833 L 117.833333 154.3125 C 117.354167 153.979167 116.875 153.6875 116.395833 153.354167 C 116.25 153.25 116.125 153.166667 115.979167 153.0625 C 114.604167 152.083333 113.25 151.083333 111.9375 150.020833 L 111.479167 149.6875 C 109.770833 148.333333 108.5 147.270833 107.25 146.166667 C 107.145833 146.0625 107.020833 145.979167 106.9375 145.854167 L 106.916667 145.854167 C 105.791667 144.854167 104.729167 143.8125 103.666667 142.791667 L 103.25 142.375 L 102.75 141.854167 C 101.708333 140.8125 100.645833 139.75 99.666667 138.625 C 96.8125 136.0625 94.604167 132.770833 92.625 129.875 L 91.916667 128.875 C 89.583333 125.479167 87.375 121.770833 85.4375 117.895833 C 73.0625 93.395833 74.125 64.395833 88.125 44.020833 C 88.1875 43.9375 88.229167 43.875 88.25 43.791667 C 88.604167 43.375 96.520833 33.0625 104.25 26.75 C 105.229167 25.958333 106.395833 25.583333 107.5625 25.604167 C 108.729167 25.604167 109.875 26.020833 110.8125 26.8125 Z M 54.645833 42.270833 C 56.604167 44.0625 56.875 47.020833 55.3125 49.125 C 39.791667 70.104167 45 127.375 64.916667 154.8125 C 65.666667 155.854167 66.395833 156.833333 67.145833 157.833333 C 67.479167 158.25 67.75 158.625 68.020833 159 L 70.1875 161.645833 C 71.354167 163.041667 72.25 164.0625 73.166667 165.083333 C 74.166667 166.1875 75.041667 167.104167 75.916667 168 L 79.541667 171.604167 C 80.770833 172.770833 81.8125 173.729167 82.833333 174.666667 C 82.979167 174.75 83.083333 174.833333 83.208333 174.958333 C 84.125 175.75 85 176.541667 85.9375 177.291667 L 87.0625 178.229167 C 87.666667 178.708333 88.291667 179.1875 88.9375 179.6875 C 89.666667 180.229167 90.104167 180.583333 90.541667 180.895833 C 91.25 181.416667 92.083333 182.0625 92.9375 182.666667 L 93.4375 183.020833 C 94.708333 183.895833 95.5625 184.479167 96.4375 185.041667 C 96.9375 185.375 97.208333 185.583333 97.5 185.75 C 98.770833 186.583333 100.083333 187.354167 101.333333 188.145833 C 101.75 188.354167 102.208333 188.625 102.625 188.895833 L 106.791667 191.145833 C 107.729167 191.645833 108.4375 192.020833 109.166667 192.375 C 109.25 192.395833 110.0625 192.791667 110.145833 192.833333 C 111.1875 193.354167 112.229167 193.833333 113.291667 194.333333 L 114 194.645833 C 115.208333 195.1875 116.4375 195.708333 117.6875 196.208333 L 118.791667 196.645833 C 119.770833 197.020833 120.895833 197.458333 122.020833 197.833333 C 122.020833 197.833333 122.604167 198.0625 122.625 198.0625 C 123.875 198.5 125.1875 198.9375 126.479167 199.333333 L 128.395833 199.916667 C 129.375 200.229167 130.375 200.5 131.354167 200.75 C 172 210.083333 207.5 200.875 226.3125 176.104167 C 227.875 174.083333 230.6875 173.5 232.875 174.729167 C 235.125 175.958333 236.104167 178.645833 235.208333 181.020833 C 234.958333 181.625 211.604167 240.645833 138.25 240.645833 C 129.4375 240.645833 120.145833 239.75 110.625 238 C 109.270833 237.75 108.041667 237.333333 106.791667 236.958333 L 105.770833 236.645833 C 105.75 236.645833 105.416667 236.541667 105.125 236.4375 C 103.3125 235.875 101.916667 235.416667 100.5 234.9375 C 100.395833 234.895833 99.854167 234.6875 99.75 234.645833 C 98.708333 234.25 97.395833 233.770833 96.166667 233.291667 C 96.104167 233.270833 95.8125 233.1875 95.541667 233.0625 C 93.791667 232.354167 92.479167 231.791667 91.125 231.229167 C 91.125 231.229167 90.645833 231 90.645833 230.979167 C 89.166667 230.3125 87.979167 229.770833 86.8125 229.208333 C 86.729167 229.166667 85.895833 228.75 85.791667 228.708333 C 84.645833 228.145833 83.875 227.729167 83.1875 227.333333 C 82.6875 227.083333 82.104167 226.791667 81.520833 226.479167 C 80.541667 225.958333 79.5 225.354167 78.479167 224.75 L 77.604167 224.25 C 75.958333 223.270833 74.625 222.458333 73.270833 221.583333 L 69.604167 219.125 C 69.5 219.0625 69.333333 218.9375 69.208333 218.8125 C 68.854167 218.604167 68.520833 218.354167 68.208333 218.125 C 67.25 217.416667 66.395833 216.8125 65.583333 216.229167 L 60.6875 212.333333 C 59.729167 211.5625 58.770833 210.75 57.833333 209.916667 C 57.770833 209.875 57.0625 209.25 57.020833 209.208333 C 56.25 208.5625 55.25 207.645833 54.291667 206.729167 L 53.5 205.979167 C 53.5 205.979167 53.125 205.625 53.125 205.604167 C 52.3125 204.854167 51.5625 204.083333 50.791667 203.270833 L 49.875 202.395833 C 48.916667 201.375 48 200.395833 47.104167 199.416667 C 46.958333 199.25 46.8125 199.125 46.6875 198.958333 C 45.75 197.916667 44.791667 196.833333 43.916667 195.75 L 43.5 195.270833 C 43.479167 195.25 43.166667 194.854167 43.125 194.8125 L 40.208333 191.125 C 39.541667 190.291667 38.791667 189.291667 38.083333 188.25 L 37.75 187.8125 C 37.729167 187.770833 37.6875 187.75 37.645833 187.6875 C 36.75 186.5 35.958333 185.25 35.166667 184.020833 C 35 183.8125 34.75 183.479167 34.520833 183.104167 L 33.729167 181.8125 C 33.375 181.270833 33.041667 180.75 32.729167 180.229167 C 32.645833 180.083333 32.395833 179.6875 32.166667 179.291667 L 30.520833 176.479167 C 30.083333 175.729167 29.833333 175.270833 29.604167 174.770833 C 29.5 174.666667 29.25 174.25 29.104167 173.854167 C 29 173.75 28.708333 173.145833 28.4375 172.5625 L 28.25 172.25 C 27.9375 171.666667 27.645833 171.083333 27.354167 170.479167 C 13 141.541667 8.958333 94.208333 29.875 63.75 C 30.6875 62.4375 38 51.0625 47.770833 42.270833 C 48.75 41.395833 50 40.958333 51.229167 40.958333 C 52.4375 40.958333 53.6875 41.395833 54.645833 42.270833 Z M 54.645833 42.270833 " transform="matrix(0.1875,0,0,0.1875,0,0)"/>
<path style=" stroke:none;fill-rule:nonzero;fill:rgb(98.039216%,32.156864%,32.156864%);fill-opacity:1;" d="M 28.671875 2.886719 C 28.570312 2.902344 28.46875 2.933594 28.371094 2.976562 C 27.546875 3.386719 26.609375 4.601562 26.429688 4.839844 C 26.417969 4.855469 26.40625 4.871094 26.398438 4.886719 C 25.472656 6.273438 24.980469 7.898438 24.960938 9.589844 C 24.949219 10.855469 25.195312 12.113281 25.699219 13.324219 C 26.867188 16.132812 29.296875 18.457031 32.191406 19.546875 C 32.289062 19.578125 32.382812 19.613281 32.550781 19.671875 C 32.566406 19.679688 32.707031 19.726562 32.730469 19.730469 L 32.835938 19.765625 C 32.984375 19.816406 33.140625 19.863281 33.289062 19.894531 C 34.050781 20.046875 34.792969 20.132812 35.488281 20.15625 C 35.609375 20.15625 35.730469 20.160156 35.851562 20.160156 C 41.109375 20.160156 43.152344 16.449219 43.828125 15.210938 C 43.898438 15.089844 43.945312 14.992188 43.992188 14.933594 C 43.992188 14.929688 43.992188 14.929688 43.996094 14.925781 C 44.292969 14.484375 44.179688 13.890625 43.738281 13.589844 C 43.304688 13.292969 42.707031 13.40625 42.410156 13.84375 L 42.40625 13.84375 C 41.003906 15.910156 38.601562 16.539062 35.277344 15.710938 C 35.027344 15.652344 34.757812 15.558594 34.519531 15.46875 C 34.203125 15.355469 33.890625 15.226562 33.597656 15.082031 C 33.015625 14.792969 32.46875 14.449219 31.972656 14.066406 C 29.046875 11.796875 27.902344 7.078125 29.613281 4.351562 C 29.84375 3.984375 29.800781 3.515625 29.511719 3.195312 C 29.296875 2.953125 28.980469 2.847656 28.671875 2.886719 Z M 20.167969 4.800781 C 19.949219 4.796875 19.730469 4.867188 19.546875 5.015625 C 18.097656 6.199219 16.613281 8.132812 16.546875 8.210938 C 16.542969 8.226562 16.535156 8.238281 16.523438 8.253906 C 13.898438 12.074219 13.699219 17.511719 16.019531 22.105469 C 16.382812 22.832031 16.796875 23.527344 17.234375 24.164062 L 17.367188 24.351562 C 17.738281 24.894531 18.152344 25.511719 18.6875 25.992188 C 18.871094 26.203125 19.070312 26.402344 19.265625 26.597656 L 19.359375 26.695312 L 19.4375 26.773438 C 19.636719 26.964844 19.835938 27.160156 20.046875 27.347656 L 20.050781 27.347656 C 20.066406 27.371094 20.089844 27.386719 20.109375 27.40625 C 20.34375 27.613281 20.582031 27.8125 20.902344 28.066406 L 20.988281 28.128906 C 21.234375 28.328125 21.488281 28.515625 21.746094 28.699219 C 21.773438 28.71875 21.796875 28.734375 21.824219 28.753906 C 21.914062 28.816406 22.003906 28.871094 22.09375 28.933594 L 22.183594 28.996094 L 22.289062 29.0625 C 22.480469 29.191406 22.667969 29.304688 22.933594 29.460938 C 23.109375 29.566406 23.292969 29.671875 23.410156 29.730469 C 23.464844 29.761719 23.519531 29.789062 23.652344 29.859375 L 23.945312 30.015625 C 23.957031 30.023438 24.027344 30.050781 24.042969 30.058594 C 24.234375 30.15625 24.429688 30.25 24.628906 30.339844 L 24.933594 30.476562 C 25.132812 30.5625 25.335938 30.644531 25.582031 30.738281 L 25.695312 30.78125 C 25.703125 30.789062 25.796875 30.820312 25.804688 30.824219 C 25.984375 30.890625 26.167969 30.953125 26.351562 31.011719 L 26.769531 31.152344 C 26.980469 31.222656 27.226562 31.304688 27.492188 31.351562 C 28.800781 31.566406 30.070312 31.679688 31.273438 31.679688 C 31.417969 31.679688 31.558594 31.675781 31.699219 31.675781 C 42.296875 31.445312 45.050781 22.441406 45.078125 22.351562 C 45.210938 21.894531 44.996094 21.414062 44.570312 21.210938 C 44.140625 21.007812 43.632812 21.148438 43.363281 21.539062 C 40.679688 25.460938 35.601562 27.121094 30.429688 25.753906 C 30.191406 25.695312 29.957031 25.628906 29.671875 25.535156 C 29.621094 25.519531 29.578125 25.503906 29.5 25.472656 C 29.332031 25.421875 29.167969 25.363281 28.980469 25.292969 L 28.714844 25.191406 C 28.558594 25.132812 28.40625 25.074219 28.21875 24.988281 L 28.09375 24.933594 C 27.867188 24.835938 27.644531 24.726562 27.445312 24.628906 L 26.898438 24.34375 C 26.773438 24.285156 26.667969 24.21875 26.496094 24.117188 L 26.308594 24.007812 C 26.171875 23.925781 26.03125 23.839844 25.90625 23.75 L 25.816406 23.691406 C 25.808594 23.6875 25.734375 23.636719 25.726562 23.628906 C 25.613281 23.558594 25.503906 23.484375 25.398438 23.417969 C 25.167969 23.253906 24.9375 23.082031 24.671875 22.871094 L 24.566406 22.785156 C 22.089844 20.808594 20.261719 18.167969 19.402344 15.335938 C 18.605469 12.738281 19.195312 9.335938 20.988281 6.238281 C 21.222656 5.839844 21.136719 5.328125 20.777344 5.027344 C 20.601562 4.878906 20.386719 4.800781 20.167969 4.800781 Z M 9.605469 7.679688 C 9.375 7.679688 9.140625 7.761719 8.957031 7.925781 C 7.125 9.574219 5.753906 11.707031 5.601562 11.953125 C 1.679688 17.664062 2.4375 26.539062 5.128906 31.964844 C 5.183594 32.078125 5.238281 32.1875 5.296875 32.296875 L 5.332031 32.355469 C 5.382812 32.464844 5.4375 32.578125 5.457031 32.597656 C 5.484375 32.671875 5.53125 32.75 5.550781 32.769531 C 5.59375 32.863281 5.640625 32.949219 5.722656 33.089844 L 6.03125 33.617188 C 6.074219 33.691406 6.121094 33.765625 6.136719 33.792969 C 6.195312 33.890625 6.257812 33.988281 6.324219 34.089844 L 6.472656 34.332031 C 6.515625 34.402344 6.5625 34.464844 6.59375 34.503906 C 6.742188 34.734375 6.890625 34.96875 7.058594 35.191406 C 7.066406 35.203125 7.074219 35.207031 7.078125 35.214844 L 7.140625 35.296875 C 7.273438 35.492188 7.414062 35.679688 7.539062 35.835938 L 8.085938 36.527344 C 8.09375 36.535156 8.152344 36.609375 8.15625 36.613281 L 8.234375 36.703125 C 8.398438 36.90625 8.578125 37.109375 8.753906 37.304688 C 8.777344 37.335938 8.804688 37.359375 8.832031 37.390625 C 9 37.574219 9.171875 37.757812 9.351562 37.949219 L 9.523438 38.113281 C 9.667969 38.265625 9.808594 38.410156 9.960938 38.550781 C 9.960938 38.554688 10.03125 38.621094 10.03125 38.621094 L 10.179688 38.761719 C 10.359375 38.933594 10.546875 39.105469 10.691406 39.226562 C 10.699219 39.234375 10.832031 39.351562 10.84375 39.359375 C 11.019531 39.515625 11.199219 39.667969 11.378906 39.8125 L 12.296875 40.542969 C 12.449219 40.652344 12.609375 40.765625 12.789062 40.898438 C 12.847656 40.941406 12.910156 40.988281 12.976562 41.027344 C 13 41.050781 13.03125 41.074219 13.050781 41.085938 L 13.738281 41.546875 C 13.992188 41.710938 14.242188 41.863281 14.550781 42.046875 L 14.714844 42.140625 C 14.90625 42.253906 15.101562 42.367188 15.285156 42.464844 C 15.394531 42.523438 15.503906 42.578125 15.597656 42.625 C 15.726562 42.699219 15.871094 42.777344 16.085938 42.882812 C 16.105469 42.890625 16.261719 42.96875 16.277344 42.976562 C 16.496094 43.082031 16.71875 43.183594 16.996094 43.308594 C 16.996094 43.3125 17.085938 43.355469 17.085938 43.355469 C 17.339844 43.460938 17.585938 43.566406 17.914062 43.699219 C 17.964844 43.722656 18.019531 43.738281 18.03125 43.742188 C 18.261719 43.832031 18.507812 43.921875 18.703125 43.996094 C 18.722656 44.003906 18.824219 44.042969 18.84375 44.050781 C 19.109375 44.140625 19.371094 44.226562 19.710938 44.332031 C 19.765625 44.351562 19.828125 44.371094 19.832031 44.371094 L 20.023438 44.429688 C 20.257812 44.5 20.488281 44.578125 20.742188 44.625 C 22.527344 44.953125 24.269531 45.121094 25.921875 45.121094 C 39.675781 45.121094 44.054688 34.054688 44.101562 33.941406 C 44.269531 33.496094 44.085938 32.992188 43.664062 32.761719 C 43.253906 32.53125 42.726562 32.640625 42.433594 33.019531 C 38.90625 37.664062 32.25 39.390625 24.628906 37.640625 C 24.445312 37.59375 24.257812 37.542969 24.074219 37.484375 L 23.714844 37.375 C 23.472656 37.300781 23.226562 37.21875 22.992188 37.136719 C 22.988281 37.136719 22.878906 37.09375 22.878906 37.09375 C 22.667969 37.023438 22.457031 36.941406 22.273438 36.871094 L 22.066406 36.789062 C 21.832031 36.695312 21.601562 36.597656 21.375 36.496094 L 21.242188 36.4375 C 21.042969 36.34375 20.847656 36.253906 20.652344 36.15625 C 20.636719 36.148438 20.484375 36.074219 20.46875 36.070312 C 20.332031 36.003906 20.199219 35.933594 20.023438 35.839844 L 19.242188 35.417969 C 19.164062 35.367188 19.078125 35.316406 19 35.277344 C 18.765625 35.128906 18.519531 34.984375 18.28125 34.828125 C 18.226562 34.796875 18.175781 34.757812 18.082031 34.695312 C 17.917969 34.589844 17.757812 34.480469 17.519531 34.316406 L 17.425781 34.25 C 17.265625 34.136719 17.109375 34.015625 16.976562 33.917969 C 16.894531 33.859375 16.8125 33.792969 16.675781 33.691406 C 16.554688 33.597656 16.4375 33.507812 16.324219 33.417969 L 16.113281 33.242188 C 15.9375 33.101562 15.773438 32.953125 15.601562 32.804688 C 15.578125 32.78125 15.558594 32.765625 15.53125 32.75 C 15.339844 32.574219 15.144531 32.394531 14.914062 32.175781 L 14.234375 31.5 C 14.070312 31.332031 13.90625 31.160156 13.71875 30.953125 C 13.546875 30.761719 13.378906 30.570312 13.160156 30.308594 L 12.753906 29.8125 C 12.703125 29.742188 12.652344 29.671875 12.589844 29.59375 C 12.449219 29.40625 12.3125 29.222656 12.171875 29.027344 C 8.4375 23.882812 7.460938 13.144531 10.371094 9.210938 C 10.664062 8.816406 10.613281 8.261719 10.246094 7.925781 C 10.066406 7.761719 9.832031 7.679688 9.605469 7.679688 Z M 9.605469 7.679688 "/>
</g>
</svg>
