<svg xmlns="http://www.w3.org/2000/svg"  viewBox="0 0 40 40" width="48px" height="48px"><path fill="#bae0bd" d="M15.5,37.5L15.5,37.5c-3.314,0-6-2.686-6-6l0,0c0-3.314,2.686-6,6-6h6v6 C21.5,34.814,18.814,37.5,15.5,37.5z"/><circle cx="28" cy="21" r="5.5" fill="#c2fbff"/><path fill="#f78fae" d="M27.375,14.625c3.176,0,6.125-2.199,6.125-5.375S30.926,3.5,27.75,3.5H21.5v11L27.375,14.625z"/><path fill="none" stroke="#5e9c76" stroke-linecap="round" stroke-linejoin="round" stroke-miterlimit="10" d="M15.5,37.5L15.5,37.5 c-3.314,0-6-2.686-6-6l0,0c0-3.314,2.686-6,6-6h6v6C21.5,34.814,18.814,37.5,15.5,37.5z"/><circle cx="28" cy="21" r="5.5" fill="none" stroke="#689dba" stroke-linecap="round" stroke-linejoin="round" stroke-miterlimit="10"/><path fill="none" stroke="#c7435b" stroke-linecap="round" stroke-linejoin="round" stroke-miterlimit="10" d="M28,14.5 c3,0,5.5-2.5,5.5-5.25c0-3.176-2.574-5.75-5.75-5.75H21.5v11H28z"/><path fill="#bdc9f2" d="M15.625,14.375c-3.176,0-6.125,2.199-6.125,5.375s2.574,5.75,5.75,5.75h6.25v-11L15.625,14.375z"/><path fill="none" stroke="#7575a1" stroke-linecap="round" stroke-linejoin="round" stroke-miterlimit="10" d="M15,14.5 c-3,0-5.5,2.5-5.5,5.25c0,3.176,2.574,5.75,5.75,5.75h6.25v-11H15z"/><path fill="#f78f8f" d="M15.625,3.375C12.449,3.375,9.5,5.574,9.5,8.75s2.574,5.75,5.75,5.75h6.25v-11L15.625,3.375z"/><path fill="none" stroke="#c74343" stroke-linecap="round" stroke-linejoin="round" stroke-miterlimit="10" d="M15,3.5 c-3,0-5.5,2.5-5.5,5.25c0,3.176,2.574,5.75,5.75,5.75h6.25v-11H15z"/></svg>