<?xml version="1.0" encoding="UTF-8"?>
<svg xmlns="http://www.w3.org/2000/svg" xmlns:xlink="http://www.w3.org/1999/xlink" viewBox="0 0 48 48" width="48px" height="48px">
<g id="surface119266399">
<path style=" stroke:none;fill-rule:nonzero;fill:rgb(85.09804%,53.725493%,4.705882%);fill-opacity:1;" d="M 44 24 C 44 29.695312 41.617188 34.832031 37.800781 38.480469 L 37.792969 38.488281 C 34.199219 41.898438 29.34375 44 24 44 C 12.957031 44 4 35.042969 4 24 C 4 18.660156 6.085938 13.8125 9.5 10.226562 C 9.507812 10.210938 9.511719 10.207031 9.519531 10.199219 C 13.167969 6.382812 18.304688 4 24 4 C 35.042969 4 44 12.957031 44 24 Z M 44 24 "/>
<path style=" stroke:none;fill-rule:nonzero;fill:rgb(63.529414%,34.509805%,12.156863%);fill-opacity:1;" d="M 38.375 37.863281 C 38.1875 38.074219 37.992188 38.28125 37.800781 38.480469 L 37.792969 38.488281 C 34.199219 41.898438 29.34375 44 24 44 C 12.957031 44 4 35.042969 4 24 C 4 18.660156 6.085938 13.8125 9.5 10.226562 C 9.507812 10.210938 9.511719 10.207031 9.519531 10.199219 C 9.71875 10.007812 9.925781 9.8125 10.136719 9.625 Z M 38.375 37.863281 "/>
<path style=" stroke:none;fill-rule:nonzero;fill:rgb(100%,100%,100%);fill-opacity:1;" d="M 8.625 27.28125 C 8.390625 27.285156 8.164062 27.191406 8 27.019531 C 7.835938 26.855469 7.742188 26.628906 7.746094 26.394531 C 7.742188 26.160156 7.835938 25.933594 8 25.769531 C 8.160156 25.59375 8.390625 25.496094 8.625 25.5 C 8.863281 25.5 9.089844 25.597656 9.25 25.769531 C 9.421875 25.933594 9.515625 26.160156 9.511719 26.394531 C 9.515625 26.628906 9.421875 26.855469 9.25 27.019531 C 9.085938 27.1875 8.859375 27.28125 8.625 27.28125 Z M 8.625 27.28125 "/>
<path style=" stroke:none;fill-rule:nonzero;fill:rgb(100%,100%,100%);fill-opacity:1;" d="M 21.042969 27.125 L 19.40625 27.125 L 13.550781 18.039062 C 13.402344 17.8125 13.28125 17.574219 13.1875 17.324219 L 13.136719 17.324219 C 13.191406 17.84375 13.214844 18.367188 13.199219 18.886719 L 13.199219 27.125 L 11.867188 27.125 L 11.867188 15.730469 L 13.597656 15.730469 L 19.300781 24.65625 C 19.535156 25.027344 19.691406 25.28125 19.761719 25.417969 L 19.792969 25.417969 C 19.726562 24.863281 19.699219 24.304688 19.710938 23.742188 L 19.710938 15.730469 L 21.042969 15.730469 Z M 21.042969 27.125 "/>
<path style=" stroke:none;fill-rule:nonzero;fill:rgb(100%,100%,100%);fill-opacity:1;" d="M 30.058594 27.125 L 24 27.125 L 24 15.730469 L 29.777344 15.730469 L 29.777344 16.9375 L 25.363281 16.9375 L 25.363281 20.726562 L 29.476562 20.726562 L 29.476562 21.925781 L 25.363281 21.925781 L 25.363281 25.875 L 30.0625 25.875 Z M 30.058594 27.125 "/>
<path style=" stroke:none;fill-rule:nonzero;fill:rgb(100%,100%,100%);fill-opacity:1;" d="M 39 16.9375 L 35.6875 16.9375 L 35.6875 27.125 L 34.359375 27.125 L 34.359375 16.9375 L 31.082031 16.9375 L 31.082031 15.730469 L 39.003906 15.730469 L 39.003906 16.9375 Z M 39 16.9375 "/>
<path style=" stroke:none;fill-rule:nonzero;fill:rgb(94.901961%,94.901961%,94.901961%);fill-opacity:1;" d="M 20.324219 34.875 C 19.875 35.09375 19.378906 35.199219 18.875 35.179688 C 18.203125 35.210938 17.550781 34.949219 17.082031 34.460938 C 16.621094 33.949219 16.382812 33.277344 16.40625 32.585938 C 16.371094 31.832031 16.644531 31.097656 17.164062 30.550781 C 17.667969 30.03125 18.367188 29.75 19.089844 29.773438 C 19.515625 29.757812 19.941406 29.832031 20.339844 29.992188 L 20.339844 30.617188 C 19.957031 30.40625 19.523438 30.300781 19.089844 30.304688 C 18.53125 30.289062 17.992188 30.519531 17.617188 30.929688 C 17.230469 31.375 17.027344 31.953125 17.058594 32.542969 C 17.027344 33.101562 17.214844 33.652344 17.582031 34.074219 C 17.9375 34.457031 18.441406 34.664062 18.964844 34.644531 C 19.441406 34.65625 19.917969 34.535156 20.332031 34.292969 Z M 20.324219 34.875 "/>
<path style=" stroke:none;fill-rule:nonzero;fill:rgb(94.901961%,94.901961%,94.901961%);fill-opacity:1;" d="M 22.882812 35.179688 C 22.378906 35.195312 21.894531 34.992188 21.550781 34.625 C 21.210938 34.242188 21.03125 33.742188 21.058594 33.230469 C 21.023438 32.691406 21.210938 32.15625 21.574219 31.757812 C 21.945312 31.394531 22.453125 31.199219 22.96875 31.226562 C 23.460938 31.199219 23.9375 31.386719 24.277344 31.742188 C 24.609375 32.144531 24.777344 32.65625 24.746094 33.175781 C 24.769531 33.703125 24.589844 34.21875 24.238281 34.613281 C 23.890625 34.988281 23.394531 35.195312 22.882812 35.179688 Z M 22.925781 31.761719 C 22.578125 31.746094 22.242188 31.890625 22.015625 32.15625 C 21.773438 32.464844 21.652344 32.851562 21.675781 33.242188 C 21.652344 33.625 21.773438 33.996094 22.015625 34.292969 C 22.246094 34.554688 22.578125 34.695312 22.925781 34.683594 C 23.265625 34.703125 23.597656 34.5625 23.820312 34.308594 C 24.046875 33.996094 24.15625 33.617188 24.132812 33.230469 C 24.15625 32.847656 24.046875 32.464844 23.820312 32.152344 C 23.597656 31.886719 23.269531 31.746094 22.925781 31.761719 Z M 22.925781 31.761719 "/>
<path style=" stroke:none;fill-rule:nonzero;fill:rgb(94.901961%,94.901961%,94.901961%);fill-opacity:1;" d="M 27.664062 31.949219 C 27.527344 31.863281 27.367188 31.820312 27.207031 31.832031 C 26.949219 31.839844 26.71875 31.976562 26.582031 32.195312 C 26.394531 32.488281 26.304688 32.832031 26.324219 33.183594 L 26.324219 35.09375 L 25.699219 35.09375 L 25.699219 31.34375 L 26.324219 31.34375 L 26.324219 32.125 C 26.394531 31.882812 26.53125 31.664062 26.71875 31.5 C 26.882812 31.359375 27.09375 31.28125 27.308594 31.28125 C 27.429688 31.277344 27.550781 31.292969 27.664062 31.332031 Z M 27.664062 31.949219 "/>
<path style=" stroke:none;fill-rule:nonzero;fill:rgb(94.901961%,94.901961%,94.901961%);fill-opacity:1;" d="M 31.324219 33.375 L 28.683594 33.375 C 28.664062 33.722656 28.777344 34.066406 29 34.339844 C 29.234375 34.570312 29.558594 34.695312 29.886719 34.675781 C 30.3125 34.671875 30.722656 34.523438 31.050781 34.257812 L 31.050781 34.820312 C 30.664062 35.074219 30.207031 35.199219 29.746094 35.175781 C 29.273438 35.199219 28.816406 35.011719 28.496094 34.660156 C 28.171875 34.257812 28.007812 33.742188 28.039062 33.222656 C 28.015625 32.703125 28.191406 32.195312 28.53125 31.800781 C 28.847656 31.4375 29.304688 31.234375 29.78125 31.25 C 30.214844 31.226562 30.632812 31.398438 30.921875 31.722656 C 31.207031 32.101562 31.351562 32.574219 31.320312 33.050781 Z M 30.699219 32.867188 C 30.714844 32.578125 30.625 32.292969 30.449219 32.0625 C 30.277344 31.867188 30.023438 31.761719 29.761719 31.773438 C 29.492188 31.773438 29.230469 31.882812 29.042969 32.082031 C 28.839844 32.300781 28.707031 32.578125 28.675781 32.875 Z M 30.699219 32.867188 "/>
</g>
</svg>
