<?xml version="1.0" encoding="UTF-8"?>
<svg xmlns="http://www.w3.org/2000/svg" xmlns:xlink="http://www.w3.org/1999/xlink" viewBox="0 0 48 48" width="48px" height="48px">
<g id="surface20796679">
<path style="fill-rule:nonzero;fill:rgb(0%,0%,0%);fill-opacity:0.76078;stroke-width:10;stroke-linecap:butt;stroke-linejoin:round;stroke:rgb(0%,0%,0%);stroke-opacity:0.76078;stroke-miterlimit:10;" d="M 138.583333 13 L 224.8125 61.458333 C 231.416667 65.166667 235.520833 72.104167 235.520833 79.541667 L 235.520833 176.458333 C 235.520833 183.895833 231.416667 190.833333 224.8125 194.5625 L 138.583333 243 C 135.3125 244.833333 131.666667 245.75 128 245.75 C 124.333333 245.75 120.6875 244.833333 117.416667 243 L 31.1875 194.541667 C 24.583333 190.833333 20.479167 183.895833 20.479167 176.458333 L 20.479167 79.541667 C 20.479167 72.104167 24.583333 65.166667 31.1875 61.458333 L 117.416667 13 C 120.6875 11.166667 124.333333 10.25 128 10.25 C 131.666667 10.25 135.3125 11.166667 138.583333 13 Z M 138.583333 13 " transform="matrix(0.1875,0,0,0.1875,0,0)"/>
<path style=" stroke:none;fill-rule:nonzero;fill:rgb(92.941177%,50.588238%,12.156863%);fill-opacity:1;" d="M 24 1.921875 C 23.3125 1.921875 22.628906 2.09375 22.015625 2.4375 L 5.847656 11.523438 C 4.609375 12.21875 3.839844 13.519531 3.839844 14.914062 L 3.839844 33.085938 C 3.839844 34.480469 4.609375 35.78125 5.847656 36.476562 L 22.015625 45.5625 C 22.628906 45.90625 23.3125 46.078125 24 46.078125 C 24.6875 46.078125 25.371094 45.90625 25.984375 45.5625 L 42.152344 36.480469 C 43.390625 35.78125 44.160156 34.480469 44.160156 33.085938 L 44.160156 14.914062 C 44.160156 13.519531 43.390625 12.21875 42.152344 11.523438 L 25.984375 2.4375 C 25.371094 2.09375 24.6875 1.921875 24 1.921875 Z M 24 12.480469 C 27.628906 12.480469 30.984375 14.164062 33.160156 17.027344 L 28.953125 19.464844 C 27.691406 18.082031 25.894531 17.28125 24 17.28125 C 20.296875 17.28125 17.28125 20.296875 17.28125 24 C 17.28125 27.703125 20.296875 30.71875 24 30.71875 C 25.894531 30.71875 27.691406 29.917969 28.953125 28.535156 L 33.160156 30.972656 C 30.984375 33.835938 27.628906 35.519531 24 35.519531 C 17.648438 35.519531 12.480469 30.351562 12.480469 24 C 12.480469 17.648438 17.648438 12.480469 24 12.480469 Z M 33.601562 19.199219 L 35.519531 19.199219 L 35.519531 21.121094 L 37.441406 21.121094 L 37.441406 19.199219 L 39.359375 19.199219 L 39.359375 21.121094 L 41.28125 21.121094 L 41.28125 23.039062 L 39.359375 23.039062 L 39.359375 24.960938 L 41.28125 24.960938 L 41.28125 26.878906 L 39.359375 26.878906 L 39.359375 28.800781 L 37.441406 28.800781 L 37.441406 26.878906 L 35.519531 26.878906 L 35.519531 28.800781 L 33.601562 28.800781 L 33.601562 26.878906 L 31.679688 26.878906 L 31.679688 24.960938 L 33.601562 24.960938 L 33.601562 23.039062 L 31.679688 23.039062 L 31.679688 21.121094 L 33.601562 21.121094 Z M 35.519531 23.039062 L 35.519531 24.960938 L 37.441406 24.960938 L 37.441406 23.039062 Z M 35.519531 23.039062 "/>
</g>
</svg>
