<?xml version="1.0" encoding="UTF-8"?>
<svg xmlns="http://www.w3.org/2000/svg" xmlns:xlink="http://www.w3.org/1999/xlink" viewBox="0 0 48 48" width="48px" height="48px">
<g id="surface20857063">
<path style=" stroke:none;fill-rule:nonzero;fill:rgb(86.274511%,83.529413%,94.901961%);fill-opacity:1;" d="M 24 36.898438 C 10.933594 36.898438 0.300781 31.113281 0.300781 24 C 0.300781 16.886719 10.933594 11.101562 24 11.101562 C 37.066406 11.101562 47.699219 16.886719 47.699219 24 C 47.699219 31.113281 37.066406 36.898438 24 36.898438 Z M 24 36.898438 "/>
<path style=" stroke:none;fill-rule:nonzero;fill:rgb(98.039216%,32.156864%,32.156864%);fill-opacity:1;" d="M 24 11.398438 C 36.902344 11.398438 47.398438 17.050781 47.398438 24 C 47.398438 30.949219 36.902344 36.601562 24 36.601562 C 11.097656 36.601562 0.601562 30.949219 0.601562 24 C 0.601562 17.050781 11.097656 11.398438 24 11.398438 M 24 10.800781 C 10.746094 10.800781 0 16.710938 0 24 C 0 31.289062 10.746094 37.199219 24 37.199219 C 37.253906 37.199219 48 31.289062 48 24 C 48 16.710938 37.253906 10.800781 24 10.800781 Z M 24 10.800781 "/>
<path style=" stroke:none;fill-rule:nonzero;fill:rgb(21.176471%,25.098041%,30.19608%);fill-opacity:1;" d="M 15.066406 20.398438 C 16.101562 20.398438 16.996094 20.773438 17.519531 21.421875 C 17.96875 21.984375 18.105469 22.726562 17.917969 23.570312 C 17.414062 25.84375 16.4375 26.398438 12.941406 26.398438 L 10.457031 26.398438 L 11.507812 20.398438 L 15.066406 20.398438 M 15.066406 19.199219 L 10.5 19.199219 L 8.398438 31.199219 L 9.601562 31.199219 L 10.234375 27.601562 L 12.941406 27.601562 C 16.460938 27.601562 18.375 27.058594 19.089844 23.828125 C 19.707031 21.058594 17.660156 19.199219 15.066406 19.199219 Z M 36.667969 20.398438 C 37.703125 20.398438 38.59375 20.773438 39.117188 21.421875 C 39.566406 21.984375 39.707031 22.726562 39.519531 23.570312 C 39.015625 25.84375 38.035156 26.398438 34.542969 26.398438 L 32.058594 26.398438 L 33.109375 20.398438 L 36.667969 20.398438 M 36.667969 19.199219 L 32.101562 19.199219 L 30 31.199219 L 31.199219 31.199219 L 31.832031 27.601562 L 34.542969 27.601562 C 38.058594 27.601562 39.972656 27.058594 40.691406 23.828125 C 41.304688 21.058594 39.261719 19.199219 36.667969 19.199219 Z M 36.667969 19.199219 "/>
<path style=" stroke:none;fill-rule:nonzero;fill:rgb(21.176471%,25.098041%,30.19608%);fill-opacity:1;" d="M 29.441406 19.925781 C 28.914062 19.410156 27.988281 19.199219 26.601562 19.199219 L 23.277344 19.199219 L 24 15.601562 L 22.738281 15.601562 L 20.398438 27.601562 L 21.59375 27.601562 L 23.027344 20.398438 L 26.601562 20.398438 C 28.003906 20.398438 28.457031 20.640625 28.601562 20.78125 C 28.808594 20.984375 28.855469 21.519531 28.730469 22.199219 L 27.671875 27.601562 L 28.9375 27.601562 L 29.910156 22.421875 C 30.121094 21.277344 29.960938 20.4375 29.441406 19.925781 Z M 29.441406 19.925781 "/>
</g>
</svg>
