<?xml version="1.0" encoding="UTF-8"?>
<svg xmlns="http://www.w3.org/2000/svg" xmlns:xlink="http://www.w3.org/1999/xlink" viewBox="0 0 48 48" width="48px" height="48px">
<g id="surface113280816">
<path style="fill-rule:nonzero;fill:rgb(0%,0%,0%);fill-opacity:0.47843;stroke-width:10;stroke-linecap:butt;stroke-linejoin:round;stroke:rgb(0%,0%,0%);stroke-opacity:0.47843;stroke-miterlimit:10;" d="M 122.666667 148.0625 C 122.666667 149.145833 122.0625 150.145833 121.083333 150.6875 L 94.916667 165.1875 C 94.4375 165.458333 93.895833 165.583333 93.333333 165.583333 C 92.791667 165.583333 92.25 165.458333 91.75 165.1875 L 91.75 165.166667 L 65.583333 150.6875 C 64.604167 150.145833 64 149.145833 64 148.0625 L 64 119.083333 C 64 118 64.604167 117 65.583333 116.458333 L 91.75 101.979167 C 92.25 101.708333 92.791667 101.583333 93.333333 101.583333 C 93.875 101.583333 94.416667 101.708333 94.916667 101.979167 L 121.083333 116.458333 C 122.0625 117 122.666667 118 122.666667 119.083333 Z M 226.666667 128 C 226.75 128 226.854167 128.020833 226.9375 128.0625 L 231.291667 130.479167 C 231.458333 130.5625 231.5625 130.729167 231.5625 130.916667 L 231.5625 135.75 C 231.5625 135.9375 231.458333 136.104167 231.291667 136.1875 L 226.9375 138.604167 C 226.770833 138.6875 226.5625 138.6875 226.395833 138.604167 L 222.041667 136.1875 C 221.875 136.104167 221.791667 135.9375 221.791667 135.75 L 221.791667 130.916667 C 221.791667 130.729167 221.875 130.5625 222.041667 130.479167 L 226.395833 128.0625 Z M 192 73.541667 L 192 147.8125 C 192 148.895833 191.395833 149.895833 190.416667 150.4375 L 164.25 164.9375 C 163.270833 165.458333 162.0625 165.458333 161.083333 164.9375 L 134.916667 150.4375 C 133.9375 149.895833 133.333333 148.895833 133.333333 147.8125 L 133.333333 118.833333 C 133.333333 117.75 133.9375 116.75 134.916667 116.208333 L 161.083333 101.729167 C 161.583333 101.458333 162.125 101.333333 162.666667 101.333333 C 163.208333 101.333333 163.75 101.458333 164.25 101.729167 L 176 108.25 L 176 65.291667 C 176 64.833333 176.25 64.416667 176.645833 64.1875 C 177.041667 63.9375 177.520833 63.9375 177.9375 64.166667 L 190.666667 71.270833 C 191.479167 71.729167 192 72.604167 192 73.541667 Z M 256 118.916667 L 256 128.9375 C 256 129.854167 255.5 130.708333 254.729167 131.166667 L 241.9375 138.583333 C 241.520833 138.8125 241.041667 138.8125 240.645833 138.604167 C 240.25 138.375 240 137.9375 240 137.479167 L 240 126.75 C 240 126.270833 239.729167 125.8125 239.291667 125.583333 L 227.375 118.979167 C 227.166667 118.854167 226.916667 118.791667 226.666667 118.791667 C 226.416667 118.791667 226.166667 118.854167 225.9375 118.979167 L 214.020833 125.5625 C 213.604167 125.8125 213.333333 126.25 213.333333 126.75 L 213.333333 139.895833 C 213.333333 140.395833 213.604167 140.854167 214.0625 141.125 L 240.3125 155.4375 C 241.416667 156.0625 241.4375 157.645833 240.333333 158.25 L 228.25 164.9375 C 227.270833 165.479167 226.083333 165.479167 225.083333 164.9375 L 198.916667 150.4375 C 197.9375 149.895833 197.333333 148.875 197.333333 147.75 L 197.333333 118.895833 C 197.333333 117.791667 197.9375 116.75 198.916667 116.208333 L 225.083333 101.729167 C 225.583333 101.458333 226.125 101.333333 226.666667 101.333333 C 227.208333 101.333333 227.75 101.458333 228.25 101.729167 L 254.416667 116.208333 C 255.395833 116.75 256 117.791667 256 118.916667 Z M 58.666667 118.916667 L 58.666667 158.708333 C 58.666667 159.166667 58.416667 159.604167 58.020833 159.833333 C 57.625 160.0625 57.145833 160.0625 56.729167 159.833333 L 43.9375 152.395833 C 43.145833 151.9375 42.666667 151.083333 42.666667 150.166667 L 42.666667 126.75 C 42.666667 126.25 42.395833 125.8125 41.979167 125.5625 L 30.0625 118.979167 C 29.833333 118.854167 29.583333 118.791667 29.333333 118.791667 C 29.083333 118.791667 28.833333 118.854167 28.604167 118.979167 L 16.6875 125.5625 C 16.270833 125.791667 16 126.25 16 126.75 L 16 150.166667 C 16 151.083333 15.520833 151.9375 14.729167 152.395833 L 1.9375 159.833333 C 1.541667 160.0625 1.041667 160.0625 0.645833 159.833333 C 0.25 159.604167 0 159.166667 0 158.708333 L 0 118.895833 C 0 117.791667 0.604167 116.75 1.583333 116.208333 L 27.75 101.729167 C 28.25 101.458333 28.791667 101.333333 29.333333 101.333333 C 29.875 101.333333 30.416667 101.458333 30.916667 101.729167 L 57.083333 116.208333 C 58.0625 116.75 58.666667 117.791667 58.666667 118.916667 Z M 58.666667 118.916667 " transform="matrix(0.1875,0,0,0.1875,0,0)"/>
<path style=" stroke:none;fill-rule:nonzero;fill:rgb(21.960784%,55.686277%,23.529412%);fill-opacity:1;" d="M 17.203125 19.121094 L 12.296875 21.835938 C 12.113281 21.9375 12 22.125 12 22.328125 L 12 27.761719 C 12 27.964844 12.113281 28.152344 12.296875 28.253906 L 17.203125 30.972656 C 17.386719 31.070312 17.613281 31.070312 17.796875 30.972656 L 22.703125 28.253906 C 22.886719 28.152344 23 27.964844 23 27.761719 L 23 22.328125 C 23 22.125 22.886719 21.9375 22.703125 21.835938 L 17.796875 19.121094 C 17.703125 19.070312 17.601562 19.046875 17.5 19.046875 C 17.398438 19.046875 17.296875 19.070312 17.203125 19.121094 M 42.449219 24.011719 L 41.632812 24.464844 C 41.601562 24.480469 41.582031 24.511719 41.582031 24.546875 L 41.582031 25.453125 C 41.582031 25.488281 41.601562 25.519531 41.632812 25.535156 L 42.449219 25.988281 C 42.480469 26.003906 42.519531 26.003906 42.550781 25.988281 L 43.367188 25.535156 C 43.398438 25.519531 43.417969 25.488281 43.417969 25.453125 L 43.417969 24.546875 C 43.417969 24.511719 43.398438 24.480469 43.367188 24.464844 L 42.550781 24.011719 C 42.535156 24.003906 42.515625 24 42.5 24 C 42.484375 24 42.464844 24.003906 42.449219 24.011719 "/>
<path style=" stroke:none;fill-rule:nonzero;fill:rgb(21.568628%,27.843139%,30.980393%);fill-opacity:1;" d="M 35.75 13.363281 L 33.363281 12.03125 C 33.285156 11.988281 33.195312 11.988281 33.121094 12.035156 C 33.046875 12.078125 33 12.15625 33 12.242188 L 33 20.296875 L 30.796875 19.074219 C 30.703125 19.023438 30.601562 19 30.5 19 C 30.398438 19 30.296875 19.023438 30.203125 19.074219 L 25.296875 21.789062 C 25.113281 21.890625 25 22.078125 25 22.28125 L 25 27.714844 C 25 27.917969 25.113281 28.105469 25.296875 28.207031 L 30.203125 30.925781 C 30.386719 31.023438 30.613281 31.023438 30.796875 30.925781 L 35.703125 28.207031 C 35.886719 28.105469 36 27.917969 36 27.714844 L 36 13.789062 C 36 13.613281 35.902344 13.449219 35.75 13.363281 Z M 32.867188 26.457031 L 30.636719 27.691406 C 30.554688 27.738281 30.449219 27.738281 30.367188 27.691406 L 28.136719 26.457031 C 28.050781 26.410156 28 26.324219 28 26.234375 L 28 23.765625 C 28 23.671875 28.050781 23.585938 28.136719 23.539062 L 30.367188 22.304688 L 30.363281 22.304688 C 30.40625 22.28125 30.453125 22.273438 30.5 22.273438 C 30.546875 22.273438 30.59375 22.285156 30.636719 22.304688 L 32.863281 23.539062 C 32.949219 23.585938 33 23.671875 33 23.765625 L 33 26.234375 C 33 26.324219 32.949219 26.410156 32.867188 26.457031 Z M 32.867188 26.457031 "/>
<path style=" stroke:none;fill-rule:nonzero;fill:rgb(18.039216%,49.019608%,19.607843%);fill-opacity:1;" d="M 17.203125 19.121094 L 12 27.761719 C 12 27.964844 12.113281 28.152344 12.296875 28.253906 L 17.203125 30.972656 C 17.386719 31.070312 17.613281 31.070312 17.796875 30.972656 L 23 22.328125 C 23 22.125 22.886719 21.9375 22.703125 21.835938 L 17.796875 19.121094 C 17.703125 19.070312 17.601562 19.046875 17.5 19.046875 C 17.398438 19.046875 17.296875 19.070312 17.203125 19.121094 "/>
<path style=" stroke:none;fill-rule:nonzero;fill:rgb(29.803923%,68.627453%,31.37255%);fill-opacity:1;" d="M 17.203125 19.121094 L 12.296875 21.835938 C 12.113281 21.9375 12 22.125 12 22.328125 L 17.203125 30.972656 C 17.386719 31.070312 17.613281 31.070312 17.796875 30.972656 L 22.703125 28.253906 C 22.886719 28.152344 23 27.964844 23 27.761719 L 17.796875 19.121094 C 17.703125 19.070312 17.601562 19.046875 17.5 19.046875 C 17.398438 19.046875 17.296875 19.070312 17.203125 19.121094 "/>
<path style=" stroke:none;fill-rule:nonzero;fill:rgb(21.568628%,27.843139%,30.980393%);fill-opacity:1;" d="M 47.703125 21.789062 L 42.796875 19.074219 C 42.703125 19.023438 42.601562 19 42.5 19 C 42.398438 19 42.296875 19.023438 42.203125 19.074219 L 37.296875 21.789062 C 37.113281 21.890625 37 22.085938 37 22.292969 L 37 27.703125 C 37 27.914062 37.113281 28.105469 37.296875 28.207031 L 42.203125 30.925781 C 42.390625 31.027344 42.613281 31.027344 42.796875 30.925781 L 45.0625 29.671875 C 45.269531 29.558594 45.265625 29.261719 45.058594 29.144531 L 40.136719 26.457031 C 40.050781 26.410156 40 26.324219 40 26.230469 L 40 23.765625 C 40 23.671875 40.050781 23.589844 40.128906 23.542969 L 42.363281 22.308594 C 42.40625 22.285156 42.453125 22.273438 42.5 22.273438 C 42.546875 22.273438 42.59375 22.285156 42.632812 22.308594 L 44.867188 23.546875 C 44.949219 23.589844 45 23.675781 45 23.765625 L 45 25.777344 C 45 25.863281 45.046875 25.945312 45.121094 25.988281 C 45.195312 26.027344 45.285156 26.027344 45.363281 25.984375 L 47.761719 24.59375 C 47.90625 24.507812 48 24.347656 48 24.175781 L 48 22.296875 C 48 22.085938 47.886719 21.890625 47.703125 21.789062 Z M 10.703125 21.789062 L 5.796875 19.074219 C 5.703125 19.023438 5.601562 19 5.5 19 C 5.398438 19 5.296875 19.023438 5.203125 19.074219 L 0.296875 21.789062 C 0.113281 21.890625 0 22.085938 0 22.292969 L 0 29.757812 C 0 29.84375 0.046875 29.925781 0.121094 29.96875 C 0.195312 30.011719 0.289062 30.011719 0.363281 29.96875 L 2.761719 28.574219 C 2.910156 28.488281 3 28.328125 3 28.15625 L 3 23.765625 C 3 23.671875 3.050781 23.585938 3.128906 23.542969 L 5.363281 22.308594 C 5.40625 22.285156 5.453125 22.273438 5.5 22.273438 C 5.546875 22.273438 5.59375 22.285156 5.636719 22.308594 L 7.871094 23.542969 C 7.949219 23.589844 8 23.671875 8 23.765625 L 8 28.15625 C 8 28.328125 8.089844 28.488281 8.238281 28.574219 L 10.636719 29.96875 C 10.714844 30.011719 10.804688 30.011719 10.878906 29.96875 C 10.953125 29.925781 11 29.84375 11 29.757812 L 11 22.296875 C 11 22.085938 10.886719 21.890625 10.703125 21.789062 Z M 10.703125 21.789062 "/>
</g>
</svg>
