<?xml version="1.0" encoding="UTF-8"?>
<svg xmlns="http://www.w3.org/2000/svg" xmlns:xlink="http://www.w3.org/1999/xlink" viewBox="0 0 48 48" width="48px" height="48px">
<g id="surface116683696">
<path style="fill-rule:nonzero;fill:rgb(0%,0%,0%);fill-opacity:1;stroke-width:10;stroke-linecap:butt;stroke-linejoin:round;stroke:rgb(0%,0%,0%);stroke-opacity:1;stroke-miterlimit:10;" d="M 175.333333 26.666667 C 181.395833 26.666667 187.354167 30.145833 190.354167 35.458333 L 237.75 119.145833 C 240.75 124.541667 240.75 131.458333 237.75 136.854167 L 190.354167 220.541667 C 187.354167 225.854167 181.395833 229.333333 175.333333 229.333333 L 80.666667 229.333333 C 74.604167 229.333333 68.645833 225.875 65.645833 220.541667 L 18.25 136.854167 C 15.25 131.458333 15.25 124.541667 18.25 119.145833 L 65.645833 35.458333 C 68.645833 30.145833 74.604167 26.666667 80.666667 26.666667 Z M 175.333333 26.666667 " transform="matrix(0.1875,0,0,0.1875,0,0)"/>
<path style=" stroke:none;fill-rule:nonzero;fill:rgb(1.176471%,60.784316%,89.803922%);fill-opacity:1;" d="M 32.875 5 L 15.125 5 C 13.988281 5 12.871094 5.652344 12.308594 6.648438 L 3.421875 22.339844 C 2.859375 23.351562 2.859375 24.648438 3.421875 25.660156 L 12.308594 41.351562 C 12.871094 42.351562 13.988281 43 15.125 43 L 32.875 43 C 34.011719 43 35.128906 42.347656 35.691406 41.351562 L 44.578125 25.660156 C 45.140625 24.648438 45.140625 23.351562 44.578125 22.339844 L 35.691406 6.648438 C 35.128906 5.652344 34.011719 5 32.875 5 Z M 32.875 5 "/>
<path style=" stroke:none;fill-rule:nonzero;fill:rgb(100%,100%,100%);fill-opacity:1;" d="M 32.613281 34 L 29.5625 34 C 29.417969 34 29.277344 33.910156 29.207031 33.78125 L 24.046875 24.199219 C 24.019531 24.148438 24.011719 24.089844 24 24.039062 C 23.988281 24.089844 23.980469 24.148438 23.953125 24.199219 L 18.773438 33.78125 C 18.714844 33.910156 18.582031 33.988281 18.4375 34 L 15.386719 34 C 15.113281 34 14.902344 33.632812 15.046875 33.378906 L 20.09375 24 L 15.046875 14.601562 C 14.921875 14.375 15.074219 14.050781 15.3125 14 L 18.4375 14 C 18.570312 14 18.703125 14.089844 18.773438 14.207031 L 23.953125 23.792969 C 23.980469 23.84375 23.988281 23.890625 24 23.949219 C 24.011719 23.890625 24.019531 23.84375 24.046875 23.792969 L 29.207031 14.207031 C 29.285156 14.078125 29.417969 14 29.5625 14 L 32.613281 14 C 32.878906 14 33.078125 14.355469 32.953125 14.601562 L 27.90625 24 L 32.953125 33.378906 C 33.097656 33.632812 32.886719 34 32.613281 34 Z M 32.613281 34 "/>
</g>
</svg>
