<?xml version="1.0" encoding="UTF-8"?>
<svg xmlns="http://www.w3.org/2000/svg" xmlns:xlink="http://www.w3.org/1999/xlink" viewBox="0 0 48 48" width="48px" height="48px">
<defs>
<linearGradient id="linear0" gradientUnits="userSpaceOnUse" x1="22.677" y1="21.174" x2="30.737" y2="43.318001" gradientTransform="matrix(0.999999,0,0,0.999999,0,0)">
<stop offset="0" style="stop-color:rgb(36.078432%,39.607844%,83.92157%);stop-opacity:1;"/>
<stop offset="0.999" style="stop-color:rgb(27.450982%,30.588236%,69.01961%);stop-opacity:1;"/>
</linearGradient>
<linearGradient id="linear1" gradientUnits="userSpaceOnUse" x1="19.497999" y1="22.77" x2="27.296" y2="44.195999" gradientTransform="matrix(0.999999,0,0,0.999999,0,0)">
<stop offset="0" style="stop-color:rgb(36.078432%,39.607844%,83.92157%);stop-opacity:1;"/>
<stop offset="0.999" style="stop-color:rgb(27.450982%,30.588236%,69.01961%);stop-opacity:1;"/>
</linearGradient>
<linearGradient id="linear2" gradientUnits="userSpaceOnUse" x1="18.698" y1="23.455" x2="26.59" y2="45.139999" gradientTransform="matrix(0.999999,0,0,0.999999,0,0)">
<stop offset="0" style="stop-color:rgb(36.078432%,39.607844%,83.92157%);stop-opacity:1;"/>
<stop offset="0.999" style="stop-color:rgb(27.450982%,30.588236%,69.01961%);stop-opacity:1;"/>
</linearGradient>
<linearGradient id="linear3" gradientUnits="userSpaceOnUse" x1="18.030001" y1="24.198" x2="25.861" y2="45.712002" gradientTransform="matrix(0.999999,0,0,0.999999,0,0)">
<stop offset="0" style="stop-color:rgb(36.078432%,39.607844%,83.92157%);stop-opacity:1;"/>
<stop offset="0.999" style="stop-color:rgb(27.450982%,30.588236%,69.01961%);stop-opacity:1;"/>
</linearGradient>
<linearGradient id="linear4" gradientUnits="userSpaceOnUse" x1="20.725" y1="24.582001" x2="28.228001" y2="45.196999" gradientTransform="matrix(0.999999,0,0,0.999999,0,0)">
<stop offset="0" style="stop-color:rgb(36.078432%,39.607844%,83.92157%);stop-opacity:1;"/>
<stop offset="0.999" style="stop-color:rgb(27.450982%,30.588236%,69.01961%);stop-opacity:1;"/>
</linearGradient>
</defs>
<g id="surface120406043">
<path style="fill-rule:nonzero;fill:rgb(0%,0%,0%);fill-opacity:0.36078;stroke-width:10;stroke-linecap:butt;stroke-linejoin:round;stroke:rgb(0%,0%,0%);stroke-opacity:0.36078;stroke-miterlimit:10;" d="M 95.4375 87.854167 C 100.229167 65.25 151.895833 48.479167 140.645833 21.333333 C 166.604167 60.625 102.5625 81.0625 111.604167 103.6875 C 116.958333 117.083333 120.8125 124.208333 126.125 132.791667 C 126.104167 132.791667 91.041667 108.645833 95.4375 87.854167 Z M 174.895833 58.9375 C 174.895833 58.9375 144.145833 78.145833 142.729167 88.5 C 141.208333 99.3125 156.020833 108.5625 150.979167 122.083333 C 146.4375 134.25 131.895833 137.104167 131.895833 137.104167 C 131.895833 137.104167 139.916667 130.458333 139.604167 122.479167 C 139.229167 112.6875 126.333333 105.520833 127.354167 92.104167 C 129.666667 61.916667 174.895833 58.9375 174.895833 58.9375 Z M 200.104167 145.083333 C 200.104167 170.479167 166.916667 174.4375 166.916667 174.4375 C 166.916667 174.4375 188.354167 159.8125 188.354167 144.354167 C 188.354167 137.479167 180.479167 131.520833 171.125 133.625 C 183.8125 124.083333 200.104167 128.291667 200.104167 145.083333 Z M 62.3125 140.291667 C 62.3125 128.0625 103.770833 128.666667 103.770833 128.666667 C 103.770833 128.666667 85.0625 133.083333 85.0625 137.395833 C 85.0625 142.083333 143.0625 141.354167 168.458333 135.958333 C 165.708333 138.729167 155.354167 146.104167 155.354167 146.104167 C 116.583333 153.958333 62.3125 153.041667 62.3125 140.291667 Z M 161.270833 165.541667 C 125.8125 180.041667 77.895833 172.395833 77.895833 162.5 C 77.895833 157.541667 87.375 152.416667 93.770833 152.416667 C 80.645833 163.145833 124.9375 165.708333 148.979167 157.708333 Z M 144.854167 176.708333 L 157.958333 185.416667 C 137.333333 198.354167 85.291667 197.083333 85.291667 184.333333 C 85.291667 180.229167 90.9375 174.604167 99.666667 174.604167 C 90.75 184.416667 129.4375 183.479167 144.854167 176.708333 Z M 48 197.416667 C 48 191.125 60.0625 183.333333 77.8125 186.104167 L 85.375 190.583333 C 76.479167 188.8125 66.833333 192.5625 66.833333 196.416667 C 66.833333 213.333333 197.729167 215.5625 185.854167 186.895833 C 187.875 188.020833 193.5 190.375 193.5 195.375 C 193.5 225.354167 48 226.770833 48 197.416667 Z M 73.4375 222.1875 C 129.8125 235.6875 185.895833 227.729167 208 205.895833 C 207.729167 232.6875 129.8125 246.208333 73.4375 222.1875 Z M 73.4375 222.1875 " transform="matrix(0.1875,0,0,0.1875,0,0)"/>
<path style=" stroke:none;fill-rule:nonzero;fill:rgb(83.137256%,22.745098%,0.784314%);fill-opacity:1;" d="M 23.648438 24.898438 C 22.652344 23.289062 21.929688 21.953125 20.925781 19.441406 C 19.230469 15.199219 31.238281 11.367188 26.371094 4 C 28.480469 9.089844 18.792969 12.234375 17.894531 16.472656 C 17.070312 20.371094 23.644531 24.898438 23.648438 24.898438 Z M 23.648438 24.898438 "/>
<path style=" stroke:none;fill-rule:nonzero;fill:rgb(83.137256%,22.745098%,0.784314%);fill-opacity:1;" d="M 23.878906 17.269531 C 23.6875 19.785156 26.105469 21.128906 26.175781 22.964844 C 26.234375 24.460938 24.730469 25.707031 24.730469 25.707031 C 24.730469 25.707031 27.457031 25.171875 28.308594 22.890625 C 29.253906 20.355469 26.476562 18.621094 26.761719 16.59375 C 27.027344 14.652344 32.792969 11.050781 32.792969 11.050781 C 32.792969 11.050781 24.3125 11.609375 23.878906 17.269531 Z M 23.878906 17.269531 "/>
<path style=" stroke:none;fill-rule:nonzero;fill:url(#linear0);" d="M 32.082031 25.054688 C 33.839844 24.660156 35.316406 25.777344 35.316406 27.066406 C 35.316406 29.964844 31.296875 32.707031 31.296875 32.707031 C 31.296875 32.707031 37.519531 31.964844 37.519531 27.203125 C 37.519531 24.054688 34.464844 23.265625 32.082031 25.054688 Z M 29.128906 27.394531 C 29.128906 27.394531 31.070312 26.011719 31.585938 25.492188 C 26.824219 26.503906 15.949219 26.640625 15.949219 25.761719 C 15.949219 24.953125 19.457031 24.125 19.457031 24.125 C 19.457031 24.125 11.683594 24.011719 11.683594 26.304688 C 11.683594 28.695312 21.859375 28.867188 29.128906 27.394531 Z M 29.128906 27.394531 "/>
<path style=" stroke:none;fill-rule:nonzero;fill:url(#linear1);" d="M 27.933594 29.570312 C 23.425781 31.070312 15.121094 30.589844 17.582031 28.578125 C 16.382812 28.578125 14.605469 29.539062 14.605469 30.46875 C 14.605469 32.324219 23.589844 33.757812 30.238281 31.039062 Z M 27.933594 29.570312 "/>
<path style=" stroke:none;fill-rule:nonzero;fill:url(#linear2);" d="M 18.6875 32.738281 C 17.050781 32.738281 15.992188 33.792969 15.992188 34.5625 C 15.992188 36.953125 25.75 37.191406 29.617188 34.765625 L 27.160156 33.132812 C 24.269531 34.402344 17.015625 34.578125 18.6875 32.738281 Z M 18.6875 32.738281 "/>
<path style=" stroke:none;fill-rule:nonzero;fill:url(#linear3);" d="M 36.28125 36.632812 C 36.28125 35.695312 35.226562 35.253906 34.847656 35.042969 C 37.074219 40.417969 12.53125 40 12.53125 36.828125 C 12.53125 36.105469 14.339844 35.402344 16.007812 35.734375 L 14.589844 34.894531 C 11.261719 34.375 9 35.835938 9 37.015625 C 9 42.519531 36.28125 42.253906 36.28125 36.632812 Z M 36.28125 36.632812 "/>
<path style=" stroke:none;fill-rule:nonzero;fill:url(#linear4);" d="M 39 38.605469 C 34.855469 42.699219 24.339844 44.191406 13.769531 41.660156 C 24.339844 46.164062 38.949219 43.628906 39 38.605469 Z M 39 38.605469 "/>
</g>
</svg>
