<?xml version="1.0" encoding="UTF-8"?>
<svg xmlns="http://www.w3.org/2000/svg" xmlns:xlink="http://www.w3.org/1999/xlink" viewBox="0 0 48 48" width="48px" height="48px">
<g id="surface112914155">
<path style="fill-rule:nonzero;fill:rgb(0%,0%,0%);fill-opacity:0.25882;stroke-width:10;stroke-linecap:butt;stroke-linejoin:round;stroke:rgb(0%,0%,0%);stroke-opacity:0.25882;stroke-miterlimit:10;" d="M 72.145833 114.8125 C 72.145833 118 72.479167 120.583333 73.083333 122.479167 C 73.770833 124.375 74.604167 126.4375 75.8125 128.666667 C 76.229167 129.354167 76.395833 130.041667 76.395833 130.645833 C 76.395833 131.5 75.895833 132.354167 74.791667 133.229167 L 69.416667 136.833333 C 68.645833 137.354167 67.895833 137.604167 67.208333 137.604167 C 66.354167 137.604167 65.5 137.1875 64.645833 136.395833 C 63.458333 135.125 62.4375 133.729167 61.583333 132.354167 C 60.729167 130.895833 59.895833 129.270833 58.958333 127.291667 C 52.3125 135.208333 43.958333 139.166667 33.916667 139.166667 C 26.770833 139.166667 21.0625 137.083333 16.875 132.958333 C 12.708333 128.833333 10.583333 123.333333 10.583333 116.458333 C 10.583333 109.145833 13.145833 103.208333 18.333333 98.75 C 23.520833 94.270833 30.416667 92.041667 39.1875 92.041667 C 42.083333 92.041667 45.0625 92.291667 48.208333 92.729167 C 51.375 93.145833 54.604167 93.833333 58.020833 94.604167 L 58.020833 88.333333 C 58.020833 81.8125 56.645833 77.25 54.020833 74.583333 C 51.291667 71.916667 46.6875 70.625 40.125 70.625 C 37.145833 70.625 34.083333 70.958333 30.9375 71.729167 C 27.791667 72.520833 24.729167 73.458333 21.75 74.666667 C 20.375 75.270833 19.354167 75.604167 18.770833 75.791667 C 18.166667 75.958333 17.729167 76.041667 17.395833 76.041667 C 16.208333 76.041667 15.625 75.1875 15.625 73.375 L 15.625 69.166667 C 15.625 67.791667 15.791667 66.75 16.208333 66.145833 C 16.645833 65.541667 17.416667 64.9375 18.604167 64.333333 C 21.583333 62.791667 25.145833 61.5 29.333333 60.479167 C 33.5 59.354167 37.916667 58.833333 42.604167 58.833333 C 52.75 58.833333 60.145833 61.166667 64.916667 65.8125 C 69.604167 70.458333 71.979167 77.5 71.979167 86.958333 L 71.979167 114.8125 Z M 105.9375 137.1875 C 104.416667 137.1875 103.395833 136.916667 102.708333 136.3125 C 102.020833 135.8125 101.4375 134.604167 100.916667 132.958333 L 80.916667 66.5 C 80.395833 64.770833 80.145833 63.666667 80.145833 63.0625 C 80.145833 61.6875 80.833333 60.916667 82.1875 60.916667 L 90.541667 60.916667 C 92.145833 60.916667 93.25 61.166667 93.854167 61.770833 C 94.541667 62.291667 95.041667 63.479167 95.5625 65.125 L 109.854167 122.041667 L 123.145833 65.125 C 123.5625 63.395833 124.083333 62.291667 124.75 61.770833 C 125.4375 61.25 126.625 60.916667 128.166667 60.916667 L 134.979167 60.916667 C 136.583333 60.916667 137.708333 61.166667 138.375 61.770833 C 139.0625 62.291667 139.666667 63.479167 140 65.125 L 153.458333 122.729167 L 168.1875 65.125 C 168.6875 63.395833 169.291667 62.291667 169.875 61.770833 C 170.5625 61.25 171.666667 60.916667 173.208333 60.916667 L 181.125 60.916667 C 182.479167 60.916667 183.25 61.604167 183.25 63.0625 C 183.25 63.479167 183.166667 63.916667 183.083333 64.4375 C 183 64.958333 182.833333 65.645833 182.479167 66.583333 L 161.958333 133.041667 C 161.458333 134.770833 160.854167 135.895833 160.1875 136.395833 C 159.5 136.916667 158.395833 137.270833 156.9375 137.270833 L 149.625 137.270833 C 148 137.270833 146.895833 137 146.208333 136.395833 C 145.520833 135.8125 144.9375 134.6875 144.604167 132.958333 L 131.395833 77.5 L 118.291667 132.875 C 117.875 134.604167 117.354167 135.708333 116.6875 136.3125 C 116 136.916667 114.8125 137.1875 113.270833 137.1875 Z M 215.354167 139.5 C 210.9375 139.5 206.5 138.979167 202.25 137.958333 C 197.979167 136.916667 194.666667 135.8125 192.458333 134.520833 C 191.083333 133.729167 190.145833 132.875 189.8125 132.104167 C 189.479167 131.333333 189.291667 130.479167 189.291667 129.708333 L 189.291667 125.3125 C 189.291667 123.5 189.979167 122.645833 191.25 122.645833 C 191.770833 122.645833 192.291667 122.729167 192.791667 122.916667 C 193.291667 123.083333 194.0625 123.416667 194.916667 123.770833 C 197.8125 125.0625 200.958333 126.083333 204.291667 126.770833 C 207.6875 127.458333 211 127.8125 214.416667 127.8125 C 219.791667 127.8125 223.958333 126.854167 226.854167 124.958333 C 229.75 123.0625 231.270833 120.3125 231.270833 116.791667 C 231.270833 114.395833 230.5 112.416667 228.979167 110.770833 C 227.4375 109.145833 224.541667 107.6875 220.375 106.3125 L 208.041667 102.4375 C 201.8125 100.458333 197.229167 97.520833 194.416667 93.666667 C 191.604167 89.875 190.145833 85.666667 190.145833 81.1875 C 190.145833 77.583333 190.916667 74.395833 192.458333 71.645833 C 193.979167 68.895833 196.041667 66.479167 198.583333 64.583333 C 201.145833 62.604167 204.041667 61.145833 207.4375 60.125 C 210.833333 59.104167 214.416667 58.666667 218.166667 58.666667 C 220.041667 58.666667 222 58.75 223.875 59 C 225.833333 59.270833 227.625 59.604167 229.416667 59.958333 C 231.104167 60.375 232.729167 60.8125 234.270833 61.333333 C 235.791667 61.854167 236.979167 62.354167 237.833333 62.875 C 239.041667 63.5625 239.875 64.25 240.395833 65.020833 C 240.916667 65.708333 241.166667 66.645833 241.166667 67.854167 L 241.166667 71.895833 C 241.166667 73.708333 240.479167 74.645833 239.208333 74.645833 C 238.520833 74.645833 237.416667 74.3125 235.958333 73.625 C 231.125 71.395833 225.666667 70.270833 219.625 70.270833 C 214.770833 70.270833 210.9375 71.041667 208.291667 72.6875 C 205.666667 74.3125 204.291667 76.8125 204.291667 80.333333 C 204.291667 82.729167 205.145833 84.791667 206.854167 86.4375 C 208.5625 88.0625 211.708333 89.708333 216.208333 91.166667 L 228.3125 95.041667 C 234.4375 97.020833 238.875 99.770833 241.5 103.291667 C 244.145833 106.8125 245.416667 110.854167 245.416667 115.333333 C 245.416667 119.020833 244.645833 122.375 243.208333 125.3125 C 241.666667 128.229167 239.625 130.8125 237 132.875 C 234.354167 135.020833 231.208333 136.5625 227.541667 137.6875 C 223.6875 138.895833 219.6875 139.5 215.354167 139.5 Z M 231.4375 181.291667 C 203.4375 202.1875 162.729167 213.270833 127.729167 213.270833 C 78.708333 213.270833 34.5 194.958333 1.125 164.520833 C -1.5 162.125 0.875 158.854167 4.020833 160.75 C 40.125 181.895833 84.645833 194.708333 130.729167 194.708333 C 161.791667 194.708333 195.9375 188.166667 227.354167 174.75 C 232.041667 172.604167 236.041667 177.854167 231.4375 181.291667 Z M 243.104167 167.875 C 239.520833 163.229167 219.4375 165.645833 210.333333 166.75 C 207.604167 167.104167 207.1875 164.6875 209.645833 162.875 C 225.645833 151.541667 251.958333 154.791667 255.020833 158.583333 C 258.104167 162.458333 254.166667 189.020833 239.1875 201.75 C 236.895833 203.729167 234.6875 202.708333 235.708333 200.125 C 239.104167 191.604167 246.6875 172.4375 243.104167 167.875 Z M 243.104167 167.875 " transform="matrix(0.1875,0,0,0.1875,0,0)"/>
<path style=" stroke:none;fill-rule:nonzero;fill:rgb(14.509805%,18.431373%,24.313726%);fill-opacity:1;" d="M 13.527344 21.527344 C 13.527344 22.125 13.589844 22.609375 13.703125 22.964844 C 13.832031 23.320312 13.988281 23.707031 14.214844 24.125 C 14.292969 24.253906 14.324219 24.382812 14.324219 24.496094 C 14.324219 24.65625 14.230469 24.816406 14.023438 24.980469 L 13.015625 25.65625 C 12.871094 25.753906 12.730469 25.800781 12.601562 25.800781 C 12.441406 25.800781 12.28125 25.722656 12.121094 25.574219 C 11.898438 25.335938 11.707031 25.074219 11.546875 24.816406 C 11.386719 24.542969 11.230469 24.238281 11.054688 23.867188 C 9.808594 25.351562 8.242188 26.09375 6.359375 26.09375 C 5.019531 26.09375 3.949219 25.703125 3.164062 24.929688 C 2.382812 24.15625 1.984375 23.125 1.984375 21.835938 C 1.984375 20.464844 2.464844 19.351562 3.4375 18.515625 C 4.410156 17.675781 5.703125 17.257812 7.347656 17.257812 C 7.890625 17.257812 8.449219 17.304688 9.039062 17.386719 C 9.632812 17.464844 10.238281 17.59375 10.878906 17.738281 L 10.878906 16.5625 C 10.878906 15.339844 10.621094 14.484375 10.128906 13.984375 C 9.617188 13.484375 8.753906 13.242188 7.523438 13.242188 C 6.964844 13.242188 6.390625 13.304688 5.800781 13.449219 C 5.210938 13.597656 4.636719 13.773438 4.078125 14 C 3.820312 14.113281 3.628906 14.175781 3.519531 14.210938 C 3.40625 14.242188 3.324219 14.257812 3.261719 14.257812 C 3.039062 14.257812 2.929688 14.097656 2.929688 13.757812 L 2.929688 12.96875 C 2.929688 12.710938 2.960938 12.515625 3.039062 12.402344 C 3.121094 12.289062 3.265625 12.175781 3.488281 12.0625 C 4.046875 11.773438 4.714844 11.53125 5.5 11.339844 C 6.28125 11.128906 7.109375 11.03125 7.988281 11.03125 C 9.890625 11.03125 11.277344 11.46875 12.171875 12.339844 C 13.050781 13.210938 13.496094 14.53125 13.496094 16.304688 L 13.496094 21.527344 Z M 7.046875 23.980469 C 7.570312 23.980469 8.113281 23.882812 8.6875 23.6875 C 9.265625 23.496094 9.773438 23.140625 10.207031 22.65625 C 10.460938 22.351562 10.652344 22.011719 10.75 21.625 C 10.84375 21.238281 10.910156 20.769531 10.910156 20.222656 L 10.910156 19.546875 C 10.445312 19.433594 9.949219 19.335938 9.441406 19.269531 C 8.929688 19.207031 8.433594 19.175781 7.9375 19.175781 C 6.867188 19.175781 6.085938 19.382812 5.558594 19.820312 C 5.03125 20.253906 4.777344 20.867188 4.777344 21.671875 C 4.777344 22.429688 4.96875 22.996094 5.367188 23.382812 C 5.753906 23.785156 6.3125 23.980469 7.046875 23.980469 Z M 19.863281 25.722656 C 19.578125 25.722656 19.386719 25.671875 19.257812 25.558594 C 19.128906 25.464844 19.019531 25.238281 18.921875 24.929688 L 15.171875 12.46875 C 15.074219 12.144531 15.027344 11.9375 15.027344 11.824219 C 15.027344 11.566406 15.15625 11.421875 15.410156 11.421875 L 16.976562 11.421875 C 17.277344 11.421875 17.484375 11.46875 17.597656 11.582031 C 17.726562 11.679688 17.820312 11.902344 17.917969 12.210938 L 20.597656 22.882812 L 23.089844 12.210938 C 23.167969 11.886719 23.265625 11.679688 23.390625 11.582031 C 23.519531 11.484375 23.742188 11.421875 24.03125 11.421875 L 25.308594 11.421875 C 25.609375 11.421875 25.820312 11.46875 25.945312 11.582031 C 26.074219 11.679688 26.1875 11.902344 26.25 12.210938 L 28.773438 23.011719 L 31.535156 12.210938 C 31.628906 11.886719 31.742188 11.679688 31.851562 11.582031 C 31.980469 11.484375 32.1875 11.421875 32.476562 11.421875 L 33.960938 11.421875 C 34.214844 11.421875 34.359375 11.550781 34.359375 11.824219 C 34.359375 11.902344 34.34375 11.984375 34.328125 12.082031 C 34.3125 12.179688 34.28125 12.308594 34.214844 12.484375 L 30.367188 24.945312 C 30.273438 25.269531 30.160156 25.480469 30.035156 25.574219 C 29.90625 25.671875 29.699219 25.738281 29.425781 25.738281 L 28.054688 25.738281 C 27.75 25.738281 27.542969 25.6875 27.414062 25.574219 C 27.285156 25.464844 27.175781 25.253906 27.113281 24.929688 L 24.636719 14.53125 L 22.179688 24.914062 C 22.101562 25.238281 22.003906 25.445312 21.878906 25.558594 C 21.75 25.671875 21.527344 25.722656 21.238281 25.722656 Z M 40.378906 26.15625 C 39.550781 26.15625 38.71875 26.058594 37.921875 25.867188 C 37.121094 25.671875 36.5 25.464844 36.085938 25.222656 C 35.828125 25.074219 35.652344 24.914062 35.589844 24.769531 C 35.527344 24.625 35.492188 24.464844 35.492188 24.320312 L 35.492188 23.496094 C 35.492188 23.15625 35.621094 22.996094 35.859375 22.996094 C 35.957031 22.996094 36.054688 23.011719 36.148438 23.046875 C 36.242188 23.078125 36.386719 23.140625 36.546875 23.207031 C 37.089844 23.449219 37.679688 23.640625 38.304688 23.769531 C 38.941406 23.898438 39.5625 23.964844 40.203125 23.964844 C 41.207031 23.964844 41.992188 23.785156 42.535156 23.429688 C 43.078125 23.074219 43.363281 22.558594 43.363281 21.898438 C 43.363281 21.449219 43.21875 21.078125 42.933594 20.769531 C 42.644531 20.464844 42.101562 20.191406 41.320312 19.933594 L 39.007812 19.207031 C 37.839844 18.835938 36.980469 18.285156 36.453125 17.5625 C 35.925781 16.851562 35.652344 16.0625 35.652344 15.222656 C 35.652344 14.546875 35.796875 13.949219 36.085938 13.433594 C 36.371094 12.917969 36.757812 12.464844 37.234375 12.109375 C 37.714844 11.738281 38.257812 11.464844 38.894531 11.273438 C 39.53125 11.082031 40.203125 11 40.90625 11 C 41.257812 11 41.625 11.015625 41.976562 11.0625 C 42.34375 11.113281 42.679688 11.175781 43.015625 11.242188 C 43.332031 11.320312 43.636719 11.402344 43.925781 11.5 C 44.210938 11.597656 44.433594 11.691406 44.59375 11.789062 C 44.820312 11.917969 44.976562 12.046875 45.074219 12.191406 C 45.171875 12.320312 45.21875 12.496094 45.21875 12.722656 L 45.21875 13.480469 C 45.21875 13.820312 45.089844 13.996094 44.851562 13.996094 C 44.722656 13.996094 44.515625 13.933594 44.242188 13.804688 C 43.332031 13.386719 42.3125 13.175781 41.179688 13.175781 C 40.269531 13.175781 39.550781 13.320312 39.054688 13.628906 C 38.5625 13.933594 38.304688 14.402344 38.304688 15.0625 C 38.304688 15.511719 38.464844 15.898438 38.785156 16.207031 C 39.105469 16.511719 39.695312 16.820312 40.539062 17.09375 L 42.808594 17.820312 C 43.957031 18.191406 44.789062 18.707031 45.28125 19.367188 C 45.777344 20.027344 46.015625 20.785156 46.015625 21.625 C 46.015625 22.316406 45.871094 22.945312 45.601562 23.496094 C 45.3125 24.042969 44.929688 24.527344 44.4375 24.914062 C 43.941406 25.316406 43.351562 25.605469 42.664062 25.816406 C 41.941406 26.042969 41.191406 26.15625 40.378906 26.15625 Z M 40.378906 26.15625 "/>
<path style=" stroke:none;fill-rule:nonzero;fill:rgb(100%,60.000002%,0%);fill-opacity:1;" d="M 43.394531 33.992188 C 38.144531 37.910156 30.511719 39.988281 23.949219 39.988281 C 14.757812 39.988281 6.46875 36.554688 0.210938 30.847656 C -0.28125 30.398438 0.164062 29.785156 0.753906 30.140625 C 7.523438 34.105469 15.871094 36.507812 24.511719 36.507812 C 30.335938 36.507812 36.738281 35.28125 42.628906 32.765625 C 43.507812 32.363281 44.257812 33.347656 43.394531 33.992188 Z M 45.582031 31.476562 C 44.910156 30.605469 41.144531 31.058594 39.4375 31.265625 C 38.925781 31.332031 38.847656 30.878906 39.308594 30.539062 C 42.308594 28.414062 47.242188 29.023438 47.816406 29.734375 C 48.394531 30.460938 47.65625 35.441406 44.847656 37.828125 C 44.417969 38.199219 44.003906 38.007812 44.195312 37.523438 C 44.832031 35.925781 46.253906 32.332031 45.582031 31.476562 Z M 45.582031 31.476562 "/>
</g>
</svg>
