<?xml version="1.0" encoding="UTF-8"?>
<svg xmlns="http://www.w3.org/2000/svg" xmlns:xlink="http://www.w3.org/1999/xlink" viewBox="0 0 48 48" width="48px" height="48px">
<g id="surface112903858">
<path style="fill-rule:nonzero;fill:rgb(0%,0%,0%);fill-opacity:1;stroke-width:10;stroke-linecap:butt;stroke-linejoin:round;stroke:rgb(0%,0%,0%);stroke-opacity:1;stroke-miterlimit:10;" d="M 245.3125 164.5625 C 244.9375 174.395833 235.895833 178.458333 234.208333 178.75 C 233 178.958333 232.333333 178.979167 232.166667 178.020833 C 232.041667 177.375 232.479167 177.0625 233.916667 176.166667 C 235.354167 175.291667 239.625 172.354167 240.395833 167.020833 C 241.145833 161.6875 237.145833 148.958333 216.75 146.5625 C 207.229167 145.458333 199.75 146.791667 193.979167 149.1875 C 195.0625 151.958333 195.854167 154.854167 195.979167 157.770833 C 196.25 164.166667 191.833333 168.895833 187.229167 172.270833 C 184.5625 174.229167 181.6875 175.541667 179.3125 176.333333 C 177.395833 177.145833 174.833333 177.979167 173.041667 177.625 C 169.0625 176.8125 166.9375 173.270833 169.645833 165.479167 C 171.125 161.270833 175.333333 154.833333 182.145833 149.3125 C 180.583333 146.125 178.854167 142.854167 177.979167 139.875 C 176.25 133.979167 175.708333 130.416667 175.708333 130.416667 C 175.708333 130.416667 170.104167 142.041667 162.854167 152.625 C 162.4375 153.229167 162.020833 153.854167 161.604167 154.4375 C 163.020833 157.729167 164.145833 161.229167 164.291667 164.75 C 164.5625 171.166667 161.791667 175.979167 157.208333 179.354167 C 154.729167 181.1875 152.0625 182.458333 149.791667 183.25 C 148.333333 183.895833 145.375 184.9375 141.166667 185.229167 C 138.854167 185.375 136.645833 185.229167 135.416667 184.291667 C 133.708333 183 133.5 181.416667 134.375 179.25 C 135.125 177.416667 140.708333 171.041667 145.375 165.479167 C 146.666667 163.9375 147.895833 162.375 149 160.916667 C 148.979167 160.875 148.979167 160.854167 148.979167 160.854167 C 148.979167 160.854167 149.833333 159.75 151.208333 157.854167 C 149.479167 154.166667 147.3125 150.333333 146.3125 146.854167 C 144.5625 140.958333 144.041667 137.395833 144.041667 137.395833 C 144.041667 137.395833 138.354167 151.979167 132.416667 163.625 C 127.833333 172.625 124.770833 178.083333 123.395833 180.479167 C 123.395833 180.541667 123.375 180.583333 123.375 180.583333 C 123.375 180.583333 123.1875 180.9375 122.8125 181.479167 C 122.645833 181.770833 122.5625 181.916667 122.5625 181.916667 C 122.5625 181.916667 122.5625 181.916667 122.541667 181.875 C 121 184.145833 117.5625 188.604167 114.125 188.604167 C 104.708333 188.604167 108.166667 169.479167 108.166667 169.479167 C 108.166667 169.479167 105.395833 176.5625 102.291667 182.645833 C 99.770833 187.604167 97.458333 191.791667 92.416667 191.791667 C 90.979167 191.791667 88.6875 191.75 86.770833 189.9375 C 82.4375 185.833333 79.125 175.395833 79.791667 167.3125 C 80.333333 160.458333 81.395833 155.6875 82.833333 151.708333 C 80.25 153.125 77.270833 154.791667 74.229167 156.583333 C 72.666667 157.5 71.104167 158.416667 69.5625 159.333333 C 69.604167 159.4375 69.666667 159.520833 69.708333 159.604167 C 73.583333 167.083333 74.604167 183.479167 66.166667 196.0625 C 57.729167 208.645833 42.020833 216.3125 26.729167 212.041667 C 21.791667 210.666667 14.333333 200.458333 20.770833 186.25 C 26.4375 173.708333 49.125 161.833333 55.083333 158.875 C 55.604167 158.604167 56.145833 158.291667 56.729167 157.958333 C 44.8125 147.541667 15.0625 133.5 10.895833 111.895833 C 9.729167 105.833333 12.5625 91.291667 30.4375 74.583333 C 45.458333 60.541667 66.354167 49.770833 85.666667 42.916667 C 118.104167 31.395833 152.354167 38.1875 157.625 58.854167 C 162.8125 79.166667 145.166667 103.479167 122.583333 112.208333 C 102.416667 120.020833 85.729167 118.770833 78.875 116.520833 C 71.104167 113.958333 66.541667 108.833333 65.416667 105.9375 C 64.979167 104.791667 64.229167 102.895833 65.416667 102.229167 C 66.145833 101.833333 66.4375 101.916667 68.395833 104.083333 C 70.270833 106.125 77.75 111.645833 91.9375 110.041667 C 129.229167 105.875 151.6875 76.895833 144.583333 61.3125 C 139.625 50.395833 110.875 45.479167 74.979167 63.375 C 31.166667 85.208333 28.770833 103.208333 28.395833 110.041667 C 27.375 128.854167 51.625 138.75 64.729167 152.75 C 64.895833 152.9375 65.0625 153.104167 65.229167 153.291667 C 67.6875 151.9375 70.291667 150.520833 72.833333 149.125 C 79.4375 145.479167 85.666667 142.083333 88.583333 140.5 C 93.1875 133.791667 102.5625 126.395833 109.3125 126.395833 C 120.125 126.395833 116.416667 141.916667 116.416667 141.916667 C 116.416667 141.916667 116.625 141.208333 116.9375 141.208333 C 117.229167 141.1875 118.416667 139.166667 121.75 140.375 C 125.1875 141.645833 124.416667 144.041667 124.4375 144.291667 C 124.479167 144.770833 120.375 158.5625 118.666667 167.416667 C 117.854167 171.645833 118.333333 174.729167 118.5625 174.729167 C 118.916667 174.729167 119.583333 173.645833 120.229167 172.5 C 120.208333 172.479167 120.208333 172.458333 120.208333 172.458333 C 120.208333 172.458333 120.6875 171.604167 121.5 170.020833 C 121.583333 169.8125 121.645833 169.6875 121.645833 169.6875 C 121.645833 169.6875 121.645833 169.6875 121.645833 169.708333 C 122.583333 167.854167 123.916667 165.145833 125.458333 161.770833 C 128.458333 155.166667 139.895833 129.645833 140.875 126.8125 C 141.833333 123.979167 142.354167 121.0625 142.833333 119.833333 C 143.291667 118.583333 147.354167 117.625 152.083333 117.666667 C 156.8125 117.708333 157.291667 119.708333 157.3125 120.125 C 157.354167 120.5625 155.0625 126.145833 154.541667 130.104167 C 154.020833 134.0625 154.520833 136.041667 154.958333 139.354167 C 155.229167 141.541667 156.604167 144.291667 158.1875 147.416667 C 163.083333 139.416667 171.708333 124.104167 172.541667 119.833333 C 173.104167 116.895833 174.020833 114.083333 174.479167 112.833333 C 174.958333 111.583333 179 110.645833 183.729167 110.666667 C 188.479167 110.708333 188.958333 112.729167 188.979167 113.145833 C 189.020833 113.5625 186.729167 119.166667 186.208333 123.125 C 185.6875 127.0625 186.1875 129.041667 186.604167 132.375 C 186.979167 135.208333 189.1875 139.041667 191.375 143.375 C 197.3125 140.4375 204.416667 138.479167 212.625 138.4375 C 233.833333 138.3125 245.8125 152.041667 245.3125 164.5625 Z M 245.3125 164.5625 " transform="matrix(0.1875,0,0,0.1875,0,0)"/>
<path style=" stroke:none;fill-rule:nonzero;fill:rgb(94.117647%,38.431373%,57.254905%);fill-opacity:1;" d="M 39.867188 25.957031 C 38.328125 25.964844 36.996094 26.332031 35.882812 26.882812 C 35.472656 26.070312 35.058594 25.351562 34.988281 24.820312 C 34.910156 24.195312 34.816406 23.824219 34.914062 23.085938 C 35.011719 22.34375 35.441406 21.292969 35.433594 21.214844 C 35.429688 21.136719 35.339844 20.757812 34.449219 20.75 C 33.5625 20.746094 32.804688 20.921875 32.714844 21.15625 C 32.628906 21.390625 32.457031 21.917969 32.351562 22.46875 C 32.195312 23.269531 30.578125 26.140625 29.660156 27.640625 C 29.363281 27.054688 29.105469 26.539062 29.054688 26.128906 C 28.972656 25.507812 28.878906 25.136719 28.976562 24.394531 C 29.074219 23.652344 29.503906 22.605469 29.496094 22.523438 C 29.492188 22.445312 29.402344 22.070312 28.515625 22.0625 C 27.628906 22.054688 26.867188 22.234375 26.78125 22.46875 C 26.691406 22.699219 26.59375 23.246094 26.414062 23.777344 C 26.230469 24.308594 24.085938 29.09375 23.523438 30.332031 C 23.234375 30.964844 22.984375 31.472656 22.808594 31.820312 C 22.808594 31.816406 22.808594 31.816406 22.808594 31.816406 C 22.808594 31.816406 22.796875 31.839844 22.78125 31.878906 C 22.628906 32.175781 22.539062 32.335938 22.539062 32.335938 C 22.539062 32.335938 22.539062 32.339844 22.542969 32.34375 C 22.421875 32.558594 22.296875 32.761719 22.230469 32.761719 C 22.1875 32.761719 22.097656 32.183594 22.25 31.390625 C 22.570312 29.730469 23.339844 27.144531 23.332031 27.054688 C 23.328125 27.007812 23.472656 26.558594 22.828125 26.320312 C 22.203125 26.09375 21.980469 26.472656 21.925781 26.476562 C 21.867188 26.476562 21.828125 26.609375 21.828125 26.609375 C 21.828125 26.609375 22.523438 23.699219 20.496094 23.699219 C 19.230469 23.699219 17.472656 25.085938 16.609375 26.34375 C 16.0625 26.640625 14.894531 27.277344 13.65625 27.960938 C 13.179688 28.222656 12.691406 28.488281 12.230469 28.742188 C 12.199219 28.707031 12.167969 28.675781 12.136719 28.640625 C 9.679688 26.015625 5.132812 24.160156 5.324219 20.632812 C 5.394531 19.351562 5.84375 15.976562 14.058594 11.882812 C 20.789062 8.527344 26.179688 9.449219 27.109375 11.496094 C 28.441406 14.417969 24.230469 19.851562 17.238281 20.632812 C 14.578125 20.933594 13.175781 19.898438 12.824219 19.515625 C 12.457031 19.109375 12.402344 19.09375 12.265625 19.167969 C 12.042969 19.292969 12.183594 19.648438 12.265625 19.863281 C 12.476562 20.40625 13.332031 21.367188 14.789062 21.847656 C 16.074219 22.269531 19.203125 22.503906 22.984375 21.039062 C 27.21875 19.402344 30.527344 14.84375 29.554688 11.035156 C 28.566406 7.160156 22.144531 5.886719 16.0625 8.046875 C 12.441406 9.332031 8.523438 11.351562 5.707031 13.984375 C 2.355469 17.117188 1.824219 19.84375 2.042969 20.980469 C 2.824219 25.03125 8.402344 27.664062 10.636719 29.617188 C 10.527344 29.679688 10.425781 29.738281 10.328125 29.789062 C 9.210938 30.34375 4.957031 32.570312 3.894531 34.921875 C 2.6875 37.585938 4.085938 39.5 5.011719 39.757812 C 7.878906 40.558594 10.824219 39.121094 12.40625 36.761719 C 13.988281 34.402344 13.796875 31.328125 13.070312 29.925781 C 13.0625 29.910156 13.050781 29.894531 13.042969 29.875 C 13.332031 29.703125 13.625 29.53125 13.917969 29.359375 C 14.488281 29.023438 15.046875 28.710938 15.53125 28.445312 C 15.261719 29.191406 15.0625 30.082031 14.960938 31.371094 C 14.835938 32.886719 15.457031 34.84375 16.269531 35.613281 C 16.628906 35.953125 17.058594 35.960938 17.328125 35.960938 C 18.273438 35.960938 18.707031 35.175781 19.179688 34.246094 C 19.761719 33.105469 20.28125 31.777344 20.28125 31.777344 C 20.28125 31.777344 19.632812 35.363281 21.398438 35.363281 C 22.042969 35.363281 22.6875 34.527344 22.976562 34.101562 C 22.980469 34.109375 22.980469 34.109375 22.980469 34.109375 C 22.980469 34.109375 22.996094 34.082031 23.027344 34.027344 C 23.097656 33.925781 23.132812 33.859375 23.132812 33.859375 C 23.132812 33.859375 23.136719 33.851562 23.136719 33.839844 C 23.394531 33.390625 23.96875 32.367188 24.828125 30.679688 C 25.941406 28.496094 27.007812 25.761719 27.007812 25.761719 C 27.007812 25.761719 27.105469 26.429688 27.433594 27.535156 C 27.621094 28.1875 28.027344 28.90625 28.351562 29.597656 C 28.09375 29.953125 27.933594 30.160156 27.933594 30.160156 C 27.933594 30.160156 27.933594 30.164062 27.9375 30.171875 C 27.730469 30.445312 27.5 30.738281 27.257812 31.027344 C 26.382812 32.070312 25.335938 33.265625 25.195312 33.609375 C 25.03125 34.015625 25.070312 34.3125 25.390625 34.554688 C 25.621094 34.730469 26.035156 34.757812 26.46875 34.730469 C 27.257812 34.675781 27.8125 34.480469 28.085938 34.359375 C 28.511719 34.210938 29.011719 33.972656 29.476562 33.628906 C 30.335938 32.996094 30.855469 32.09375 30.804688 30.890625 C 30.777344 30.230469 30.566406 29.574219 30.300781 28.957031 C 30.378906 28.847656 30.457031 28.730469 30.535156 28.617188 C 31.894531 26.632812 32.945312 24.453125 32.945312 24.453125 C 32.945312 24.453125 33.046875 25.121094 33.371094 26.226562 C 33.535156 26.785156 33.859375 27.398438 34.152344 27.996094 C 32.875 29.03125 32.082031 30.238281 31.808594 31.027344 C 31.300781 32.488281 31.699219 33.152344 32.445312 33.304688 C 32.78125 33.371094 33.261719 33.214844 33.621094 33.0625 C 34.066406 32.914062 34.605469 32.667969 35.105469 32.300781 C 35.96875 31.667969 36.796875 30.78125 36.746094 29.582031 C 36.722656 29.035156 36.574219 28.492188 36.371094 27.972656 C 37.453125 27.523438 38.855469 27.273438 40.640625 27.480469 C 44.464844 27.929688 45.214844 30.316406 45.074219 31.316406 C 44.929688 32.316406 44.128906 32.867188 43.859375 33.03125 C 43.589844 33.199219 43.507812 33.257812 43.53125 33.378906 C 43.5625 33.558594 43.6875 33.554688 43.914062 33.515625 C 44.230469 33.460938 45.925781 32.699219 45.996094 30.855469 C 46.089844 28.507812 43.84375 25.933594 39.867188 25.957031 Z M 10.371094 35.898438 C 9.101562 37.28125 7.332031 37.804688 6.570312 37.363281 C 5.753906 36.890625 6.078125 34.855469 7.632812 33.386719 C 8.578125 32.492188 9.804688 31.667969 10.617188 31.160156 C 10.800781 31.050781 11.070312 30.886719 11.402344 30.6875 C 11.457031 30.65625 11.488281 30.640625 11.488281 30.640625 C 11.550781 30.601562 11.617188 30.5625 11.683594 30.519531 C 12.25 32.609375 11.699219 34.449219 10.371094 35.898438 Z M 19.605469 29.621094 C 19.164062 30.699219 18.238281 33.453125 17.675781 33.304688 C 17.195312 33.179688 16.898438 31.085938 17.582031 29.023438 C 17.921875 27.988281 18.65625 26.75 19.085938 26.269531 C 19.777344 25.492188 20.539062 25.242188 20.722656 25.554688 C 20.960938 25.953125 19.882812 28.949219 19.605469 29.621094 Z M 27.234375 33.261719 C 27.046875 33.359375 26.875 33.421875 26.796875 33.375 C 26.738281 33.339844 26.871094 33.210938 26.871094 33.210938 C 26.871094 33.210938 27.828125 32.183594 28.203125 31.71875 C 28.421875 31.445312 28.675781 31.121094 28.949219 30.761719 C 28.953125 30.796875 28.953125 30.832031 28.953125 30.867188 C 28.953125 32.097656 27.765625 32.929688 27.234375 33.261719 Z M 33.109375 31.921875 C 32.972656 31.824219 32.996094 31.503906 33.453125 30.503906 C 33.632812 30.109375 34.046875 29.449219 34.761719 28.816406 C 34.84375 29.074219 34.894531 29.324219 34.890625 29.558594 C 34.882812 31.105469 33.777344 31.683594 33.109375 31.921875 Z M 33.109375 31.921875 "/>
</g>
</svg>
