<svg width="803" height="699" viewBox="0 0 803 699" fill="none" xmlns="http://www.w3.org/2000/svg">
<g filter="url(#filter0_d_478_71)">
<rect x="205" y="65" width="408" height="567" rx="16" fill="#171C28"/>
<rect x="204" y="64" width="410" height="569" rx="17" stroke="#ED811F" stroke-width="2"/>
</g>
<path d="M515.641 152.75C515.641 154.969 514.714 156.849 512.859 158.391C511.016 159.922 508.849 160.688 506.359 160.688C505.036 160.688 503.766 160.401 502.547 159.828C502.359 158.016 502.109 156.484 501.797 155.234L501.891 155.016L502.672 154.781L502.859 154.859C503.891 157.495 505.542 158.812 507.812 158.812C508.99 158.812 509.932 158.432 510.641 157.672C511.359 156.901 511.719 155.849 511.719 154.516C511.719 153.193 511.328 152.172 510.547 151.453C509.807 150.766 508.812 150.422 507.562 150.422C506.99 150.422 506.37 150.516 505.703 150.703L505.516 150.5C505.745 149.76 505.943 148.969 506.109 148.125H507.391C508.318 148.125 509.12 147.797 509.797 147.141C510.474 146.474 510.812 145.682 510.812 144.766C510.812 143.901 510.51 143.198 509.906 142.656C509.312 142.115 508.568 141.844 507.672 141.844C506.255 141.844 505.292 142.208 504.781 142.938C504.542 143.281 504.312 143.776 504.094 144.422L503.922 144.938L503.703 145.078L502.906 145.016L502.75 144.812L503.297 142.266C503.453 141.547 503.568 140.844 503.641 140.156C504.995 139.135 506.698 138.625 508.75 138.625C510.49 138.625 511.875 139.052 512.906 139.906C513.885 140.74 514.375 141.828 514.375 143.172C514.375 145.109 513.219 146.682 510.906 147.891C512.073 147.891 513.13 148.286 514.078 149.078C515.12 149.943 515.641 151.167 515.641 152.75Z" fill="white"/>
<path d="M270.309 151.971L270.243 152.044C269.159 152.015 268.504 152 268.28 152C267.381 152 266.546 152.015 265.775 152.044L265.709 151.971V151.509L265.782 151.429L266.419 151.392C266.688 151.377 266.822 151.282 266.822 151.106C266.822 151.004 266.754 150.774 266.617 150.418L266.024 148.873C265.35 148.863 264.662 148.858 263.958 148.858C263.578 148.858 263.011 148.863 262.259 148.873L261.937 149.766C261.693 150.445 261.571 150.87 261.571 151.041C261.571 151.226 261.686 151.336 261.915 151.37C262.042 151.39 262.291 151.409 262.662 151.429L262.735 151.502V151.971L262.662 152.044C261.759 152.015 261.178 152 260.919 152C260.719 152 260.223 152.015 259.432 152.044L259.359 151.978V151.502L259.439 151.429C259.942 151.399 260.25 151.299 260.362 151.128C260.479 150.958 260.912 149.939 261.659 148.074L263.57 143.292C263.712 142.92 263.927 142.361 264.215 141.614H265.255L269.137 150.748C269.288 151.094 269.425 151.29 269.547 151.333C269.708 151.392 269.94 151.421 270.243 151.421L270.309 151.502V151.971ZM265.665 148.03L264.098 144.192L262.596 148.03C262.997 148.045 263.517 148.052 264.156 148.052C264.776 148.052 265.279 148.045 265.665 148.03ZM276.981 151.077L276.659 151.802C275.995 152.149 275.34 152.322 274.696 152.322C273.607 152.322 272.774 152.01 272.198 151.385C271.622 150.76 271.334 149.903 271.334 148.814C271.334 147.808 271.556 147.044 272 146.521C272.123 146.375 272.354 146.182 272.696 145.943C273.399 145.445 273.868 145.147 274.103 145.049C274.342 144.952 274.706 144.903 275.194 144.903C275.858 144.903 276.407 145.003 276.842 145.203L276.915 145.335C276.91 145.398 276.876 145.625 276.812 146.016L276.732 146.514C276.717 146.597 276.695 146.924 276.666 147.496L276.593 147.569H276.153L276.08 147.496C276.051 147.061 276.017 146.758 275.978 146.587C275.763 146.207 275.35 146.016 274.74 146.016C273.705 146.016 273.187 146.688 273.187 148.03C273.187 149.007 273.395 149.776 273.81 150.337C274.234 150.918 274.833 151.209 275.604 151.209C276.073 151.209 276.485 151.109 276.842 150.909L276.981 151.077ZM282.218 151.041C282.184 151.08 282.079 151.182 281.903 151.348C281.615 151.622 281.368 151.871 281.163 152.095C280.924 152.173 280.682 152.212 280.438 152.212C279.759 152.212 279.264 152.015 278.951 151.619C278.819 151.448 278.731 151.25 278.688 151.026C278.639 150.757 278.617 150.406 278.622 149.971L278.644 148.221V146.39H278.446L278.058 146.404H277.757L277.677 146.338V146.148L277.735 146.038C277.823 145.979 277.96 145.892 278.146 145.774C278.365 145.638 278.531 145.523 278.644 145.43V144.434C278.644 144.019 278.624 143.58 278.585 143.116C278.951 142.999 279.247 142.896 279.471 142.808C279.701 142.715 280.023 142.566 280.438 142.361L280.628 142.508C280.57 143.113 280.528 143.655 280.504 144.134L280.438 145.401H280.68C281.212 145.401 281.671 145.384 282.057 145.35L282.137 145.43L282.035 146.287L281.961 146.36H280.438V148.843C280.438 149.639 280.448 150.108 280.467 150.25C280.492 150.455 280.577 150.621 280.724 150.748C280.875 150.875 281.078 150.938 281.332 150.938C281.532 150.938 281.773 150.884 282.057 150.777L282.218 151.041ZM285.902 142.42C285.902 142.732 285.792 143.001 285.572 143.226C285.353 143.445 285.089 143.555 284.781 143.555C284.469 143.555 284.203 143.445 283.983 143.226C283.763 143.001 283.653 142.732 283.653 142.42C283.653 142.098 283.763 141.827 283.983 141.607C284.208 141.387 284.474 141.277 284.781 141.277C285.084 141.277 285.345 141.387 285.565 141.607C285.79 141.827 285.902 142.098 285.902 142.42ZM286.913 151.978L286.839 152.051C286.375 152.017 285.707 152 284.833 152C283.958 152 283.292 152.017 282.833 152.051L282.76 151.978V151.531L282.833 151.458C283.302 151.443 283.592 151.407 283.705 151.348C283.802 151.304 283.856 151.187 283.866 150.997C283.9 150.362 283.917 149.681 283.917 148.953V147.906C283.917 146.958 283.88 146.397 283.807 146.221C283.768 146.124 283.663 146.062 283.492 146.038C283.434 146.028 283.221 146.016 282.855 146.001L282.782 145.928V145.518L282.855 145.438C283.792 145.354 284.737 145.152 285.689 144.83L285.843 144.925C285.78 145.813 285.748 146.563 285.748 147.173V149.51C285.748 149.866 285.765 150.362 285.799 150.997C285.809 151.187 285.863 151.304 285.96 151.348C286.073 151.407 286.363 151.443 286.832 151.458L286.913 151.531V151.978ZM295.519 145.606L295.445 145.687C295.147 145.706 294.952 145.743 294.859 145.796C294.791 145.835 294.708 145.943 294.61 146.119C294.513 146.294 294.33 146.69 294.061 147.305L292.662 150.55C292.613 150.667 292.403 151.192 292.032 152.125H290.75C290.477 151.353 290.179 150.564 289.857 149.759C289.344 148.475 288.907 147.371 288.546 146.448C288.385 146.038 288.211 145.799 288.026 145.73C287.918 145.691 287.774 145.669 287.594 145.665L287.513 145.584V145.159L287.594 145.086C288.043 145.101 288.695 145.108 289.549 145.108C290.301 145.108 290.89 145.101 291.314 145.086L291.395 145.159V145.591L291.314 145.672C290.953 145.682 290.719 145.704 290.611 145.738C290.504 145.772 290.45 145.838 290.45 145.936C290.45 146.072 290.75 146.932 291.351 148.514C291.668 149.358 291.876 149.888 291.974 150.103C292.286 149.371 292.584 148.653 292.867 147.95C293.331 146.802 293.563 146.131 293.563 145.936C293.563 145.833 293.512 145.767 293.409 145.738C293.312 145.704 293.072 145.679 292.691 145.665L292.611 145.591V145.159L292.691 145.086C293.067 145.101 293.512 145.108 294.024 145.108C294.576 145.108 295.05 145.101 295.445 145.086L295.519 145.159V145.606ZM302.374 147.891C302.374 147.974 302.372 148.099 302.367 148.265L302.286 148.367C301.642 148.543 300.787 148.631 299.723 148.631C299.532 148.631 299.244 148.636 298.858 148.646C298.473 148.65 298.182 148.653 297.987 148.653C298.016 149.371 298.238 149.964 298.653 150.433C299.088 150.936 299.654 151.187 300.353 151.187C300.821 151.187 301.378 151.026 302.022 150.704L302.198 150.916L301.876 151.641C301.163 152.095 300.389 152.322 299.554 152.322C298.456 152.322 297.601 152.012 296.991 151.392C296.385 150.772 296.083 149.888 296.083 148.741C296.083 147.378 296.407 146.446 297.057 145.943C297.955 145.25 298.807 144.903 299.613 144.903C300.487 144.903 301.163 145.154 301.642 145.657C302.13 146.175 302.374 146.919 302.374 147.891ZM300.462 147.701C300.462 146.382 300.052 145.723 299.232 145.723C298.368 145.723 297.936 146.377 297.936 147.686V147.847C298.219 147.891 298.722 147.913 299.444 147.913C299.82 147.913 300.157 147.891 300.455 147.847C300.46 147.779 300.462 147.73 300.462 147.701ZM307.479 151.978L307.406 152.051C306.942 152.017 306.273 152 305.399 152C304.525 152 303.858 152.017 303.399 152.051L303.326 151.978V151.531L303.399 151.458C303.868 151.443 304.159 151.407 304.271 151.348C304.369 151.304 304.422 151.187 304.432 150.997C304.466 150.362 304.483 149.251 304.483 147.664V145.21C304.483 144.185 304.466 143.355 304.432 142.72C304.422 142.54 304.369 142.422 304.271 142.369C304.173 142.31 303.89 142.273 303.421 142.259L303.348 142.178V141.775L303.421 141.695C304.364 141.592 305.309 141.39 306.256 141.087L306.41 141.175C306.41 141.307 306.402 141.548 306.388 141.9C306.339 143.067 306.314 144.358 306.314 145.774V147.664C306.314 149.251 306.332 150.362 306.366 150.997C306.375 151.187 306.429 151.304 306.527 151.348C306.639 151.407 306.93 151.443 307.398 151.458L307.479 151.531V151.978ZM316.078 145.606L316.012 145.672C315.689 145.672 315.47 145.765 315.353 145.95C315.289 146.058 315.116 146.417 314.833 147.027C314.193 148.418 313.663 149.634 313.243 150.674L312.064 153.589C311.698 154.493 311.305 155.135 310.885 155.516C310.489 155.872 310.006 156.05 309.435 156.05C309.073 156.05 308.724 155.965 308.387 155.794C308.47 155.447 308.556 154.961 308.644 154.336L308.834 154.3C309.088 154.661 309.432 154.842 309.867 154.842C310.379 154.842 310.851 154.341 311.28 153.34L311.581 152.637L309.208 146.47C309.071 146.114 308.944 145.894 308.827 145.811C308.714 145.723 308.49 145.677 308.153 145.672L308.08 145.599V145.159L308.16 145.086C308.473 145.101 309.071 145.108 309.955 145.108C310.775 145.108 311.441 145.101 311.954 145.086L312.027 145.159V145.599L311.954 145.672C311.397 145.672 311.119 145.772 311.119 145.972C311.119 146.06 311.144 146.167 311.192 146.294C311.271 146.519 311.39 146.854 311.551 147.298L312.621 150.125L313.265 148.58C313.895 147.071 314.21 146.189 314.21 145.936C314.21 145.76 313.927 145.672 313.36 145.672L313.287 145.599V145.159L313.368 145.086C313.651 145.101 314.129 145.108 314.803 145.108C315.184 145.108 315.582 145.101 315.997 145.086L316.078 145.159V145.606ZM334.908 142.215L334.835 142.281C334.605 142.291 334.474 142.298 334.439 142.303C334.278 142.332 334.159 142.388 334.081 142.471C334.002 142.549 333.934 142.671 333.875 142.837C333.758 143.16 333.541 143.882 333.224 145.005C333.062 145.572 332.835 146.421 332.542 147.554L331.883 150.088C331.61 151.133 331.456 151.802 331.422 152.095H330.301L329.928 151.084C329.308 149.415 328.736 147.92 328.214 146.602L327.796 145.555C327.704 145.315 327.608 145.062 327.511 144.793L325.599 149.327C325.409 149.776 325.143 150.43 324.801 151.29L324.479 152.095H323.409L321.6 143.694C321.507 143.265 321.439 142.984 321.395 142.852C321.297 142.544 321.158 142.371 320.978 142.332C320.895 142.312 320.704 142.293 320.406 142.273L320.333 142.208V141.746L320.414 141.666C321.278 141.695 321.932 141.709 322.376 141.709C322.904 141.709 323.675 141.695 324.691 141.666L324.771 141.739V142.208L324.698 142.273C324.366 142.288 324.178 142.298 324.134 142.303C323.949 142.322 323.827 142.361 323.768 142.42C323.709 142.474 323.68 142.562 323.68 142.684C323.68 142.796 323.727 143.101 323.819 143.599L324.068 144.939C324.142 145.325 324.271 145.948 324.457 146.807L324.889 148.792L325.812 146.573C325.997 146.133 326.275 145.472 326.646 144.588L327.511 142.493C327.672 142.107 327.799 141.788 327.892 141.534H328.565C329.063 142.94 329.991 145.328 331.349 148.697L332.645 143.504C332.743 143.089 332.792 142.83 332.792 142.728C332.792 142.508 332.677 142.381 332.447 142.347C332.364 142.332 332.103 142.31 331.664 142.281L331.59 142.208V141.746L331.671 141.666C332.511 141.7 332.999 141.714 333.136 141.709L334.835 141.666L334.908 141.739V142.215ZM342.738 148.367C342.738 150.096 342.157 151.265 340.995 151.875C340.428 152.173 339.781 152.322 339.054 152.322C337.931 152.322 337.074 151.998 336.483 151.348C335.897 150.699 335.604 149.769 335.604 148.558C335.604 146.883 336.175 145.767 337.318 145.21C337.879 144.937 338.531 144.8 339.273 144.8C340.831 144.8 341.864 145.34 342.372 146.419C342.616 146.937 342.738 147.586 342.738 148.367ZM340.709 148.968C340.709 147.752 340.575 146.883 340.306 146.36C340.042 145.833 339.637 145.569 339.09 145.569C338.119 145.569 337.633 146.446 337.633 148.199C337.633 150.45 338.177 151.575 339.266 151.575C339.945 151.575 340.377 151.202 340.562 150.455C340.66 150.064 340.709 149.568 340.709 148.968ZM349.168 144.925L349.117 146.229C349.112 146.443 349.103 146.688 349.088 146.961L348.78 147.056C348.551 146.724 348.233 146.558 347.828 146.558C347.462 146.558 347.159 146.705 346.92 146.998C346.773 147.178 346.7 147.444 346.7 147.796V149.51C346.7 149.866 346.717 150.362 346.751 150.997C346.761 151.177 346.812 151.294 346.905 151.348C346.998 151.402 347.337 151.438 347.923 151.458L347.997 151.524V151.971L347.923 152.044C347.206 152.015 346.493 152 345.785 152C344.911 152 344.244 152.017 343.785 152.051L343.712 151.978V151.531L343.785 151.458C344.254 151.443 344.544 151.407 344.657 151.348C344.754 151.304 344.808 151.187 344.818 150.997C344.852 150.362 344.869 149.681 344.869 148.953V147.906C344.869 146.929 344.833 146.368 344.759 146.221C344.71 146.124 344.605 146.062 344.444 146.038C344.386 146.028 344.173 146.016 343.807 146.001L343.734 145.928V145.518L343.807 145.438C344.686 145.354 345.611 145.152 346.583 144.83L346.744 144.925L346.729 146.36C347.032 146.009 347.398 145.599 347.828 145.13C348.028 144.935 348.302 144.837 348.648 144.837C348.854 144.837 349.027 144.866 349.168 144.925ZM358.199 151.978L358.126 152.051C357.799 152.032 357.401 152.022 356.932 152.022C356.498 152.022 356.068 152.032 355.643 152.051C355.37 151.553 354.708 150.726 353.658 149.568C353.106 148.958 352.755 148.599 352.604 148.492L352.655 150.997C352.665 151.187 352.718 151.304 352.816 151.348C352.928 151.407 353.219 151.443 353.688 151.458L353.768 151.531V151.978L353.695 152.051C353.231 152.017 352.562 152 351.688 152C350.814 152 350.147 152.017 349.688 152.051L349.615 151.978V151.531L349.688 151.458C350.157 151.443 350.448 151.407 350.56 151.348C350.658 151.304 350.711 151.187 350.721 150.997C350.755 150.362 350.772 149.251 350.772 147.664V145.21C350.772 144.185 350.755 143.355 350.721 142.72C350.711 142.54 350.658 142.422 350.56 142.369C350.462 142.31 350.179 142.273 349.71 142.259L349.637 142.178V141.775L349.71 141.695C350.653 141.592 351.598 141.39 352.545 141.087L352.699 141.175C352.699 141.307 352.691 141.548 352.677 141.9C352.628 143.067 352.604 144.358 352.604 145.774V148.169L353.329 147.576C353.646 147.317 354.09 146.885 354.662 146.28L355.423 145.474C355.565 145.323 355.677 145.191 355.76 145.079C356.175 145.093 356.512 145.101 356.771 145.101C357.098 145.101 357.394 145.093 357.657 145.079L357.73 145.152V145.591L357.657 145.665L357.123 145.694C356.908 145.704 356.686 145.789 356.456 145.95C356.368 146.014 356.183 146.16 355.899 146.39L355.284 146.895L355.064 147.1L354.442 147.657L356.009 149.488C357.005 150.65 357.604 151.28 357.804 151.377C357.906 151.426 358.014 151.451 358.126 151.451L358.199 151.531V151.978ZM361.927 142.42C361.927 142.732 361.817 143.001 361.598 143.226C361.378 143.445 361.114 143.555 360.807 143.555C360.494 143.555 360.228 143.445 360.008 143.226C359.789 143.001 359.679 142.732 359.679 142.42C359.679 142.098 359.789 141.827 360.008 141.607C360.233 141.387 360.499 141.277 360.807 141.277C361.109 141.277 361.371 141.387 361.59 141.607C361.815 141.827 361.927 142.098 361.927 142.42ZM362.938 151.978L362.865 152.051C362.401 152.017 361.732 152 360.858 152C359.984 152 359.317 152.017 358.858 152.051L358.785 151.978V151.531L358.858 151.458C359.327 151.443 359.618 151.407 359.73 151.348C359.828 151.304 359.881 151.187 359.891 150.997C359.925 150.362 359.942 149.681 359.942 148.953V147.906C359.942 146.958 359.906 146.397 359.833 146.221C359.793 146.124 359.688 146.062 359.518 146.038C359.459 146.028 359.247 146.016 358.88 146.001L358.807 145.928V145.518L358.88 145.438C359.818 145.354 360.763 145.152 361.715 144.83L361.869 144.925C361.805 145.813 361.773 146.563 361.773 147.173V149.51C361.773 149.866 361.791 150.362 361.825 150.997C361.834 151.187 361.888 151.304 361.986 151.348C362.098 151.407 362.389 151.443 362.857 151.458L362.938 151.531V151.978ZM372.203 151.971L372.13 152.051C371.593 152.017 371.139 152 370.768 152C370.426 152 369.928 152.017 369.273 152.051L369.2 151.978C369.288 150.889 369.332 150.049 369.332 149.458V148.023C369.332 146.832 368.902 146.236 368.043 146.236C367.594 146.236 367.242 146.39 366.988 146.697C366.773 146.956 366.666 147.217 366.666 147.481V148.851C366.666 150.115 366.698 150.892 366.761 151.18C366.8 151.351 367.083 151.441 367.611 151.451L367.684 151.524V151.971L367.611 152.044C367.196 152.015 366.576 152 365.75 152C364.876 152 364.21 152.017 363.751 152.051L363.678 151.978V151.531L363.751 151.458C364.22 151.443 364.51 151.407 364.623 151.348C364.72 151.304 364.774 151.187 364.784 150.997C364.818 150.362 364.835 149.681 364.835 148.953V147.906C364.835 146.929 364.798 146.368 364.725 146.221C364.676 146.124 364.571 146.062 364.41 146.038C364.352 146.028 364.139 146.016 363.773 146.001L363.7 145.928V145.518L363.773 145.438C364.652 145.354 365.577 145.152 366.549 144.83L366.71 144.925L366.695 146.155L367.955 145.101C368.277 144.969 368.631 144.903 369.017 144.903C369.793 144.903 370.375 145.137 370.76 145.606C371.073 145.987 371.229 146.546 371.229 147.283C371.229 147.366 371.219 147.706 371.2 148.301C371.18 148.897 371.17 149.322 371.17 149.576C371.17 150.313 371.183 150.784 371.207 150.989C371.231 151.189 371.288 151.316 371.375 151.37C371.463 151.424 371.717 151.456 372.137 151.465L372.203 151.539V151.971ZM380.707 152.505C380.707 153.575 380.306 154.427 379.505 155.062C378.709 155.696 377.667 156.014 376.378 156.014C375.367 156.014 374.566 155.823 373.976 155.442C373.39 155.066 373.097 154.559 373.097 153.919C373.097 153.489 373.192 153.165 373.382 152.945C373.402 152.92 373.661 152.759 374.159 152.461C374.398 152.32 374.574 152.22 374.686 152.161C374.012 152.044 373.675 151.719 373.675 151.187C373.675 150.904 373.773 150.616 373.968 150.323C373.983 150.303 374.115 150.206 374.364 150.03C374.481 149.947 374.688 149.798 374.986 149.583C373.932 149.202 373.404 148.497 373.404 147.466C373.404 146.67 373.702 146.031 374.298 145.547C374.894 145.059 375.687 144.815 376.678 144.815C377.635 144.815 378.385 145.027 378.927 145.452C379.234 145.467 379.432 145.472 379.52 145.467C379.759 145.457 380.121 145.445 380.604 145.43L380.692 145.511L380.611 146.265L380.531 146.338H379.447C379.51 146.573 379.542 146.812 379.542 147.056C379.542 148.218 378.978 149.012 377.85 149.437C377.342 149.627 376.842 149.722 376.349 149.722C376.183 149.722 375.968 149.71 375.704 149.686C375.396 149.852 375.243 150.069 375.243 150.337C375.243 150.586 375.421 150.728 375.777 150.762C375.982 150.782 376.324 150.792 376.803 150.792C376.954 150.792 377.218 150.784 377.594 150.77C377.97 150.755 378.248 150.748 378.429 150.748C379.532 150.748 380.218 150.992 380.487 151.48C380.633 151.744 380.707 152.085 380.707 152.505ZM377.696 147.386C377.696 146.155 377.284 145.54 376.458 145.54C375.648 145.54 375.243 146.072 375.243 147.137C375.243 148.396 375.665 149.026 376.51 149.026C377.301 149.026 377.696 148.479 377.696 147.386ZM379.029 153.34C379.029 152.808 378.844 152.474 378.473 152.337C378.316 152.278 378.004 152.247 377.535 152.242L376.144 152.227C375.987 152.227 375.772 152.232 375.499 152.242C374.83 152.657 374.496 153.133 374.496 153.67C374.496 154.163 374.693 154.549 375.089 154.827C375.484 155.11 376.014 155.252 376.678 155.252C377.391 155.252 377.96 155.079 378.385 154.732C378.814 154.39 379.029 153.926 379.029 153.34Z" fill="white"/>
<path d="M247.699 97.2773C247.699 98.6185 247.24 99.6667 246.322 100.422C245.411 101.171 244.379 101.545 243.227 101.545C242.836 101.545 242.442 101.499 242.045 101.408C241.986 101.232 241.872 100.998 241.703 100.705L241.908 100.49C242.182 100.581 242.432 100.627 242.66 100.627C243.318 100.627 243.845 100.396 244.242 99.9336C244.639 99.4648 244.838 98.8105 244.838 97.9707C244.838 96.1543 244.021 95.2461 242.387 95.2461C242.191 95.2461 241.801 95.2852 241.215 95.3633C241.156 95.5195 241.127 96.584 241.127 98.5566V103.723C241.127 105.272 241.169 106.281 241.254 106.75C241.286 106.939 241.397 107.059 241.586 107.111C241.645 107.124 242.09 107.157 242.924 107.209L243.031 107.316V107.961L242.934 108.059C242.042 108.02 240.974 108 239.73 108C238.331 108 237.328 108.02 236.723 108.059L236.625 107.971V107.316L236.732 107.209C237.39 107.17 237.768 107.137 237.865 107.111C238.054 107.059 238.165 106.939 238.197 106.75C238.282 106.281 238.324 105.272 238.324 103.723V98.5566C238.324 97.0072 238.282 95.998 238.197 95.5293C238.165 95.3405 238.054 95.2201 237.865 95.168C237.768 95.1419 237.387 95.1094 236.723 95.0703L236.625 94.9629V94.3184L236.732 94.2207C237.37 94.2598 238.35 94.2793 239.672 94.2793C240.219 94.2793 241.007 94.2695 242.035 94.25C243.064 94.2305 243.656 94.2207 243.812 94.2207C245.596 94.2207 246.755 94.6732 247.289 95.5781C247.562 96.0469 247.699 96.6133 247.699 97.2773ZM255.971 98.5664L255.902 100.305C255.896 100.591 255.883 100.917 255.863 101.281L255.453 101.408C255.147 100.965 254.724 100.744 254.184 100.744C253.695 100.744 253.292 100.939 252.973 101.33C252.777 101.571 252.68 101.926 252.68 102.395V104.68C252.68 105.155 252.702 105.816 252.748 106.662C252.761 106.903 252.829 107.059 252.953 107.131C253.077 107.202 253.529 107.251 254.311 107.277L254.408 107.365V107.961L254.311 108.059C253.354 108.02 252.403 108 251.459 108C250.294 108 249.405 108.023 248.793 108.068L248.695 107.971V107.375L248.793 107.277C249.418 107.258 249.805 107.209 249.955 107.131C250.085 107.072 250.157 106.916 250.17 106.662C250.215 105.816 250.238 104.908 250.238 103.938V102.541C250.238 101.239 250.189 100.49 250.092 100.295C250.027 100.165 249.887 100.083 249.672 100.051C249.594 100.038 249.311 100.021 248.822 100.002L248.725 99.9043V99.3574L248.822 99.25C249.994 99.1393 251.228 98.8691 252.523 98.4395L252.738 98.5664L252.719 100.48C253.122 100.012 253.611 99.4648 254.184 98.8398C254.451 98.5794 254.815 98.4492 255.277 98.4492C255.551 98.4492 255.782 98.4883 255.971 98.5664ZM260.756 95.2266C260.756 95.6432 260.609 96.0013 260.316 96.3008C260.023 96.5938 259.672 96.7402 259.262 96.7402C258.845 96.7402 258.49 96.5938 258.197 96.3008C257.904 96.0013 257.758 95.6432 257.758 95.2266C257.758 94.7969 257.904 94.4355 258.197 94.1426C258.497 93.8496 258.852 93.7031 259.262 93.7031C259.665 93.7031 260.014 93.8496 260.307 94.1426C260.606 94.4355 260.756 94.7969 260.756 95.2266ZM262.104 107.971L262.006 108.068C261.387 108.023 260.495 108 259.33 108C258.165 108 257.276 108.023 256.664 108.068L256.566 107.971V107.375L256.664 107.277C257.289 107.258 257.676 107.209 257.826 107.131C257.956 107.072 258.028 106.916 258.041 106.662C258.087 105.816 258.109 104.908 258.109 103.938V102.541C258.109 101.278 258.061 100.529 257.963 100.295C257.911 100.165 257.771 100.083 257.543 100.051C257.465 100.038 257.182 100.021 256.693 100.002L256.596 99.9043V99.3574L256.693 99.25C257.943 99.1393 259.203 98.8691 260.473 98.4395L260.678 98.5664C260.593 99.7513 260.551 100.751 260.551 101.564V104.68C260.551 105.155 260.574 105.816 260.619 106.662C260.632 106.916 260.704 107.072 260.834 107.131C260.984 107.209 261.371 107.258 261.996 107.277L262.104 107.375V107.971ZM273.578 99.4746L273.48 99.582C273.083 99.6081 272.823 99.6569 272.699 99.7285C272.608 99.7806 272.497 99.9238 272.367 100.158C272.237 100.393 271.993 100.92 271.635 101.74L269.77 106.066C269.704 106.223 269.424 106.923 268.93 108.166H267.221C266.856 107.137 266.459 106.086 266.029 105.012C265.346 103.299 264.763 101.828 264.281 100.598C264.066 100.051 263.835 99.7318 263.588 99.6406C263.445 99.5885 263.253 99.5592 263.012 99.5527L262.904 99.4453V98.8789L263.012 98.7812C263.611 98.8008 264.48 98.8105 265.619 98.8105C266.622 98.8105 267.406 98.8008 267.973 98.7812L268.08 98.8789V99.4551L267.973 99.5625C267.491 99.5755 267.178 99.6048 267.035 99.6504C266.892 99.696 266.82 99.7839 266.82 99.9141C266.82 100.096 267.221 101.242 268.021 103.352C268.445 104.478 268.721 105.184 268.852 105.471C269.268 104.494 269.665 103.537 270.043 102.6C270.661 101.07 270.971 100.174 270.971 99.9141C270.971 99.7773 270.902 99.6895 270.766 99.6504C270.635 99.6048 270.316 99.5723 269.809 99.5527L269.701 99.4551V98.8789L269.809 98.7812C270.31 98.8008 270.902 98.8105 271.586 98.8105C272.322 98.8105 272.953 98.8008 273.48 98.7812L273.578 98.8789V99.4746ZM282.768 107.941L282.66 108.049C282.113 108.016 281.485 108 280.775 108C280.222 108 279.691 108.016 279.184 108.049L279.096 107.941L279.184 106.633L277.289 108.078C277.139 108.189 276.924 108.257 276.645 108.283C276.534 108.296 276.404 108.303 276.254 108.303C275.531 108.303 274.975 108.085 274.584 107.648C274.2 107.212 274.008 106.61 274.008 105.842C274.008 104.826 274.33 104.107 274.975 103.684C275.671 103.221 277.074 102.805 279.184 102.434C279.184 101.398 278.91 100.705 278.363 100.354C278.031 100.139 277.634 100.031 277.172 100.031C276.664 100.031 276.264 100.135 275.971 100.344L275.6 101.252L275.473 101.32L274.975 101.203L274.906 101.066L274.955 99.9141C276.029 99.1198 276.837 98.6706 277.377 98.5664C277.605 98.5208 277.901 98.498 278.266 98.498C279.548 98.498 280.463 98.8333 281.01 99.5039C281.407 99.9922 281.605 100.741 281.605 101.75C281.605 101.997 281.596 102.395 281.576 102.941C281.544 103.853 281.527 104.462 281.527 104.768C281.527 105.751 281.544 106.379 281.576 106.652C281.609 106.919 281.684 107.089 281.801 107.16C281.924 107.232 282.214 107.274 282.67 107.287L282.768 107.395V107.941ZM279.184 105.666V103.264C278.109 103.498 277.383 103.752 277.006 104.025C276.635 104.292 276.449 104.702 276.449 105.256C276.449 106.141 276.837 106.584 277.611 106.584C278.269 106.584 278.793 106.278 279.184 105.666ZM289.73 106.721C289.685 106.773 289.545 106.91 289.311 107.131C288.926 107.495 288.598 107.827 288.324 108.127C288.005 108.231 287.683 108.283 287.357 108.283C286.452 108.283 285.792 108.02 285.375 107.492C285.199 107.264 285.082 107.001 285.023 106.701C284.958 106.343 284.929 105.874 284.936 105.295L284.965 102.961V100.52H284.701L284.184 100.539H283.783L283.676 100.451V100.197L283.754 100.051C283.871 99.9727 284.053 99.8555 284.301 99.6992C284.594 99.5169 284.815 99.3639 284.965 99.2402V97.9121C284.965 97.3587 284.939 96.7728 284.887 96.1543C285.375 95.998 285.769 95.8613 286.068 95.7441C286.374 95.6204 286.804 95.4219 287.357 95.1484L287.611 95.3438C287.533 96.151 287.478 96.8737 287.445 97.5117L287.357 99.2012H287.68C288.389 99.2012 289.001 99.1784 289.516 99.1328L289.623 99.2402L289.486 100.383L289.389 100.48H287.357V103.791C287.357 104.852 287.37 105.477 287.396 105.666C287.429 105.939 287.543 106.161 287.738 106.33C287.94 106.499 288.21 106.584 288.549 106.584C288.816 106.584 289.138 106.512 289.516 106.369L289.73 106.721ZM299.184 102.521C299.184 102.632 299.18 102.798 299.174 103.02L299.066 103.156C298.207 103.391 297.068 103.508 295.648 103.508C295.395 103.508 295.01 103.514 294.496 103.527C293.982 103.534 293.594 103.537 293.334 103.537C293.373 104.494 293.669 105.285 294.223 105.91C294.802 106.581 295.557 106.916 296.488 106.916C297.113 106.916 297.855 106.701 298.715 106.271L298.949 106.555L298.52 107.521C297.569 108.127 296.537 108.43 295.424 108.43C293.959 108.43 292.82 108.016 292.006 107.189C291.199 106.363 290.795 105.184 290.795 103.654C290.795 101.838 291.228 100.594 292.094 99.9238C293.292 98.9993 294.428 98.5371 295.502 98.5371C296.667 98.5371 297.569 98.8724 298.207 99.543C298.858 100.233 299.184 101.226 299.184 102.521ZM296.635 102.268C296.635 100.51 296.088 99.6309 294.994 99.6309C293.842 99.6309 293.266 100.503 293.266 102.248V102.463C293.643 102.521 294.314 102.551 295.277 102.551C295.779 102.551 296.228 102.521 296.625 102.463C296.632 102.372 296.635 102.307 296.635 102.268ZM318.881 107.961L318.783 108.059C318.738 108.059 318.614 108.055 318.412 108.049C317.52 108.016 316.964 108 316.742 108C316.41 108 315.883 108.02 315.16 108.059C315.134 107.902 315.01 107.642 314.789 107.277L312.367 103.234L311.283 101.584C311.146 101.382 310.954 101.184 310.707 100.988L310.814 100.656C310.964 100.663 311.075 100.666 311.146 100.666C311.785 100.666 312.286 100.565 312.65 100.363C312.982 100.181 313.288 99.862 313.568 99.4062C313.848 98.9505 313.988 98.4069 313.988 97.7754C313.988 96.6751 313.578 95.9329 312.758 95.5488C312.367 95.3665 311.798 95.2754 311.049 95.2754C310.723 95.2754 310.411 95.3014 310.111 95.3535C310.046 95.9915 310.014 97.0788 310.014 98.6152V103.723C310.014 105.272 310.056 106.281 310.141 106.75C310.173 106.939 310.284 107.059 310.473 107.111C310.57 107.137 310.951 107.17 311.615 107.209L311.713 107.307V107.961L311.625 108.059C310.974 108.02 309.971 108 308.617 108C307.217 108 306.215 108.02 305.609 108.059L305.512 107.971V107.307L305.609 107.209C306.273 107.17 306.654 107.137 306.752 107.111C306.941 107.059 307.051 106.939 307.084 106.75C307.169 106.281 307.211 105.272 307.211 103.723V98.5566C307.211 97.0072 307.169 95.998 307.084 95.5293C307.051 95.3405 306.941 95.2201 306.752 95.168C306.654 95.1419 306.273 95.1094 305.609 95.0703L305.512 94.9727V94.3086L305.609 94.2207C306.247 94.2598 307.25 94.2793 308.617 94.2793C309.411 94.2793 310.056 94.2695 310.551 94.25C311.534 94.2109 312.27 94.1914 312.758 94.1914C313.884 94.1914 314.711 94.2923 315.238 94.4941C315.948 94.7676 316.423 95.2298 316.664 95.8809C316.781 96.1999 316.84 96.5775 316.84 97.0137C316.84 98.7845 315.844 100.041 313.852 100.783C314.177 101.33 314.522 101.883 314.887 102.443L316.391 104.758C317.276 106.125 317.865 106.903 318.158 107.092C318.308 107.189 318.516 107.238 318.783 107.238L318.881 107.336V107.961ZM328.461 102.521C328.461 102.632 328.458 102.798 328.451 103.02L328.344 103.156C327.484 103.391 326.345 103.508 324.926 103.508C324.672 103.508 324.288 103.514 323.773 103.527C323.259 103.534 322.872 103.537 322.611 103.537C322.65 104.494 322.947 105.285 323.5 105.91C324.079 106.581 324.835 106.916 325.766 106.916C326.391 106.916 327.133 106.701 327.992 106.271L328.227 106.555L327.797 107.521C326.846 108.127 325.814 108.43 324.701 108.43C323.236 108.43 322.097 108.016 321.283 107.189C320.476 106.363 320.072 105.184 320.072 103.654C320.072 101.838 320.505 100.594 321.371 99.9238C322.569 98.9993 323.705 98.5371 324.779 98.5371C325.945 98.5371 326.846 98.8724 327.484 99.543C328.135 100.233 328.461 101.226 328.461 102.521ZM325.912 102.268C325.912 100.51 325.365 99.6309 324.271 99.6309C323.119 99.6309 322.543 100.503 322.543 102.248V102.463C322.921 102.521 323.591 102.551 324.555 102.551C325.056 102.551 325.505 102.521 325.902 102.463C325.909 102.372 325.912 102.307 325.912 102.268ZM340.453 102.336C340.453 103.137 340.31 103.902 340.023 104.631C339.815 105.165 339.542 105.617 339.203 105.988C339.053 106.151 338.773 106.385 338.363 106.691C337.934 107.036 337.396 107.453 336.752 107.941C336.368 108.195 335.88 108.322 335.287 108.322C334.721 108.322 334.154 108.218 333.588 108.01V111.672C333.588 111.971 333.624 112.17 333.695 112.268C333.734 112.32 333.822 112.362 333.959 112.395C334.063 112.421 334.48 112.46 335.209 112.512L335.316 112.609V113.215L335.219 113.312C334.34 113.26 333.34 113.234 332.221 113.234C331.4 113.234 330.58 113.26 329.76 113.312L329.662 113.215V112.629L329.76 112.521C330.417 112.502 330.795 112.45 330.893 112.365C330.958 112.307 330.997 112.245 331.01 112.18C331.036 112.056 331.062 111.737 331.088 111.223C331.107 110.832 331.12 110.334 331.127 109.729L331.146 108.215V102.541C331.146 102.476 331.127 101.994 331.088 101.096C331.068 100.673 331.033 100.402 330.98 100.285C330.935 100.161 330.801 100.083 330.58 100.051C330.502 100.038 330.215 100.021 329.721 100.002L329.623 99.9043V99.3574L329.721 99.25C330.964 99.1393 332.224 98.8691 333.5 98.4395L333.715 98.5664C333.715 98.8464 333.686 99.4095 333.627 100.256C334.063 99.8913 334.613 99.4388 335.277 98.8984C335.596 98.6576 336.088 98.5371 336.752 98.5371C338.367 98.5371 339.467 99.1556 340.053 100.393C340.32 100.959 340.453 101.607 340.453 102.336ZM337.943 103.537C337.943 102.118 337.569 101.161 336.82 100.666C336.423 100.406 336.01 100.275 335.58 100.275C334.779 100.275 334.115 100.604 333.588 101.262V106.105C334.18 106.73 334.831 107.043 335.541 107.043C336.602 107.043 337.312 106.493 337.67 105.393C337.852 104.839 337.943 104.221 337.943 103.537ZM351.713 103.156C351.713 105.461 350.938 107.02 349.389 107.834C348.633 108.231 347.771 108.43 346.801 108.43C345.303 108.43 344.161 107.997 343.373 107.131C342.592 106.265 342.201 105.025 342.201 103.41C342.201 101.177 342.963 99.6895 344.486 98.9473C345.235 98.5827 346.104 98.4004 347.094 98.4004C349.171 98.4004 350.548 99.1198 351.225 100.559C351.55 101.249 351.713 102.115 351.713 103.156ZM349.008 103.957C349.008 102.336 348.829 101.177 348.471 100.48C348.119 99.7773 347.579 99.4258 346.85 99.4258C345.554 99.4258 344.906 100.594 344.906 102.932C344.906 105.933 345.632 107.434 347.084 107.434C347.989 107.434 348.565 106.936 348.812 105.939C348.943 105.419 349.008 104.758 349.008 103.957ZM360.717 104.934C360.717 105.982 360.32 106.828 359.525 107.473C358.738 108.111 357.706 108.43 356.43 108.43C355.525 108.43 354.555 108.234 353.52 107.844L353.412 107.697C353.471 107.098 353.507 106.633 353.52 106.301L353.568 105.07L353.666 104.963H354.242L354.359 105.07C354.385 105.799 354.415 106.229 354.447 106.359C355.001 107.069 355.727 107.424 356.625 107.424C357.198 107.424 357.657 107.284 358.002 107.004C358.347 106.724 358.52 106.35 358.52 105.881C358.52 105.288 358.259 104.895 357.738 104.699C357.517 104.615 357.077 104.504 356.42 104.367C355.346 104.139 354.626 103.879 354.262 103.586C353.708 103.143 353.432 102.489 353.432 101.623C353.432 100.679 353.773 99.9206 354.457 99.3477C355.173 98.7487 356.143 98.4492 357.367 98.4492C358.409 98.4492 359.275 98.625 359.965 98.9766L360.053 99.1328C359.981 99.4258 359.926 100.178 359.887 101.389L359.779 101.486H359.223L359.115 101.389C359.089 100.92 359.044 100.539 358.979 100.246C358.568 99.7253 357.973 99.4648 357.191 99.4648C356.684 99.4648 356.267 99.5885 355.941 99.8359C355.616 100.083 355.453 100.409 355.453 100.812C355.453 101.353 355.73 101.714 356.283 101.896C356.531 101.975 357.012 102.085 357.729 102.229C358.822 102.443 359.545 102.691 359.896 102.971C360.443 103.407 360.717 104.061 360.717 104.934ZM366.166 95.2266C366.166 95.6432 366.02 96.0013 365.727 96.3008C365.434 96.5938 365.082 96.7402 364.672 96.7402C364.255 96.7402 363.9 96.5938 363.607 96.3008C363.314 96.0013 363.168 95.6432 363.168 95.2266C363.168 94.7969 363.314 94.4355 363.607 94.1426C363.907 93.8496 364.262 93.7031 364.672 93.7031C365.076 93.7031 365.424 93.8496 365.717 94.1426C366.016 94.4355 366.166 94.7969 366.166 95.2266ZM367.514 107.971L367.416 108.068C366.798 108.023 365.906 108 364.74 108C363.575 108 362.686 108.023 362.074 108.068L361.977 107.971V107.375L362.074 107.277C362.699 107.258 363.087 107.209 363.236 107.131C363.367 107.072 363.438 106.916 363.451 106.662C363.497 105.816 363.52 104.908 363.52 103.938V102.541C363.52 101.278 363.471 100.529 363.373 100.295C363.321 100.165 363.181 100.083 362.953 100.051C362.875 100.038 362.592 100.021 362.104 100.002L362.006 99.9043V99.3574L362.104 99.25C363.354 99.1393 364.613 98.8691 365.883 98.4395L366.088 98.5664C366.003 99.7513 365.961 100.751 365.961 101.564V104.68C365.961 105.155 365.984 105.816 366.029 106.662C366.042 106.916 366.114 107.072 366.244 107.131C366.394 107.209 366.781 107.258 367.406 107.277L367.514 107.375V107.971ZM374.574 106.721C374.529 106.773 374.389 106.91 374.154 107.131C373.77 107.495 373.441 107.827 373.168 108.127C372.849 108.231 372.527 108.283 372.201 108.283C371.296 108.283 370.635 108.02 370.219 107.492C370.043 107.264 369.926 107.001 369.867 106.701C369.802 106.343 369.773 105.874 369.779 105.295L369.809 102.961V100.52H369.545L369.027 100.539H368.627L368.52 100.451V100.197L368.598 100.051C368.715 99.9727 368.897 99.8555 369.145 99.6992C369.438 99.5169 369.659 99.3639 369.809 99.2402V97.9121C369.809 97.3587 369.783 96.7728 369.73 96.1543C370.219 95.998 370.613 95.8613 370.912 95.7441C371.218 95.6204 371.648 95.4219 372.201 95.1484L372.455 95.3438C372.377 96.151 372.322 96.8737 372.289 97.5117L372.201 99.2012H372.523C373.233 99.2012 373.845 99.1784 374.359 99.1328L374.467 99.2402L374.33 100.383L374.232 100.48H372.201V103.791C372.201 104.852 372.214 105.477 372.24 105.666C372.273 105.939 372.387 106.161 372.582 106.33C372.784 106.499 373.054 106.584 373.393 106.584C373.66 106.584 373.982 106.512 374.359 106.369L374.574 106.721ZM385.053 103.156C385.053 105.461 384.278 107.02 382.729 107.834C381.973 108.231 381.111 108.43 380.141 108.43C378.643 108.43 377.501 107.997 376.713 107.131C375.932 106.265 375.541 105.025 375.541 103.41C375.541 101.177 376.303 99.6895 377.826 98.9473C378.575 98.5827 379.444 98.4004 380.434 98.4004C382.51 98.4004 383.887 99.1198 384.564 100.559C384.89 101.249 385.053 102.115 385.053 103.156ZM382.348 103.957C382.348 102.336 382.169 101.177 381.811 100.48C381.459 99.7773 380.919 99.4258 380.189 99.4258C378.894 99.4258 378.246 100.594 378.246 102.932C378.246 105.933 378.972 107.434 380.424 107.434C381.329 107.434 381.905 106.936 382.152 105.939C382.283 105.419 382.348 104.758 382.348 103.957ZM393.627 98.5664L393.559 100.305C393.552 100.591 393.539 100.917 393.52 101.281L393.109 101.408C392.803 100.965 392.38 100.744 391.84 100.744C391.352 100.744 390.948 100.939 390.629 101.33C390.434 101.571 390.336 101.926 390.336 102.395V104.68C390.336 105.155 390.359 105.816 390.404 106.662C390.417 106.903 390.486 107.059 390.609 107.131C390.733 107.202 391.186 107.251 391.967 107.277L392.064 107.365V107.961L391.967 108.059C391.01 108.02 390.059 108 389.115 108C387.95 108 387.061 108.023 386.449 108.068L386.352 107.971V107.375L386.449 107.277C387.074 107.258 387.462 107.209 387.611 107.131C387.742 107.072 387.813 106.916 387.826 106.662C387.872 105.816 387.895 104.908 387.895 103.938V102.541C387.895 101.239 387.846 100.49 387.748 100.295C387.683 100.165 387.543 100.083 387.328 100.051C387.25 100.038 386.967 100.021 386.479 100.002L386.381 99.9043V99.3574L386.479 99.25C387.65 99.1393 388.884 98.8691 390.18 98.4395L390.395 98.5664L390.375 100.48C390.779 100.012 391.267 99.4648 391.84 98.8398C392.107 98.5794 392.471 98.4492 392.934 98.4492C393.207 98.4492 393.438 98.4883 393.627 98.5664ZM398.412 95.2266C398.412 95.6432 398.266 96.0013 397.973 96.3008C397.68 96.5938 397.328 96.7402 396.918 96.7402C396.501 96.7402 396.146 96.5938 395.854 96.3008C395.561 96.0013 395.414 95.6432 395.414 95.2266C395.414 94.7969 395.561 94.4355 395.854 94.1426C396.153 93.8496 396.508 93.7031 396.918 93.7031C397.322 93.7031 397.67 93.8496 397.963 94.1426C398.262 94.4355 398.412 94.7969 398.412 95.2266ZM399.76 107.971L399.662 108.068C399.044 108.023 398.152 108 396.986 108C395.821 108 394.932 108.023 394.32 108.068L394.223 107.971V107.375L394.32 107.277C394.945 107.258 395.333 107.209 395.482 107.131C395.613 107.072 395.684 106.916 395.697 106.662C395.743 105.816 395.766 104.908 395.766 103.938V102.541C395.766 101.278 395.717 100.529 395.619 100.295C395.567 100.165 395.427 100.083 395.199 100.051C395.121 100.038 394.838 100.021 394.35 100.002L394.252 99.9043V99.3574L394.35 99.25C395.6 99.1393 396.859 98.8691 398.129 98.4395L398.334 98.5664C398.249 99.7513 398.207 100.751 398.207 101.564V104.68C398.207 105.155 398.23 105.816 398.275 106.662C398.288 106.916 398.36 107.072 398.49 107.131C398.64 107.209 399.027 107.258 399.652 107.277L399.76 107.375V107.971ZM409.613 102.521C409.613 102.632 409.61 102.798 409.604 103.02L409.496 103.156C408.637 103.391 407.497 103.508 406.078 103.508C405.824 103.508 405.44 103.514 404.926 103.527C404.411 103.534 404.024 103.537 403.764 103.537C403.803 104.494 404.099 105.285 404.652 105.91C405.232 106.581 405.987 106.916 406.918 106.916C407.543 106.916 408.285 106.701 409.145 106.271L409.379 106.555L408.949 107.521C407.999 108.127 406.967 108.43 405.854 108.43C404.389 108.43 403.249 108.016 402.436 107.189C401.628 106.363 401.225 105.184 401.225 103.654C401.225 101.838 401.658 100.594 402.523 99.9238C403.721 98.9993 404.857 98.5371 405.932 98.5371C407.097 98.5371 407.999 98.8724 408.637 99.543C409.288 100.233 409.613 101.226 409.613 102.521ZM407.064 102.268C407.064 100.51 406.518 99.6309 405.424 99.6309C404.271 99.6309 403.695 100.503 403.695 102.248V102.463C404.073 102.521 404.743 102.551 405.707 102.551C406.208 102.551 406.658 102.521 407.055 102.463C407.061 102.372 407.064 102.307 407.064 102.268ZM418.51 104.934C418.51 105.982 418.113 106.828 417.318 107.473C416.531 108.111 415.499 108.43 414.223 108.43C413.318 108.43 412.348 108.234 411.312 107.844L411.205 107.697C411.264 107.098 411.299 106.633 411.312 106.301L411.361 105.07L411.459 104.963H412.035L412.152 105.07C412.178 105.799 412.208 106.229 412.24 106.359C412.794 107.069 413.52 107.424 414.418 107.424C414.991 107.424 415.45 107.284 415.795 107.004C416.14 106.724 416.312 106.35 416.312 105.881C416.312 105.288 416.052 104.895 415.531 104.699C415.31 104.615 414.87 104.504 414.213 104.367C413.139 104.139 412.419 103.879 412.055 103.586C411.501 103.143 411.225 102.489 411.225 101.623C411.225 100.679 411.566 99.9206 412.25 99.3477C412.966 98.7487 413.936 98.4492 415.16 98.4492C416.202 98.4492 417.068 98.625 417.758 98.9766L417.846 99.1328C417.774 99.4258 417.719 100.178 417.68 101.389L417.572 101.486H417.016L416.908 101.389C416.882 100.92 416.837 100.539 416.771 100.246C416.361 99.7253 415.766 99.4648 414.984 99.4648C414.477 99.4648 414.06 99.5885 413.734 99.8359C413.409 100.083 413.246 100.409 413.246 100.812C413.246 101.353 413.523 101.714 414.076 101.896C414.324 101.975 414.805 102.085 415.521 102.229C416.615 102.443 417.338 102.691 417.689 102.971C418.236 103.407 418.51 104.061 418.51 104.934Z" fill="#ED811F"/>
<path d="M508.094 112.484C507.969 113.703 507.953 114.859 508.047 115.953L507.859 116.172C504.995 116.057 502.651 116 500.828 116C498.922 116 496.661 116.052 494.047 116.156L493.844 115.969V114.547L497.031 111.297C499.417 108.87 500.974 107.026 501.703 105.766C502.13 105.026 502.432 104.354 502.609 103.75C502.786 103.135 502.875 102.484 502.875 101.797C502.875 99.3073 501.734 98.0625 499.453 98.0625C498.182 98.0625 497.172 98.5469 496.422 99.5156C496.307 99.9635 496.104 100.745 495.812 101.859L495.641 102.016H494.75L494.594 101.859L495.172 96.6406C496.484 95.3281 498.312 94.6719 500.656 94.6719C502.75 94.6719 504.365 95.2188 505.5 96.3125C506.552 97.3125 507.078 98.6406 507.078 100.297C507.078 100.974 507 101.599 506.844 102.172C506.521 103.339 505.859 104.516 504.859 105.703C504.026 106.693 502.766 107.995 501.078 109.609C500.464 110.214 499.531 111.104 498.281 112.281L498.312 112.484H501.078C501.88 112.484 502.641 112.474 503.359 112.453L506.062 112.375C506.75 112.354 507.349 112.323 507.859 112.281L508.094 112.484ZM524.125 115.938L523.953 116.125C522.443 116.042 520.76 116 518.906 116C517.854 116 516.12 116.042 513.703 116.125L513.547 115.953V114.984L513.719 114.812L515.391 114.688C516.224 114.625 516.719 114.51 516.875 114.344C517.083 114.115 517.203 113.552 517.234 112.656L517.297 110.609H515.234L512.109 110.641C511.547 110.641 510.719 110.656 509.625 110.688L509.406 109.391C509.833 108.068 510.969 105.698 512.812 102.281C514.708 98.7708 516.182 96.3594 517.234 95.0469L521.156 94.2656L521.438 94.5312C521.25 96.5417 521.156 99.8177 521.156 104.359V108.031H521.656C522.146 108.031 522.875 108.005 523.844 107.953L524.031 108.125C524 109.146 524 109.917 524.031 110.438L523.844 110.625C523.677 110.615 523.411 110.609 523.047 110.609H521.156C521.156 112.901 521.271 114.156 521.5 114.375C521.688 114.552 522.089 114.667 522.703 114.719C523.172 114.76 523.594 114.807 523.969 114.859L524.125 115V115.938ZM517.484 97.1562C516.099 99.375 515.073 101.109 514.406 102.359C513.948 103.214 513.047 105.104 511.703 108.031H517.312L517.484 97.1562Z" fill="white"/>
<rect x="229" y="242" width="355" height="8" rx="4" fill="#A9A5A5"/>
<rect x="229" y="284" width="355" height="8" rx="4" fill="#A9A5A5"/>
<rect x="229" y="328" width="355" height="8" rx="4" fill="#A9A5A5"/>
<rect x="229" y="370" width="355" height="8" rx="4" fill="#A9A5A5"/>
<rect x="229" y="416" width="355" height="8" rx="4" fill="#A9A5A5"/>
<rect x="229" y="465" width="355" height="8" rx="4" fill="#A9A5A5"/>
<path d="M517.25 620.875L516.969 621.188C512.344 621.062 509.552 621 508.594 621C504.76 621 501.198 621.062 497.906 621.188L497.625 620.875V618.906L497.938 618.562L500.656 618.406C501.802 618.344 502.375 617.938 502.375 617.188C502.375 616.75 502.083 615.771 501.5 614.25L498.969 607.656C496.094 607.615 493.156 607.594 490.156 607.594C488.531 607.594 486.115 607.615 482.906 607.656L481.531 611.469C480.49 614.365 479.969 616.177 479.969 616.906C479.969 617.698 480.458 618.167 481.438 618.312C481.979 618.396 483.042 618.479 484.625 618.562L484.938 618.875V620.875L484.625 621.188C480.771 621.062 478.292 621 477.188 621C476.333 621 474.219 621.062 470.844 621.188L470.531 620.906V618.875L470.875 618.562C473.021 618.438 474.333 618.01 474.812 617.281C475.312 616.552 477.156 612.208 480.344 604.25L488.5 583.844C489.104 582.26 490.021 579.875 491.25 576.688H495.688L512.25 615.656C512.896 617.135 513.479 617.969 514 618.156C514.688 618.406 515.677 618.531 516.969 618.531L517.25 618.875V620.875ZM497.438 604.062L490.75 587.688L484.344 604.062C486.052 604.125 488.271 604.156 491 604.156C493.646 604.156 495.792 604.125 497.438 604.062ZM549.844 604.906H537.594V616.969H532.062V604.906H519.812V599.531H532.062V587.469H537.594V599.531H549.844V604.906ZM581.844 604.906H569.594V616.969H564.062V604.906H551.812V599.531H564.062V587.469H569.594V599.531H581.844V604.906Z" fill="#8E4DE0"/>
<rect x="229" y="201" width="355" height="8" rx="4" fill="#A9A5A5"/>
<rect x="229" y="201" width="60" height="8" rx="4" fill="#4F5D95"/>
<path d="M239.02 186.566C239.02 187.371 238.744 188 238.193 188.453C237.646 188.902 237.027 189.127 236.336 189.127C236.102 189.127 235.865 189.1 235.627 189.045C235.592 188.939 235.523 188.799 235.422 188.623L235.545 188.494C235.709 188.549 235.859 188.576 235.996 188.576C236.391 188.576 236.707 188.438 236.945 188.16C237.184 187.879 237.303 187.486 237.303 186.982C237.303 185.893 236.812 185.348 235.832 185.348C235.715 185.348 235.48 185.371 235.129 185.418C235.094 185.512 235.076 186.15 235.076 187.334V190.434C235.076 191.363 235.102 191.969 235.152 192.25C235.172 192.363 235.238 192.436 235.352 192.467C235.387 192.475 235.654 192.494 236.154 192.525L236.219 192.59V192.977L236.16 193.035C235.625 193.012 234.984 193 234.238 193C233.398 193 232.797 193.012 232.434 193.035L232.375 192.982V192.59L232.439 192.525C232.834 192.502 233.061 192.482 233.119 192.467C233.232 192.436 233.299 192.363 233.318 192.25C233.369 191.969 233.395 191.363 233.395 190.434V187.334C233.395 186.404 233.369 185.799 233.318 185.518C233.299 185.404 233.232 185.332 233.119 185.301C233.061 185.285 232.832 185.266 232.434 185.242L232.375 185.178V184.791L232.439 184.732C232.822 184.756 233.41 184.768 234.203 184.768C234.531 184.768 235.004 184.762 235.621 184.75C236.238 184.738 236.594 184.732 236.688 184.732C237.758 184.732 238.453 185.004 238.773 185.547C238.938 185.828 239.02 186.168 239.02 186.566ZM248.945 192.977L248.887 193.035C248.5 193.012 247.898 193 247.082 193C246.246 193 245.645 193.012 245.277 193.035L245.219 192.982V192.584L245.283 192.525C245.682 192.502 245.91 192.482 245.969 192.467C246.082 192.436 246.148 192.363 246.168 192.25C246.219 191.969 246.244 191.363 246.244 190.434V189.021C246.045 189.002 245.412 188.992 244.346 188.992C243.361 188.992 242.713 189.002 242.4 189.021V190.434C242.4 191.363 242.426 191.969 242.477 192.25C242.496 192.363 242.562 192.436 242.676 192.467C242.734 192.482 242.963 192.502 243.361 192.525L243.42 192.584V192.977L243.367 193.035C242.977 193.012 242.375 193 241.562 193C240.723 193 240.121 193.012 239.758 193.035L239.699 192.982V192.584L239.758 192.525C240.156 192.502 240.385 192.482 240.443 192.467C240.557 192.436 240.623 192.363 240.643 192.25C240.693 191.969 240.719 191.363 240.719 190.434V187.334C240.719 186.404 240.693 185.799 240.643 185.518C240.623 185.404 240.557 185.332 240.443 185.301C240.385 185.285 240.156 185.266 239.758 185.242L239.699 185.184V184.785L239.758 184.732C240.133 184.756 240.734 184.768 241.562 184.768C242.41 184.768 243.012 184.756 243.367 184.732L243.42 184.785V185.189L243.361 185.242C242.963 185.266 242.734 185.285 242.676 185.301C242.562 185.332 242.496 185.404 242.477 185.518C242.426 185.799 242.4 186.404 242.4 187.334V188.301C242.814 188.32 243.385 188.33 244.111 188.33C245.252 188.33 245.963 188.32 246.244 188.301V187.334C246.244 186.404 246.219 185.799 246.168 185.518C246.148 185.404 246.082 185.332 245.969 185.301C245.91 185.285 245.682 185.266 245.283 185.242L245.219 185.184V184.785L245.277 184.732C245.656 184.756 246.258 184.768 247.082 184.768C247.934 184.768 248.535 184.756 248.887 184.732L248.945 184.785V185.189L248.893 185.242C248.486 185.266 248.256 185.285 248.201 185.301C248.088 185.332 248.021 185.404 248.002 185.518C247.951 185.799 247.926 186.404 247.926 187.334V190.434C247.926 191.363 247.951 191.969 248.002 192.25C248.021 192.363 248.088 192.436 248.201 192.467C248.26 192.482 248.488 192.502 248.887 192.525L248.945 192.584V192.977ZM256.34 186.566C256.34 187.371 256.064 188 255.514 188.453C254.967 188.902 254.348 189.127 253.656 189.127C253.422 189.127 253.186 189.1 252.947 189.045C252.912 188.939 252.844 188.799 252.742 188.623L252.865 188.494C253.029 188.549 253.18 188.576 253.316 188.576C253.711 188.576 254.027 188.438 254.266 188.16C254.504 187.879 254.623 187.486 254.623 186.982C254.623 185.893 254.133 185.348 253.152 185.348C253.035 185.348 252.801 185.371 252.449 185.418C252.414 185.512 252.396 186.15 252.396 187.334V190.434C252.396 191.363 252.422 191.969 252.473 192.25C252.492 192.363 252.559 192.436 252.672 192.467C252.707 192.475 252.975 192.494 253.475 192.525L253.539 192.59V192.977L253.48 193.035C252.945 193.012 252.305 193 251.559 193C250.719 193 250.117 193.012 249.754 193.035L249.695 192.982V192.59L249.76 192.525C250.154 192.502 250.381 192.482 250.439 192.467C250.553 192.436 250.619 192.363 250.639 192.25C250.689 191.969 250.715 191.363 250.715 190.434V187.334C250.715 186.404 250.689 185.799 250.639 185.518C250.619 185.404 250.553 185.332 250.439 185.301C250.381 185.285 250.152 185.266 249.754 185.242L249.695 185.178V184.791L249.76 184.732C250.143 184.756 250.73 184.768 251.523 184.768C251.852 184.768 252.324 184.762 252.941 184.75C253.559 184.738 253.914 184.732 254.008 184.732C255.078 184.732 255.773 185.004 256.094 185.547C256.258 185.828 256.34 186.168 256.34 186.566Z" fill="#6FA2A4"/>
<path d="M240.291 233.975L240.021 234.572C239.197 235.025 238.275 235.252 237.256 235.252C235.217 235.252 233.822 234.518 233.072 233.049C232.725 232.369 232.551 231.633 232.551 230.84C232.551 229.559 232.977 228.537 233.828 227.775C234.699 226.99 235.889 226.598 237.396 226.598C238.354 226.598 239.289 226.771 240.203 227.119L240.279 227.207C240.146 227.746 240.064 228.377 240.033 229.1L239.98 229.158H239.635L239.576 229.094C239.564 228.621 239.543 228.293 239.512 228.109C239.023 227.559 238.318 227.283 237.396 227.283C236.447 227.283 235.703 227.584 235.164 228.186C234.625 228.787 234.355 229.604 234.355 230.635C234.355 232.029 234.836 233.1 235.797 233.846C236.309 234.244 236.994 234.443 237.854 234.443C238.635 234.443 239.398 234.242 240.145 233.84L240.291 233.975ZM241.686 235L242.055 233.002H241.188L241.357 232.088H242.23L242.676 229.686H241.809L241.979 228.771H242.846L243.168 227.037H243.613L243.285 228.771H244.627L244.949 227.037H245.389L245.066 228.771H245.934L245.764 229.686H244.896L244.445 232.088H245.312L245.143 233.002H244.275L243.9 235H243.461L243.836 233.002H242.494L242.119 235H241.686ZM242.664 232.088H244.006L244.457 229.686H243.115L242.664 232.088Z" fill="#6FA2A4"/>
<path d="M236.342 268.189L236.283 268.242C235.885 268.266 235.656 268.285 235.598 268.301C235.484 268.332 235.418 268.404 235.398 268.518C235.348 268.803 235.322 269.408 235.322 270.334V274.693C235.322 275.479 235.238 276.09 235.07 276.527C234.879 277.027 234.535 277.494 234.039 277.928C233.496 278.404 232.977 278.643 232.48 278.643C232.316 278.643 232.156 278.613 232 278.555C232.02 278.262 232.029 277.9 232.029 277.471L232.164 277.389C232.48 277.674 232.76 277.816 233.002 277.816C233.338 277.816 233.525 277.639 233.564 277.283C233.615 276.822 233.641 276.131 233.641 275.209V270.334C233.641 269.408 233.615 268.803 233.564 268.518C233.545 268.404 233.479 268.332 233.365 268.301C233.338 268.293 233.064 268.273 232.545 268.242L232.486 268.184V267.785L232.545 267.732C233.084 267.756 233.729 267.768 234.479 267.768C235.33 267.768 235.932 267.756 236.283 267.732L236.342 267.785V268.189ZM242.4 275.965L242.336 276.029C242.008 276.01 241.631 276 241.205 276C240.873 276 240.555 276.01 240.25 276.029L240.197 275.965L240.25 275.18L239.113 276.047C239.023 276.113 238.895 276.154 238.727 276.17C238.66 276.178 238.582 276.182 238.492 276.182C238.059 276.182 237.725 276.051 237.49 275.789C237.26 275.527 237.145 275.166 237.145 274.705C237.145 274.096 237.338 273.664 237.725 273.41C238.143 273.133 238.984 272.883 240.25 272.66C240.25 272.039 240.086 271.623 239.758 271.412C239.559 271.283 239.32 271.219 239.043 271.219C238.738 271.219 238.498 271.281 238.322 271.406L238.1 271.951L238.023 271.992L237.725 271.922L237.684 271.84L237.713 271.148C238.357 270.672 238.842 270.402 239.166 270.34C239.303 270.312 239.48 270.299 239.699 270.299C240.469 270.299 241.018 270.5 241.346 270.902C241.584 271.195 241.703 271.645 241.703 272.25C241.703 272.398 241.697 272.637 241.686 272.965C241.666 273.512 241.656 273.877 241.656 274.061C241.656 274.65 241.666 275.027 241.686 275.191C241.705 275.352 241.75 275.453 241.82 275.496C241.895 275.539 242.068 275.564 242.342 275.572L242.4 275.637V275.965ZM240.25 274.6V273.158C239.605 273.299 239.17 273.451 238.943 273.615C238.721 273.775 238.609 274.021 238.609 274.354C238.609 274.885 238.842 275.15 239.307 275.15C239.701 275.15 240.016 274.967 240.25 274.6ZM249.227 270.885L249.168 270.949C248.93 270.965 248.773 270.994 248.699 271.037C248.645 271.068 248.578 271.154 248.5 271.295C248.422 271.436 248.275 271.752 248.061 272.244L246.941 274.84C246.902 274.934 246.734 275.354 246.438 276.1H245.412C245.193 275.482 244.955 274.852 244.697 274.207C244.287 273.18 243.938 272.297 243.648 271.559C243.52 271.23 243.381 271.039 243.232 270.984C243.146 270.953 243.031 270.936 242.887 270.932L242.822 270.867V270.527L242.887 270.469C243.246 270.48 243.768 270.486 244.451 270.486C245.053 270.486 245.523 270.48 245.863 270.469L245.928 270.527V270.873L245.863 270.938C245.574 270.945 245.387 270.963 245.301 270.99C245.215 271.018 245.172 271.07 245.172 271.148C245.172 271.258 245.412 271.945 245.893 273.211C246.146 273.887 246.312 274.311 246.391 274.482C246.641 273.896 246.879 273.322 247.105 272.76C247.477 271.842 247.662 271.305 247.662 271.148C247.662 271.066 247.621 271.014 247.539 270.99C247.461 270.963 247.27 270.943 246.965 270.932L246.9 270.873V270.527L246.965 270.469C247.266 270.48 247.621 270.486 248.031 270.486C248.473 270.486 248.852 270.48 249.168 270.469L249.227 270.527V270.885ZM254.74 275.965L254.676 276.029C254.348 276.01 253.971 276 253.545 276C253.213 276 252.895 276.01 252.59 276.029L252.537 275.965L252.59 275.18L251.453 276.047C251.363 276.113 251.234 276.154 251.066 276.17C251 276.178 250.922 276.182 250.832 276.182C250.398 276.182 250.064 276.051 249.83 275.789C249.6 275.527 249.484 275.166 249.484 274.705C249.484 274.096 249.678 273.664 250.064 273.41C250.482 273.133 251.324 272.883 252.59 272.66C252.59 272.039 252.426 271.623 252.098 271.412C251.898 271.283 251.66 271.219 251.383 271.219C251.078 271.219 250.838 271.281 250.662 271.406L250.439 271.951L250.363 271.992L250.064 271.922L250.023 271.84L250.053 271.148C250.697 270.672 251.182 270.402 251.506 270.34C251.643 270.312 251.82 270.299 252.039 270.299C252.809 270.299 253.357 270.5 253.686 270.902C253.924 271.195 254.043 271.645 254.043 272.25C254.043 272.398 254.037 272.637 254.025 272.965C254.006 273.512 253.996 273.877 253.996 274.061C253.996 274.65 254.006 275.027 254.025 275.191C254.045 275.352 254.09 275.453 254.16 275.496C254.234 275.539 254.408 275.564 254.682 275.572L254.74 275.637V275.965ZM252.59 274.6V273.158C251.945 273.299 251.51 273.451 251.283 273.615C251.061 273.775 250.949 274.021 250.949 274.354C250.949 274.885 251.182 275.15 251.646 275.15C252.041 275.15 252.355 274.967 252.59 274.6ZM261.719 273.293C261.719 273.938 261.535 274.506 261.168 274.998C260.848 275.432 260.428 275.754 259.908 275.965C259.432 276.16 258.863 276.258 258.203 276.258C257.383 276.258 256.578 276.07 255.789 275.695L255.719 275.566C255.828 275.117 255.883 274.479 255.883 273.65L255.941 273.592H256.316L256.369 273.65V273.785C256.369 274.004 256.393 274.293 256.439 274.652C256.58 274.902 256.832 275.117 257.195 275.297C257.574 275.484 257.969 275.578 258.379 275.578C259.152 275.578 259.688 275.309 259.984 274.77C260.137 274.492 260.213 274.205 260.213 273.908C260.213 273.408 260.004 273.051 259.586 272.836C259.379 272.73 259.045 272.643 258.584 272.572C257.541 272.412 256.855 272.211 256.527 271.969C256.031 271.602 255.783 271.033 255.783 270.264C255.783 269.463 256.053 268.824 256.592 268.348C257.162 267.848 257.955 267.598 258.971 267.598C259.885 267.598 260.623 267.744 261.186 268.037L261.227 268.178C261.133 268.643 261.076 269.201 261.057 269.854L260.992 269.912H260.623L260.564 269.854C260.553 269.385 260.533 269.08 260.506 268.939C260.385 268.756 260.174 268.6 259.873 268.471C259.553 268.338 259.219 268.271 258.871 268.271C258.348 268.271 257.934 268.41 257.629 268.688C257.344 268.949 257.201 269.287 257.201 269.701C257.201 270.15 257.363 270.48 257.688 270.691C257.898 270.828 258.396 270.959 259.182 271.084C259.264 271.096 259.492 271.135 259.867 271.201C260.098 271.24 260.311 271.297 260.506 271.371C260.9 271.52 261.197 271.746 261.396 272.051C261.611 272.383 261.719 272.797 261.719 273.293ZM267.396 275.262L267.139 275.842C266.607 276.119 266.084 276.258 265.568 276.258C264.697 276.258 264.031 276.008 263.57 275.508C263.109 275.008 262.879 274.322 262.879 273.451C262.879 272.646 263.057 272.035 263.412 271.617C263.51 271.5 263.695 271.346 263.969 271.154C264.531 270.756 264.906 270.518 265.094 270.439C265.285 270.361 265.576 270.322 265.967 270.322C266.498 270.322 266.938 270.402 267.285 270.562L267.344 270.668C267.34 270.719 267.312 270.9 267.262 271.213L267.197 271.611C267.186 271.678 267.168 271.939 267.145 272.396L267.086 272.455H266.734L266.676 272.396C266.652 272.049 266.625 271.807 266.594 271.67C266.422 271.365 266.092 271.213 265.604 271.213C264.775 271.213 264.361 271.75 264.361 272.824C264.361 273.605 264.527 274.221 264.859 274.67C265.199 275.135 265.678 275.367 266.295 275.367C266.67 275.367 267 275.287 267.285 275.127L267.396 275.262ZM272.342 270.34L272.301 271.383C272.297 271.555 272.289 271.75 272.277 271.969L272.031 272.045C271.848 271.779 271.594 271.646 271.27 271.646C270.977 271.646 270.734 271.764 270.543 271.998C270.426 272.143 270.367 272.355 270.367 272.637V274.008C270.367 274.293 270.381 274.689 270.408 275.197C270.416 275.342 270.457 275.436 270.531 275.479C270.605 275.521 270.877 275.551 271.346 275.566L271.404 275.619V275.977L271.346 276.035C270.771 276.012 270.201 276 269.635 276C268.936 276 268.402 276.014 268.035 276.041L267.977 275.982V275.625L268.035 275.566C268.41 275.555 268.643 275.525 268.732 275.479C268.811 275.443 268.854 275.35 268.861 275.197C268.889 274.689 268.902 274.145 268.902 273.562V272.725C268.902 271.943 268.873 271.494 268.814 271.377C268.775 271.299 268.691 271.25 268.562 271.23C268.516 271.223 268.346 271.213 268.053 271.201L267.994 271.143V270.814L268.053 270.75C268.756 270.684 269.496 270.521 270.273 270.264L270.402 270.34L270.391 271.488C270.633 271.207 270.926 270.879 271.27 270.504C271.43 270.348 271.648 270.27 271.926 270.27C272.09 270.27 272.229 270.293 272.342 270.34ZM275.213 268.336C275.213 268.586 275.125 268.801 274.949 268.98C274.773 269.156 274.562 269.244 274.316 269.244C274.066 269.244 273.854 269.156 273.678 268.98C273.502 268.801 273.414 268.586 273.414 268.336C273.414 268.078 273.502 267.861 273.678 267.686C273.857 267.51 274.07 267.422 274.316 267.422C274.559 267.422 274.768 267.51 274.943 267.686C275.123 267.861 275.213 268.078 275.213 268.336ZM276.021 275.982L275.963 276.041C275.592 276.014 275.057 276 274.357 276C273.658 276 273.125 276.014 272.758 276.041L272.699 275.982V275.625L272.758 275.566C273.133 275.555 273.365 275.525 273.455 275.479C273.533 275.443 273.576 275.35 273.584 275.197C273.611 274.689 273.625 274.145 273.625 273.562V272.725C273.625 271.967 273.596 271.518 273.537 271.377C273.506 271.299 273.422 271.25 273.285 271.23C273.238 271.223 273.068 271.213 272.775 271.201L272.717 271.143V270.814L272.775 270.75C273.525 270.684 274.281 270.521 275.043 270.264L275.166 270.34C275.115 271.051 275.09 271.65 275.09 272.139V274.008C275.09 274.293 275.104 274.689 275.131 275.197C275.139 275.35 275.182 275.443 275.26 275.479C275.35 275.525 275.582 275.555 275.957 275.566L276.021 275.625V275.982ZM283.129 272.602C283.129 273.082 283.043 273.541 282.871 273.979C282.746 274.299 282.582 274.57 282.379 274.793C282.289 274.891 282.121 275.031 281.875 275.215C281.617 275.422 281.295 275.672 280.908 275.965C280.678 276.117 280.385 276.193 280.029 276.193C279.689 276.193 279.35 276.131 279.01 276.006V278.203C279.01 278.383 279.031 278.502 279.074 278.561C279.098 278.592 279.15 278.617 279.232 278.637C279.295 278.652 279.545 278.676 279.982 278.707L280.047 278.766V279.129L279.988 279.188C279.461 279.156 278.861 279.141 278.189 279.141C277.697 279.141 277.205 279.156 276.713 279.188L276.654 279.129V278.777L276.713 278.713C277.107 278.701 277.334 278.67 277.393 278.619C277.432 278.584 277.455 278.547 277.463 278.508C277.479 278.434 277.494 278.242 277.51 277.934C277.521 277.699 277.529 277.4 277.533 277.037L277.545 276.129V272.725C277.545 272.686 277.533 272.396 277.51 271.857C277.498 271.604 277.477 271.441 277.445 271.371C277.418 271.297 277.338 271.25 277.205 271.23C277.158 271.223 276.986 271.213 276.689 271.201L276.631 271.143V270.814L276.689 270.75C277.436 270.684 278.191 270.521 278.957 270.264L279.086 270.34C279.086 270.508 279.068 270.846 279.033 271.354C279.295 271.135 279.625 270.863 280.023 270.539C280.215 270.395 280.51 270.322 280.908 270.322C281.877 270.322 282.537 270.693 282.889 271.436C283.049 271.775 283.129 272.164 283.129 272.602ZM281.623 273.322C281.623 272.471 281.398 271.896 280.949 271.6C280.711 271.443 280.463 271.365 280.205 271.365C279.725 271.365 279.326 271.562 279.01 271.957V274.863C279.365 275.238 279.756 275.426 280.182 275.426C280.818 275.426 281.244 275.096 281.459 274.436C281.568 274.104 281.623 273.732 281.623 273.322ZM287.594 275.232C287.566 275.264 287.482 275.346 287.342 275.479C287.111 275.697 286.914 275.896 286.75 276.076C286.559 276.139 286.365 276.17 286.17 276.17C285.627 276.17 285.23 276.012 284.98 275.695C284.875 275.559 284.805 275.4 284.77 275.221C284.73 275.006 284.713 274.725 284.717 274.377L284.734 272.977V271.512H284.576L284.266 271.523H284.025L283.961 271.471V271.318L284.008 271.23C284.078 271.184 284.188 271.113 284.336 271.02C284.512 270.91 284.645 270.818 284.734 270.744V269.947C284.734 269.615 284.719 269.264 284.688 268.893C284.98 268.799 285.217 268.717 285.396 268.646C285.58 268.572 285.838 268.453 286.17 268.289L286.322 268.406C286.275 268.891 286.242 269.324 286.223 269.707L286.17 270.721H286.363C286.789 270.721 287.156 270.707 287.465 270.68L287.529 270.744L287.447 271.43L287.389 271.488H286.17V273.475C286.17 274.111 286.178 274.486 286.193 274.6C286.213 274.764 286.281 274.896 286.398 274.998C286.52 275.1 286.682 275.15 286.885 275.15C287.045 275.15 287.238 275.107 287.465 275.021L287.594 275.232Z" fill="#6FA2A4"/>
<rect x="229" y="242" width="270" height="8" rx="4" fill="#178600"/>
<rect x="229" y="284" width="320" height="8" rx="4" fill="#F1E05A"/>
<rect x="229" y="328" width="18" height="8" rx="4" fill="#563D7C"/>
<rect x="228" y="370" width="95" height="8" rx="4" fill="#41B883"/>
<rect x="229" y="416" width="330" height="8" rx="4" fill="#E38C00"/>
<rect x="229" y="556" width="355" height="8" rx="4" fill="#A9A5A5"/>
<path d="M240.291 319.975L240.021 320.572C239.197 321.025 238.275 321.252 237.256 321.252C235.217 321.252 233.822 320.518 233.072 319.049C232.725 318.369 232.551 317.633 232.551 316.84C232.551 315.559 232.977 314.537 233.828 313.775C234.699 312.99 235.889 312.598 237.396 312.598C238.354 312.598 239.289 312.771 240.203 313.119L240.279 313.207C240.146 313.746 240.064 314.377 240.033 315.1L239.98 315.158H239.635L239.576 315.094C239.564 314.621 239.543 314.293 239.512 314.109C239.023 313.559 238.318 313.283 237.396 313.283C236.447 313.283 235.703 313.584 235.164 314.186C234.625 314.787 234.355 315.604 234.355 316.635C234.355 318.029 234.836 319.1 235.797 319.846C236.309 320.244 236.994 320.443 237.854 320.443C238.635 320.443 239.398 320.242 240.145 319.84L240.291 319.975ZM247.375 318.293C247.375 318.938 247.191 319.506 246.824 319.998C246.504 320.432 246.084 320.754 245.564 320.965C245.088 321.16 244.52 321.258 243.859 321.258C243.039 321.258 242.234 321.07 241.445 320.695L241.375 320.566C241.484 320.117 241.539 319.479 241.539 318.65L241.598 318.592H241.973L242.025 318.65V318.785C242.025 319.004 242.049 319.293 242.096 319.652C242.236 319.902 242.488 320.117 242.852 320.297C243.23 320.484 243.625 320.578 244.035 320.578C244.809 320.578 245.344 320.309 245.641 319.77C245.793 319.492 245.869 319.205 245.869 318.908C245.869 318.408 245.66 318.051 245.242 317.836C245.035 317.73 244.701 317.643 244.24 317.572C243.197 317.412 242.512 317.211 242.184 316.969C241.688 316.602 241.439 316.033 241.439 315.264C241.439 314.463 241.709 313.824 242.248 313.348C242.818 312.848 243.611 312.598 244.627 312.598C245.541 312.598 246.279 312.744 246.842 313.037L246.883 313.178C246.789 313.643 246.732 314.201 246.713 314.854L246.648 314.912H246.279L246.221 314.854C246.209 314.385 246.189 314.08 246.162 313.939C246.041 313.756 245.83 313.6 245.529 313.471C245.209 313.338 244.875 313.271 244.527 313.271C244.004 313.271 243.59 313.41 243.285 313.688C243 313.949 242.857 314.287 242.857 314.701C242.857 315.15 243.02 315.48 243.344 315.691C243.555 315.828 244.053 315.959 244.838 316.084C244.92 316.096 245.148 316.135 245.523 316.201C245.754 316.24 245.967 316.297 246.162 316.371C246.557 316.52 246.854 316.746 247.053 317.051C247.268 317.383 247.375 317.797 247.375 318.293ZM254.711 318.293C254.711 318.938 254.527 319.506 254.16 319.998C253.84 320.432 253.42 320.754 252.9 320.965C252.424 321.16 251.855 321.258 251.195 321.258C250.375 321.258 249.57 321.07 248.781 320.695L248.711 320.566C248.82 320.117 248.875 319.479 248.875 318.65L248.934 318.592H249.309L249.361 318.65V318.785C249.361 319.004 249.385 319.293 249.432 319.652C249.572 319.902 249.824 320.117 250.188 320.297C250.566 320.484 250.961 320.578 251.371 320.578C252.145 320.578 252.68 320.309 252.977 319.77C253.129 319.492 253.205 319.205 253.205 318.908C253.205 318.408 252.996 318.051 252.578 317.836C252.371 317.73 252.037 317.643 251.576 317.572C250.533 317.412 249.848 317.211 249.52 316.969C249.023 316.602 248.775 316.033 248.775 315.264C248.775 314.463 249.045 313.824 249.584 313.348C250.154 312.848 250.947 312.598 251.963 312.598C252.877 312.598 253.615 312.744 254.178 313.037L254.219 313.178C254.125 313.643 254.068 314.201 254.049 314.854L253.984 314.912H253.615L253.557 314.854C253.545 314.385 253.525 314.08 253.498 313.939C253.377 313.756 253.166 313.6 252.865 313.471C252.545 313.338 252.211 313.271 251.863 313.271C251.34 313.271 250.926 313.41 250.621 313.688C250.336 313.949 250.193 314.287 250.193 314.701C250.193 315.15 250.355 315.48 250.68 315.691C250.891 315.828 251.389 315.959 252.174 316.084C252.256 316.096 252.484 316.135 252.859 316.201C253.09 316.24 253.303 316.297 253.498 316.371C253.893 316.52 254.189 316.746 254.389 317.051C254.604 317.383 254.711 317.797 254.711 318.293Z" fill="#6FA2A4"/>
<path d="M238.141 357.189L238.082 357.248C237.809 357.275 237.633 357.309 237.555 357.348C237.48 357.383 237.4 357.471 237.314 357.611C237.221 357.764 237.053 358.131 236.811 358.713L236.395 359.703L235.609 361.613C234.934 363.254 234.479 364.408 234.244 365.076H233.354L230.664 358.555C230.379 357.875 230.18 357.484 230.066 357.383C229.98 357.301 229.742 357.256 229.352 357.248L229.293 357.184V356.797L229.357 356.732C229.768 356.756 230.285 356.768 230.91 356.768C231.691 356.768 232.402 356.756 233.043 356.732L233.102 356.797V357.189L233.049 357.248C232.654 357.252 232.395 357.287 232.27 357.354C232.203 357.393 232.17 357.459 232.17 357.553C232.17 357.654 232.297 358.025 232.551 358.666L232.826 359.363L234.309 363.025L235.609 359.762C235.66 359.637 235.777 359.322 235.961 358.818C236.227 358.092 236.359 357.668 236.359 357.547C236.359 357.418 236.316 357.34 236.23 357.312C236.145 357.285 235.883 357.264 235.445 357.248L235.387 357.189V356.791L235.451 356.732C235.893 356.756 236.352 356.768 236.828 356.768C237.168 356.768 237.584 356.756 238.076 356.732L238.141 356.797V357.189ZM245.377 364.971L245.318 365.029C244.732 365.01 244.363 365 244.211 365C244.082 365 243.891 365.004 243.637 365.012C243.383 365.023 243.193 365.029 243.068 365.029L243.021 364.982C243.053 364.662 243.068 364.357 243.068 364.068C242.865 364.221 242.51 364.545 242.002 365.041C241.748 365.139 241.477 365.188 241.188 365.188C240.66 365.188 240.244 365.045 239.939 364.76C239.635 364.471 239.482 364.057 239.482 363.518C239.482 363.451 239.486 363.311 239.494 363.096C239.502 362.881 239.506 362.674 239.506 362.475V361.725C239.506 360.951 239.477 360.502 239.418 360.377C239.379 360.299 239.295 360.25 239.166 360.23C239.119 360.223 238.947 360.213 238.65 360.201L238.592 360.143V359.814L238.65 359.75C239.396 359.684 240.152 359.521 240.918 359.264L241.047 359.34C240.996 359.988 240.971 360.588 240.971 361.139V362.281C240.971 362.816 240.988 363.182 241.023 363.377C241.062 363.611 241.154 363.789 241.299 363.91C241.447 364.031 241.645 364.092 241.891 364.092C242.195 364.092 242.463 363.994 242.693 363.799C242.912 363.604 243.027 363.381 243.039 363.131C243.047 362.939 243.051 362.82 243.051 362.773V361.725C243.051 360.959 243.021 360.51 242.963 360.377C242.928 360.299 242.846 360.25 242.717 360.23C242.67 360.223 242.498 360.213 242.201 360.201L242.137 360.143V359.814L242.201 359.75C242.943 359.684 243.699 359.521 244.469 359.264L244.592 359.34C244.541 359.926 244.516 360.525 244.516 361.139V362.979C244.516 363.803 244.539 364.27 244.586 364.379C244.609 364.434 244.648 364.469 244.703 364.484C244.797 364.512 245 364.535 245.312 364.555L245.377 364.613V364.971ZM251.254 361.713C251.254 361.779 251.252 361.879 251.248 362.012L251.184 362.094C250.668 362.234 249.984 362.305 249.133 362.305C248.98 362.305 248.75 362.309 248.441 362.316C248.133 362.32 247.9 362.322 247.744 362.322C247.768 362.896 247.945 363.371 248.277 363.746C248.625 364.148 249.078 364.35 249.637 364.35C250.012 364.35 250.457 364.221 250.973 363.963L251.113 364.133L250.855 364.713C250.285 365.076 249.666 365.258 248.998 365.258C248.119 365.258 247.436 365.01 246.947 364.514C246.463 364.018 246.221 363.311 246.221 362.393C246.221 361.303 246.48 360.557 247 360.154C247.719 359.6 248.4 359.322 249.045 359.322C249.744 359.322 250.285 359.523 250.668 359.926C251.059 360.34 251.254 360.936 251.254 361.713ZM249.725 361.561C249.725 360.506 249.396 359.979 248.74 359.979C248.049 359.979 247.703 360.502 247.703 361.549V361.678C247.93 361.713 248.332 361.73 248.91 361.73C249.211 361.73 249.48 361.713 249.719 361.678C249.723 361.623 249.725 361.584 249.725 361.561Z" fill="#6FA2A4"/>
<path d="M236.764 401.768C236.717 402.057 236.691 402.355 236.688 402.664L236.676 403.643L236.617 403.701H236.248L236.184 403.648C236.164 403.148 236.143 402.855 236.119 402.77C236.072 402.613 235.947 402.521 235.744 402.494C235.666 402.482 235.299 402.477 234.643 402.477H233.857C233.85 402.613 233.846 403.156 233.846 404.105V407.434C233.846 408.363 233.871 408.969 233.922 409.25C233.941 409.363 234.008 409.436 234.121 409.467C234.18 409.482 234.408 409.502 234.807 409.525L234.865 409.584V409.977L234.807 410.035C234.42 410.012 233.818 410 233.002 410C232.166 410 231.564 410.012 231.197 410.035L231.145 409.982V409.584L231.203 409.525C231.602 409.502 231.83 409.482 231.889 409.467C232.002 409.436 232.068 409.363 232.088 409.25C232.139 408.969 232.164 408.363 232.164 407.434V404.105C232.164 403.141 232.158 402.598 232.146 402.477H231.309C230.609 402.477 230.201 402.498 230.084 402.541C230.021 402.564 229.979 402.594 229.955 402.629C229.92 402.691 229.891 402.816 229.867 403.004C229.84 403.211 229.822 403.424 229.814 403.643L229.756 403.701H229.387L229.322 403.643L229.311 402.641C229.307 402.359 229.283 402.068 229.24 401.768L229.293 401.709C229.523 401.748 230.363 401.768 231.812 401.768H234.186C235.521 401.768 236.361 401.748 236.705 401.709L236.764 401.768ZM243.707 407.293C243.707 407.938 243.523 408.506 243.156 408.998C242.836 409.432 242.416 409.754 241.896 409.965C241.42 410.16 240.852 410.258 240.191 410.258C239.371 410.258 238.566 410.07 237.777 409.695L237.707 409.566C237.816 409.117 237.871 408.479 237.871 407.65L237.93 407.592H238.305L238.357 407.65V407.785C238.357 408.004 238.381 408.293 238.428 408.652C238.568 408.902 238.82 409.117 239.184 409.297C239.562 409.484 239.957 409.578 240.367 409.578C241.141 409.578 241.676 409.309 241.973 408.77C242.125 408.492 242.201 408.205 242.201 407.908C242.201 407.408 241.992 407.051 241.574 406.836C241.367 406.73 241.033 406.643 240.572 406.572C239.529 406.412 238.844 406.211 238.516 405.969C238.02 405.602 237.771 405.033 237.771 404.264C237.771 403.463 238.041 402.824 238.58 402.348C239.15 401.848 239.943 401.598 240.959 401.598C241.873 401.598 242.611 401.744 243.174 402.037L243.215 402.178C243.121 402.643 243.064 403.201 243.045 403.854L242.98 403.912H242.611L242.553 403.854C242.541 403.385 242.521 403.08 242.494 402.939C242.373 402.756 242.162 402.6 241.861 402.471C241.541 402.338 241.207 402.271 240.859 402.271C240.336 402.271 239.922 402.41 239.617 402.688C239.332 402.949 239.189 403.287 239.189 403.701C239.189 404.15 239.352 404.48 239.676 404.691C239.887 404.828 240.385 404.959 241.17 405.084C241.252 405.096 241.48 405.135 241.855 405.201C242.086 405.24 242.299 405.297 242.494 405.371C242.889 405.52 243.186 405.746 243.385 406.051C243.6 406.383 243.707 406.797 243.707 407.293ZM253.785 405.67C253.785 406.58 253.607 407.381 253.252 408.072C252.885 408.783 252.355 409.326 251.664 409.701C250.973 410.072 250.146 410.258 249.186 410.258C249.064 410.258 248.941 410.254 248.816 410.246C249.16 410.305 249.762 410.486 250.621 410.791L251.535 411.113C252.023 411.285 252.414 411.371 252.707 411.371C252.906 411.371 253.211 411.281 253.621 411.102L253.68 411.154V411.471L253.633 411.553C252.918 411.982 252.52 412.238 252.438 412.32C252.066 412.32 251.322 412.15 250.205 411.811C249.076 411.467 248.35 411.295 248.025 411.295C247.838 411.295 247.471 411.465 246.924 411.805L246.836 411.775L246.742 411.506L246.766 411.418C246.844 411.344 247.031 411.205 247.328 411.002C247.863 410.635 248.295 410.377 248.623 410.229C247.494 410.15 246.598 409.748 245.934 409.021C245.238 408.264 244.891 407.254 244.891 405.992C244.891 404.629 245.291 403.557 246.092 402.775C246.893 401.99 248.012 401.598 249.449 401.598C251.207 401.598 252.461 402.191 253.211 403.379C253.594 403.984 253.785 404.748 253.785 405.67ZM251.98 405.975C251.98 404.842 251.752 403.943 251.295 403.279C250.842 402.611 250.176 402.277 249.297 402.277C248.137 402.277 247.367 402.799 246.988 403.842C246.793 404.377 246.695 404.977 246.695 405.641C246.695 406.848 246.918 407.801 247.363 408.5C247.824 409.223 248.514 409.584 249.432 409.584C250.545 409.584 251.293 409.035 251.676 407.938C251.879 407.355 251.98 406.701 251.98 405.975ZM261.162 408.043C261.076 408.613 261.033 409.258 261.033 409.977L260.975 410.035L256.715 410C256.004 410 255.502 410.012 255.209 410.035L255.15 409.977V409.812L255.18 409.742C255.469 409.559 255.625 409.443 255.648 409.396C255.684 409.326 255.705 409.066 255.713 408.617L255.73 407.305V404.334C255.73 403.404 255.705 402.799 255.654 402.518C255.635 402.404 255.568 402.332 255.455 402.301C255.396 402.285 255.168 402.266 254.77 402.242L254.711 402.184V401.785L254.77 401.732C255.172 401.756 255.762 401.768 256.539 401.768C257.344 401.768 257.955 401.756 258.373 401.732L258.432 401.785V402.189L258.373 402.242C257.975 402.266 257.746 402.285 257.688 402.301C257.574 402.332 257.508 402.404 257.488 402.518C257.438 402.799 257.412 403.404 257.412 404.334V407.838C257.412 408.35 257.422 408.846 257.441 409.326H258.238C259.379 409.326 260.078 409.281 260.336 409.191C260.379 409.176 260.41 409.154 260.43 409.127C260.469 409.072 260.506 408.955 260.541 408.775L260.682 408.049L260.74 407.984H261.098L261.162 408.043Z" fill="#6FA2A4"/>
<path d="M236.02 452.566C236.02 453.371 235.744 454 235.193 454.453C234.646 454.902 234.027 455.127 233.336 455.127C233.102 455.127 232.865 455.1 232.627 455.045C232.592 454.939 232.523 454.799 232.422 454.623L232.545 454.494C232.709 454.549 232.859 454.576 232.996 454.576C233.391 454.576 233.707 454.438 233.945 454.16C234.184 453.879 234.303 453.486 234.303 452.982C234.303 451.893 233.812 451.348 232.832 451.348C232.715 451.348 232.48 451.371 232.129 451.418C232.094 451.512 232.076 452.15 232.076 453.334V456.434C232.076 457.363 232.102 457.969 232.152 458.25C232.172 458.363 232.238 458.436 232.352 458.467C232.387 458.475 232.654 458.494 233.154 458.525L233.219 458.59V458.977L233.16 459.035C232.625 459.012 231.984 459 231.238 459C230.398 459 229.797 459.012 229.434 459.035L229.375 458.982V458.59L229.439 458.525C229.834 458.502 230.061 458.482 230.119 458.467C230.232 458.436 230.299 458.363 230.318 458.25C230.369 457.969 230.395 457.363 230.395 456.434V453.334C230.395 452.404 230.369 451.799 230.318 451.518C230.299 451.404 230.232 451.332 230.119 451.301C230.061 451.285 229.832 451.266 229.434 451.242L229.375 451.178V450.791L229.439 450.732C229.822 450.756 230.41 450.768 231.203 450.768C231.531 450.768 232.004 450.762 232.621 450.75C233.238 450.738 233.594 450.732 233.688 450.732C234.758 450.732 235.453 451.004 235.773 451.547C235.938 451.828 236.02 452.168 236.02 452.566ZM243.15 457.043C243.064 457.613 243.021 458.258 243.021 458.977L242.963 459.035L238.703 459C237.992 459 237.49 459.012 237.197 459.035L237.139 458.977V458.812L237.168 458.742C237.457 458.559 237.613 458.443 237.637 458.396C237.672 458.326 237.693 458.066 237.701 457.617L237.719 456.305V453.334C237.719 452.404 237.693 451.799 237.643 451.518C237.623 451.404 237.557 451.332 237.443 451.301C237.385 451.285 237.156 451.266 236.758 451.242L236.699 451.184V450.785L236.758 450.732C237.16 450.756 237.75 450.768 238.527 450.768C239.332 450.768 239.943 450.756 240.361 450.732L240.42 450.785V451.189L240.361 451.242C239.963 451.266 239.734 451.285 239.676 451.301C239.562 451.332 239.496 451.404 239.477 451.518C239.426 451.799 239.4 452.404 239.4 453.334V456.838C239.4 457.35 239.41 457.846 239.43 458.326H240.227C241.367 458.326 242.066 458.281 242.324 458.191C242.367 458.176 242.398 458.154 242.418 458.127C242.457 458.072 242.494 457.955 242.529 457.775L242.67 457.049L242.729 456.984H243.086L243.15 457.043ZM250.305 456.293C250.305 456.938 250.121 457.506 249.754 457.998C249.434 458.432 249.014 458.754 248.494 458.965C248.018 459.16 247.449 459.258 246.789 459.258C245.969 459.258 245.164 459.07 244.375 458.695L244.305 458.566C244.414 458.117 244.469 457.479 244.469 456.65L244.527 456.592H244.902L244.955 456.65V456.785C244.955 457.004 244.979 457.293 245.025 457.652C245.166 457.902 245.418 458.117 245.781 458.297C246.16 458.484 246.555 458.578 246.965 458.578C247.738 458.578 248.273 458.309 248.57 457.77C248.723 457.492 248.799 457.205 248.799 456.908C248.799 456.408 248.59 456.051 248.172 455.836C247.965 455.73 247.631 455.643 247.17 455.572C246.127 455.412 245.441 455.211 245.113 454.969C244.617 454.602 244.369 454.033 244.369 453.264C244.369 452.463 244.639 451.824 245.178 451.348C245.748 450.848 246.541 450.598 247.557 450.598C248.471 450.598 249.209 450.744 249.771 451.037L249.812 451.178C249.719 451.643 249.662 452.201 249.643 452.854L249.578 452.912H249.209L249.15 452.854C249.139 452.385 249.119 452.08 249.092 451.939C248.971 451.756 248.76 451.6 248.459 451.471C248.139 451.338 247.805 451.271 247.457 451.271C246.934 451.271 246.52 451.41 246.215 451.688C245.93 451.949 245.787 452.287 245.787 452.701C245.787 453.15 245.949 453.48 246.273 453.691C246.484 453.828 246.982 453.959 247.768 454.084C247.85 454.096 248.078 454.135 248.453 454.201C248.684 454.24 248.896 454.297 249.092 454.371C249.486 454.52 249.783 454.746 249.982 455.051C250.197 455.383 250.305 455.797 250.305 456.293ZM260.383 454.67C260.383 455.58 260.205 456.381 259.85 457.072C259.482 457.783 258.953 458.326 258.262 458.701C257.57 459.072 256.744 459.258 255.783 459.258C255.662 459.258 255.539 459.254 255.414 459.246C255.758 459.305 256.359 459.486 257.219 459.791L258.133 460.113C258.621 460.285 259.012 460.371 259.305 460.371C259.504 460.371 259.809 460.281 260.219 460.102L260.277 460.154V460.471L260.23 460.553C259.516 460.982 259.117 461.238 259.035 461.32C258.664 461.32 257.92 461.15 256.803 460.811C255.674 460.467 254.947 460.295 254.623 460.295C254.436 460.295 254.068 460.465 253.521 460.805L253.434 460.775L253.34 460.506L253.363 460.418C253.441 460.344 253.629 460.205 253.926 460.002C254.461 459.635 254.893 459.377 255.221 459.229C254.092 459.15 253.195 458.748 252.531 458.021C251.836 457.264 251.488 456.254 251.488 454.992C251.488 453.629 251.889 452.557 252.689 451.775C253.49 450.99 254.609 450.598 256.047 450.598C257.805 450.598 259.059 451.191 259.809 452.379C260.191 452.984 260.383 453.748 260.383 454.67ZM258.578 454.975C258.578 453.842 258.35 452.943 257.893 452.279C257.439 451.611 256.773 451.277 255.895 451.277C254.734 451.277 253.965 451.799 253.586 452.842C253.391 453.377 253.293 453.977 253.293 454.641C253.293 455.848 253.516 456.801 253.961 457.5C254.422 458.223 255.111 458.584 256.029 458.584C257.143 458.584 257.891 458.035 258.273 456.938C258.477 456.355 258.578 455.701 258.578 454.975ZM267.76 457.043C267.674 457.613 267.631 458.258 267.631 458.977L267.572 459.035L263.312 459C262.602 459 262.1 459.012 261.807 459.035L261.748 458.977V458.812L261.777 458.742C262.066 458.559 262.223 458.443 262.246 458.396C262.281 458.326 262.303 458.066 262.311 457.617L262.328 456.305V453.334C262.328 452.404 262.303 451.799 262.252 451.518C262.232 451.404 262.166 451.332 262.053 451.301C261.994 451.285 261.766 451.266 261.367 451.242L261.309 451.184V450.785L261.367 450.732C261.77 450.756 262.359 450.768 263.137 450.768C263.941 450.768 264.553 450.756 264.971 450.732L265.029 450.785V451.189L264.971 451.242C264.572 451.266 264.344 451.285 264.285 451.301C264.172 451.332 264.105 451.404 264.086 451.518C264.035 451.799 264.01 452.404 264.01 453.334V456.838C264.01 457.35 264.02 457.846 264.039 458.326H264.836C265.977 458.326 266.676 458.281 266.934 458.191C266.977 458.176 267.008 458.154 267.027 458.127C267.066 458.072 267.104 457.955 267.139 457.775L267.279 457.049L267.338 456.984H267.695L267.76 457.043Z" fill="#6FA2A4"/>
<path d="M238.767 499.094L238.684 499.818C238.667 499.979 238.648 500.19 238.627 500.453L238.589 500.96L238.525 501.03H238.157L238.094 500.967C238.085 500.396 238.051 500.07 237.992 499.989C237.895 499.858 237.305 499.792 236.221 499.792C236.048 499.792 235.775 499.805 235.402 499.831C235.356 500.262 235.333 501.037 235.333 502.154V503.011L236.05 503.03C236.266 503.034 236.666 503.026 237.25 503.004C237.364 503 237.44 502.968 237.478 502.909C237.542 502.808 237.58 502.528 237.592 502.071L237.656 502.008H238.049L238.113 502.071C238.096 502.545 238.087 502.979 238.087 503.373C238.087 503.8 238.096 504.268 238.113 504.775L238.049 504.833H237.624L237.561 504.769C237.561 504.325 237.542 504.064 237.503 503.988C237.431 503.84 237.214 503.751 236.85 503.722C236.6 503.701 236.354 503.69 236.113 503.69C235.821 503.69 235.561 503.696 235.333 503.709V505.22C235.333 506.223 235.36 506.879 235.415 507.188C235.436 507.31 235.508 507.389 235.631 507.422C235.66 507.431 235.963 507.452 236.539 507.486L236.602 507.549V507.975L236.532 508.038L233.98 508C233.617 507.996 233.113 508.008 232.47 508.038L232.406 507.981V507.549L232.47 507.486C232.901 507.46 233.149 507.439 233.212 507.422C233.335 507.389 233.407 507.31 233.428 507.188C233.483 506.879 233.511 506.223 233.511 505.22V501.862C233.511 500.859 233.483 500.203 233.428 499.894C233.407 499.771 233.335 499.693 233.212 499.659C233.149 499.642 232.901 499.621 232.47 499.596L232.406 499.532V499.101L232.47 499.043C232.876 499.069 233.528 499.082 234.425 499.082C235.005 499.082 236.431 499.069 238.703 499.043L238.767 499.094ZM240.347 508L240.747 505.835H239.808L239.992 504.845H240.938L241.42 502.243H240.48L240.665 501.252H241.604L241.953 499.374H242.436L242.08 501.252H243.534L243.883 499.374H244.359L244.01 501.252H244.949L244.765 502.243H243.826L243.337 504.845H244.276L244.092 505.835H243.153L242.747 508H242.271L242.677 505.835H241.223L240.817 508H240.347ZM241.407 504.845H242.861L243.35 502.243H241.896L241.407 504.845Z" fill="#6FA2A4"/>
<path d="M240.396 550.977L240.338 551.035C240.311 551.035 240.236 551.033 240.115 551.029C239.58 551.01 239.246 551 239.113 551C238.914 551 238.598 551.012 238.164 551.035C238.148 550.941 238.074 550.785 237.941 550.566L236.488 548.141L235.838 547.15C235.756 547.029 235.641 546.91 235.492 546.793L235.557 546.594C235.646 546.598 235.713 546.6 235.756 546.6C236.139 546.6 236.439 546.539 236.658 546.418C236.857 546.309 237.041 546.117 237.209 545.844C237.377 545.57 237.461 545.244 237.461 544.865C237.461 544.205 237.215 543.76 236.723 543.529C236.488 543.42 236.146 543.365 235.697 543.365C235.502 543.365 235.314 543.381 235.135 543.412C235.096 543.795 235.076 544.447 235.076 545.369V548.434C235.076 549.363 235.102 549.969 235.152 550.25C235.172 550.363 235.238 550.436 235.352 550.467C235.41 550.482 235.639 550.502 236.037 550.525L236.096 550.584V550.977L236.043 551.035C235.652 551.012 235.051 551 234.238 551C233.398 551 232.797 551.012 232.434 551.035L232.375 550.982V550.584L232.434 550.525C232.832 550.502 233.061 550.482 233.119 550.467C233.232 550.436 233.299 550.363 233.318 550.25C233.369 549.969 233.395 549.363 233.395 548.434V545.334C233.395 544.404 233.369 543.799 233.318 543.518C233.299 543.404 233.232 543.332 233.119 543.301C233.061 543.285 232.832 543.266 232.434 543.242L232.375 543.184V542.785L232.434 542.732C232.816 542.756 233.418 542.768 234.238 542.768C234.715 542.768 235.102 542.762 235.398 542.75C235.988 542.727 236.43 542.715 236.723 542.715C237.398 542.715 237.895 542.775 238.211 542.896C238.637 543.061 238.922 543.338 239.066 543.729C239.137 543.92 239.172 544.146 239.172 544.408C239.172 545.471 238.574 546.225 237.379 546.67C237.574 546.998 237.781 547.33 238 547.666L238.902 549.055C239.434 549.875 239.787 550.342 239.963 550.455C240.053 550.514 240.178 550.543 240.338 550.543L240.396 550.602V550.977Z" fill="#6FA2A4"/>
<rect x="229" y="465" width="312" height="8" rx="4" fill="#DAD8D8"/>
<rect x="231" y="514" width="355" height="8" rx="4" fill="#A9A5A5"/>
<rect x="229" y="514" width="25" height="8" rx="4" fill="#B845FC"/>
<rect x="229" y="556" width="38" height="8" rx="4" fill="#47818D"/>
<defs>
<filter id="filter0_d_478_71" x="199" y="63" width="420" height="579" filterUnits="userSpaceOnUse" color-interpolation-filters="sRGB">
<feFlood flood-opacity="0" result="BackgroundImageFix"/>
<feColorMatrix in="SourceAlpha" type="matrix" values="0 0 0 0 0 0 0 0 0 0 0 0 0 0 0 0 0 0 127 0" result="hardAlpha"/>
<feOffset dy="4"/>
<feGaussianBlur stdDeviation="2"/>
<feComposite in2="hardAlpha" operator="out"/>
<feColorMatrix type="matrix" values="0 0 0 0 0 0 0 0 0 0 0 0 0 0 0 0 0 0 0.25 0"/>
<feBlend mode="normal" in2="BackgroundImageFix" result="effect1_dropShadow_478_71"/>
<feBlend mode="normal" in="SourceGraphic" in2="effect1_dropShadow_478_71" result="shape"/>
</filter>
</defs>
</svg>
